<svg width="1440" height="2112" viewBox="0 0 1440 2112" fill="none" xmlns="http://www.w3.org/2000/svg">
<rect width="1440" height="2112" fill="#171B1B"/>
<mask id="mask0_0_332" style="mask-type:luminance" maskUnits="userSpaceOnUse" x="0" y="0" width="1440" height="2112">
<rect width="1440" height="2112" fill="white"/>
</mask>
<g mask="url(#mask0_0_332)">
<path fill-rule="evenodd" clip-rule="evenodd" d="M160.688 61.2728C161.927 60.4831 163.167 59.693 164.586 59.2169C162.934 60.3783 161.16 61.3574 159.297 62.1371C159.766 61.8599 160.227 61.5664 160.688 61.2728ZM164.623 59.2003L165.363 58.9894C161.468 61.626 157.273 63.7899 152.867 65.4355C146.602 67.7128 140.035 69.0549 133.378 69.4186C126.858 69.7624 120.321 69.6464 113.817 69.0716C104.316 68.3061 94.8122 67.6623 85.2671 67.9152C77.4057 68.0722 69.6545 69.7803 62.4576 72.9416C59.6014 74.2048 56.7699 75.5144 53.9468 77.0266C53.9636 76.6375 54.1861 76.5223 54.437 76.3923C54.6282 76.2933 54.836 76.1857 54.9821 75.9419C54.7155 76.0896 54.4359 76.2111 54.1714 76.326C53.6224 76.5645 53.1385 76.7747 52.9716 77.1329C52.7405 77.7631 52.1847 78.2169 51.5213 78.3174C49.9942 78.3432 48.8638 79.1348 47.7383 79.9229C47.2259 80.2817 46.7145 80.6398 46.1672 80.9246C45.4974 81.273 44.9268 81.7757 44.3519 82.2821C43.736 82.8247 43.1153 83.3715 42.3623 83.7378C41.7625 84.0293 41.1877 84.3647 40.6126 84.7003C39.4141 85.3996 38.2142 86.0998 36.7829 86.4059C35.8367 86.6086 34.9483 87.4388 34.1456 88.2164C33.4029 88.9355 32.315 89.6402 31.3422 89.6931C30.3322 89.7484 29.5339 90.2017 28.7379 90.6539L28.7377 90.654C28.2439 90.9345 27.7509 91.2145 27.2087 91.3986C23.7571 92.6109 20.2359 93.6153 16.6639 94.4064C11.556 95.4342 6.35365 95.9221 1.14257 95.8621C-7.51621 95.8494 -14.9335 92.5439 -21.5914 87.2841C-28.2601 82.0143 -32.1811 75.2186 -32.8026 66.6294L-32.8149 66.4596C-33.1387 61.9931 -33.4625 57.5274 -33.3894 53.048C-33.3654 50.1443 -32.962 47.2566 -32.1896 44.4584C-31.5336 42.1493 -31.5964 39.807 -31.6591 37.4669L-31.6592 37.4645C-31.6641 37.2794 -31.6691 37.0942 -31.6737 36.9091C-31.8394 30.2468 -31.3241 23.6694 -29.3722 17.2665C-27.4003 10.8017 -24.054 5.06426 -19.8608 -0.181993C-14.2853 -7.15852 -7.36893 -12.6118 -0.0560736 -17.6484L0.375348 -17.9454L0.375402 -17.9455C10.7535 -25.0916 21.142 -32.2449 30.0864 -41.2273C36.4775 -47.6456 42.2717 -54.5325 46.5296 -62.6022C48.4137 -66.173 49.4269 -70.0114 50.2589 -73.9368C50.7856 -76.4216 51.2582 -78.9179 51.7307 -81.4141C52.574 -85.869 53.4173 -90.3237 54.5683 -94.7125C55.8586 -99.6314 57.2971 -104.511 59.613 -109.066C63.6711 -117.047 68.6553 -124.387 75.4099 -130.326C82.6484 -136.69 90.7244 -141.587 100.437 -143.211C109.681 -144.757 118.46 -143.739 126.276 -138.116C130.549 -135.039 133.665 -130.889 136.218 -126.339C138.522 -122.232 140.62 -118.018 142.718 -113.803L142.718 -113.802L142.718 -113.802L142.718 -113.802L142.718 -113.802L142.718 -113.802L142.719 -113.801L142.719 -113.801L142.719 -113.801L142.719 -113.801C144.888 -109.443 147.058 -105.084 149.456 -100.844C150.007 -99.8689 150.552 -98.8902 151.097 -97.9117C153.711 -93.216 156.325 -88.5215 159.652 -84.2652C164.562 -77.9806 170.932 -73.7171 178.265 -70.7602C181.365 -69.5079 184.5 -68.3477 187.635 -67.1874L187.639 -67.1861C189.484 -66.503 191.33 -65.8199 193.168 -65.1179C199.12 -62.8457 204.903 -60.232 210.105 -56.4752C219.247 -49.8737 223.372 -40.7574 223.531 -29.6715C223.579 -23.2202 222.652 -16.7999 220.782 -10.6281C220.123 -8.38103 219.32 -6.19004 218.519 -4.00533C218.379 -3.62428 218.24 -3.24341 218.101 -2.86246C217.246 -0.513203 216.16 1.74476 214.858 3.87799C214.317 4.76282 213.875 5.7054 213.431 6.65175L213.431 6.65202L213.431 6.65229C213.021 7.52691 212.609 8.40471 212.117 9.24313C208.424 15.5789 204.313 21.6606 199.811 27.4478C197.1 30.91 194.151 34.16 191.182 37.3831C188.806 39.9609 186.277 42.4013 183.64 44.7476C182.997 45.3201 182.357 45.8988 181.716 46.4781C180.19 47.8575 178.661 49.2399 177.078 50.5471C176.451 51.0642 175.732 51.459 175.008 51.8567C174.338 52.2245 173.664 52.5949 173.053 53.067C170.555 55.0639 167.913 56.8737 165.149 58.4817C164.869 58.6367 164.602 58.8171 164.623 59.2003ZM94.712 -135.689L94.576 -135.831C94.2082 -135.651 93.8362 -135.477 93.4642 -135.303C92.6479 -134.922 91.8316 -134.54 91.0603 -134.083C90.7784 -133.916 90.4961 -133.75 90.2139 -133.583C86.8336 -131.591 83.4646 -129.606 80.9598 -126.391C80.6395 -125.979 80.2094 -125.638 79.7692 -125.289C79.2319 -124.862 78.6794 -124.424 78.2935 -123.831C77.8169 -123.099 77.2028 -122.498 76.5828 -121.892C75.9533 -121.276 75.3178 -120.654 74.8143 -119.883C73.2729 -117.524 71.6463 -115.188 69.915 -112.953C69.1456 -111.96 68.5767 -110.866 68.0089 -109.775L68.0088 -109.774L68.0087 -109.774C67.7291 -109.237 67.4498 -108.7 67.147 -108.176C66.4889 -106.883 65.9026 -105.554 65.3908 -104.196C64.2961 -101.737 63.4107 -99.1903 62.7442 -96.582C62.0902 -93.9433 61.5419 -91.2644 61.0316 -88.5848C60.8327 -87.5407 60.6511 -86.4924 60.4695 -85.4441C60.1913 -83.8376 59.913 -82.2309 59.5721 -80.6387C58.8889 -77.5553 58.406 -74.4306 58.1264 -71.2842C58.0595 -70.4628 57.8306 -69.6999 57.6015 -68.9363L57.6015 -68.9361C57.3935 -68.2428 57.1853 -67.5488 57.0981 -66.81C57.0031 -65.4548 56.7473 -64.116 56.3362 -62.8217C55.4992 -60.5207 54.4914 -58.2857 53.3213 -56.1354C49.3557 -48.9734 44.2215 -42.7038 38.4864 -36.9149C38.2139 -36.6398 37.9438 -36.3612 37.6735 -36.0824L37.6734 -36.0823L37.6733 -36.0822L37.6733 -36.0822L37.6732 -36.0821L37.6731 -36.082L37.673 -36.0819L37.6729 -36.0819L37.6728 -36.0818C36.1907 -34.5531 34.7015 -33.017 32.7607 -32.0079C32.0237 -31.6741 31.3618 -31.195 30.8143 -30.5992C29.8492 -29.4156 28.7051 -28.3902 27.4235 -27.5602C25.9494 -26.5816 24.5548 -25.5006 23.1593 -24.419L23.1593 -24.4189C22.0211 -23.5366 20.8823 -22.6539 19.6991 -21.8258C15.4355 -18.8407 11.148 -15.8955 6.71922 -13.1703C5.48467 -12.4105 4.30457 -11.5748 3.12395 -10.7387L3.12389 -10.7387L3.12383 -10.7386L3.12377 -10.7386L3.12371 -10.7386L3.12365 -10.7385L3.12359 -10.7385L3.12353 -10.7385L3.12347 -10.7384L3.12341 -10.7384C1.72718 -9.74964 0.330212 -8.76036 -1.15839 -7.89559C-2.41398 -7.1657 -3.49213 -6.12619 -4.56837 -5.08851C-4.99815 -4.67413 -5.42763 -4.26004 -5.86798 -3.86607C-13.1644 2.66087 -18.8881 10.2658 -21.627 19.8057C-21.7866 20.3622 -22.1128 20.7813 -22.4343 21.1943C-22.8115 21.6789 -23.1821 22.1551 -23.2695 22.8351C-23.996 28.5034 -24.8002 34.1603 -25.8424 39.7829C-26.5592 43.6504 -26.3997 47.5407 -26.2402 51.4317C-26.156 53.485 -26.0718 55.5386 -26.1164 57.5891L-26.1185 57.6914L-26.1203 57.7832L-26.1203 57.7844C-26.1399 58.7987 -26.1409 58.8531 -26.9177 59.8785C-26.9783 59.9587 -26.9553 60.1065 -26.9331 60.2486C-26.9248 60.3017 -26.9166 60.354 -26.913 60.4017C-26.8256 61.5602 -26.7708 62.7213 -26.716 63.8824C-26.6039 66.2567 -26.4918 68.6307 -26.1009 70.9808C-26.0412 71.339 -25.9861 71.6989 -25.9309 72.059C-25.6487 73.8993 -25.3655 75.7466 -24.4716 77.4204C-20.7457 84.3883 -14.8223 88.3425 -7.17776 89.7992C-2.86792 90.6201 1.49372 90.47 5.84399 90.1181C14.7748 89.4223 23.4547 86.8406 31.3119 82.5432C34.4848 80.8149 37.6068 78.9979 40.7291 77.1807C45.3948 74.4653 50.0613 71.7494 54.8994 69.3284C62.7505 65.3254 71.3249 62.9369 80.1171 62.3036C90.784 61.5649 101.419 62.2171 112.055 62.9611C119.348 63.4706 126.645 63.7189 133.931 62.9111C144.177 61.7744 153.489 58.1316 162.066 52.4529C167.251 49.0344 172.194 45.2633 176.861 41.1662C189.633 29.9149 200.552 17.0929 209.22 2.38945C213.173 -4.31614 216.379 -11.3149 217.915 -19.0025C218.948 -24.1866 219.615 -29.3927 218.995 -34.6909C218.63 -37.7994 217.852 -40.768 215.915 -43.3082C213.546 -46.4256 210.635 -49.0905 207.323 -51.175C201.311 -54.9641 194.697 -57.379 188.081 -59.7947C187.276 -60.0886 186.471 -60.3824 185.667 -60.6788C178.398 -63.3594 171.205 -66.1383 165.113 -71.2229C161.611 -74.0971 158.538 -77.4588 155.988 -81.2052C149.759 -90.4852 144.955 -100.542 140.153 -110.595L140.153 -110.595L139.585 -111.783C138.936 -113.142 138.319 -114.518 137.703 -115.894L137.702 -115.894C136.13 -119.403 134.557 -122.912 132.435 -126.148C130.454 -129.168 128.196 -131.929 125.18 -133.987C119.806 -137.548 113.36 -139.117 106.957 -138.424C106.78 -138.386 106.598 -138.381 106.419 -138.411C104.613 -138.922 102.999 -138.307 101.381 -137.691L101.38 -137.691C101.219 -137.63 101.059 -137.569 100.898 -137.509C100.786 -137.467 100.668 -137.416 100.549 -137.364C100.177 -137.201 99.7884 -137.03 99.4879 -137.121C98.7022 -137.358 98.097 -137.018 97.4806 -136.672C96.9807 -136.392 96.4734 -136.107 95.8563 -136.122C95.5209 -136.13 95.1022 -135.85 94.6474 -135.545C94.2803 -135.299 93.8898 -135.038 93.5006 -134.899L94.712 -135.689ZM54.438 71.0368C58.8795 68.7116 63.5844 66.9286 68.4519 65.7261C63.0805 67.4868 57.8775 69.7242 52.9047 72.4114C48.6556 74.6499 44.5144 77.0774 40.3732 79.505C38.3561 80.6874 36.3391 81.8697 34.3096 83.0302C32.3462 84.2 30.284 85.1953 28.1467 86.0047C28.4371 85.3319 28.9911 85.1713 29.5294 85.0154C29.7922 84.9393 30.0513 84.8642 30.2741 84.7312C31.7084 83.8749 33.1624 83.0506 34.6163 82.2264C35.9882 81.4486 37.36 80.6709 38.7151 79.8665C43.8862 76.7972 49.0898 73.7877 54.438 71.0368ZM89.355 -138.049C94.4893 -140.259 99.9088 -141.738 105.455 -142.44C99.8032 -142.356 94.2655 -140.845 89.355 -138.049ZM32.7046 -40.6385C37.4871 -44.9581 41.5977 -49.9686 44.9006 -55.5045C41.1102 -50.3232 36.9785 -45.4231 32.7046 -40.6385ZM-22.0627 6.25376C-25.1767 11.0926 -27.803 16.1401 -28.5347 21.9626C-26.9851 16.4951 -24.8136 11.2244 -22.0627 6.25376ZM143.028 62.8616L143.028 62.8616C148.173 61.2352 153.318 59.6089 158.01 56.8343C152.982 60.1905 147.293 62.4298 141.326 63.4015C141.888 63.2221 142.45 63.0443 143.013 62.8664L143.028 62.8616ZM82.3463 -134.224C82.5191 -134.155 82.6413 -134.1 82.7279 -134.061C82.8515 -134.005 82.9027 -133.981 82.9255 -133.998C84.5901 -135.25 86.383 -136.322 88.2741 -137.196C88.3628 -137.22 88.4377 -137.28 88.481 -137.361C88.5243 -137.442 88.5324 -137.537 88.5033 -137.624C88.3936 -137.919 88.1396 -137.874 87.9501 -137.756C86.5377 -136.874 85.1302 -135.984 83.6322 -135.037L83.6302 -135.036L83.6276 -135.034C83.2083 -134.769 82.7819 -134.499 82.3463 -134.224ZM48.6355 -50.1903C50.2691 -52.0412 51.6068 -54.1338 52.6015 -56.3941L48.6355 -50.1903ZM46.7009 79.6287C49.0119 78.8398 49.9068 78.0917 49.718 76.9048C49.6599 78.108 48.9332 78.3697 48.1722 78.6436C47.6185 78.843 47.0466 79.0489 46.7009 79.6287ZM43.2677 82.7541L43.323 82.9178L38.6557 85.5049L38.5733 85.3563L43.2677 82.7541Z" fill="#9EAD8D"/>
<path fill-rule="evenodd" clip-rule="evenodd" d="M1434.56 985.16C1436.01 984.917 1437.46 984.674 1438.96 984.791C1436.98 985.214 1434.97 985.423 1432.95 985.412C1433.49 985.34 1434.03 985.25 1434.56 985.16ZM1439 984.79L1439.76 984.885C1435.15 985.79 1430.44 986.143 1425.74 985.936C1419.08 985.584 1412.51 984.254 1406.24 981.987C1400.11 979.756 1394.14 977.096 1388.37 974.025C1379.93 969.608 1371.43 965.302 1362.54 961.805C1355.25 958.878 1347.44 957.422 1339.58 957.52C1336.46 957.566 1333.34 957.665 1330.15 957.954C1330.32 957.603 1330.57 957.584 1330.85 957.562C1331.07 957.546 1331.3 957.528 1331.53 957.36C1331.23 957.392 1330.92 957.395 1330.63 957.397C1330.04 957.402 1329.51 957.407 1329.21 957.671C1328.76 958.161 1328.07 958.362 1327.42 958.195C1326 957.622 1324.65 957.909 1323.31 958.195C1322.7 958.325 1322.08 958.455 1321.47 958.503C1320.72 958.562 1320 958.802 1319.27 959.043C1318.49 959.302 1317.7 959.563 1316.87 959.606C1316.2 959.64 1315.54 959.724 1314.88 959.808C1313.51 959.983 1312.13 960.159 1310.69 959.882C1309.74 959.699 1308.6 960.116 1307.55 960.518C1306.59 960.89 1305.31 961.113 1304.4 960.782C1303.45 960.438 1302.53 960.543 1301.62 960.649L1301.62 960.649C1301.06 960.714 1300.5 960.779 1299.93 960.737C1296.28 960.504 1292.64 960.053 1289.04 959.385C1283.94 958.335 1278.96 956.752 1274.19 954.66C1266.22 951.265 1260.69 945.324 1256.61 937.881C1252.53 930.425 1251.58 922.637 1254.36 914.488L1254.42 914.327C1255.87 910.089 1257.31 905.852 1259.13 901.757C1260.29 899.094 1261.79 896.593 1263.59 894.319C1265.1 892.45 1265.95 890.269 1266.81 888.091L1266.81 888.088C1266.88 887.916 1266.95 887.744 1267.02 887.572C1269.47 881.374 1272.51 875.521 1276.81 870.39C1281.15 865.209 1286.47 861.235 1292.38 858.045C1300.24 853.801 1308.74 851.484 1317.44 849.705L1317.95 849.6L1317.95 849.6C1330.3 847.077 1342.65 844.552 1354.4 839.778C1362.79 836.367 1370.81 832.292 1377.88 826.527C1381.01 823.977 1383.45 820.839 1385.75 817.551C1387.2 815.469 1388.61 813.356 1390.02 811.243C1392.54 807.472 1395.06 803.701 1397.83 800.111C1400.94 796.087 1404.17 792.157 1408.08 788.87C1414.94 783.109 1422.39 778.299 1430.93 775.472C1440.08 772.442 1449.43 771.09 1459 773.389C1468.12 775.578 1475.8 779.946 1480.8 788.176C1483.53 792.678 1484.77 797.716 1485.35 802.901C1485.86 807.582 1486.15 812.281 1486.43 816.981L1486.43 816.981L1486.43 816.981L1486.43 816.982L1486.43 816.982L1486.43 816.982L1486.43 816.982L1486.43 816.982L1486.43 816.983L1486.43 816.983C1486.73 821.842 1487.02 826.702 1487.57 831.542C1487.7 832.655 1487.82 833.769 1487.94 834.882C1488.51 840.226 1489.08 845.569 1490.48 850.787C1492.54 858.49 1496.74 864.904 1502.33 870.491C1504.7 872.855 1507.13 875.148 1509.56 877.441L1509.57 877.444C1511 878.793 1512.43 880.143 1513.85 881.508C1518.44 885.925 1522.74 890.59 1526.06 896.081C1531.9 905.73 1532.13 915.733 1527.95 926C1525.47 931.957 1522.11 937.505 1517.98 942.456C1516.49 944.267 1514.9 945.97 1513.31 947.668C1513.03 947.964 1512.75 948.26 1512.47 948.556C1510.77 950.385 1508.89 952.039 1506.85 953.494C1506.01 954.097 1505.24 954.792 1504.46 955.49L1504.46 955.49L1504.46 955.49C1503.74 956.135 1503.02 956.782 1502.24 957.361C1496.36 961.751 1490.2 965.743 1483.8 969.311C1479.95 971.438 1475.96 973.278 1471.97 975.084C1468.78 976.529 1465.49 977.787 1462.15 978.917C1461.33 979.192 1460.52 979.475 1459.7 979.758C1457.76 980.431 1455.81 981.106 1453.84 981.691C1453.06 981.922 1452.25 982.005 1451.43 982.088C1450.67 982.165 1449.9 982.242 1449.15 982.438C1446.07 983.3 1442.94 983.934 1439.76 984.334C1439.44 984.367 1439.13 984.429 1439 984.79ZM1450.79 778.077L1450.72 777.893C1450.31 777.916 1449.9 777.93 1449.49 777.945C1448.59 777.977 1447.69 778.009 1446.8 778.128C1446.48 778.172 1446.15 778.215 1445.83 778.258C1441.94 778.77 1438.06 779.282 1434.5 781.263C1434.05 781.516 1433.52 781.662 1432.97 781.812C1432.31 781.994 1431.63 782.182 1431.05 782.577C1430.32 783.065 1429.52 783.378 1428.71 783.694C1427.89 784.014 1427.07 784.338 1426.3 784.851C1423.96 786.421 1421.55 787.935 1419.08 789.317C1417.99 789.93 1417.04 790.715 1416.09 791.498L1416.09 791.498L1416.09 791.498C1415.62 791.883 1415.15 792.268 1414.67 792.633C1413.56 793.566 1412.5 794.559 1411.5 795.609C1409.53 797.445 1407.72 799.444 1406.09 801.584C1404.45 803.758 1402.9 806.009 1401.39 808.277C1400.79 809.16 1400.22 810.054 1399.64 810.948C1398.76 812.318 1397.87 813.688 1396.94 815.021C1395.1 817.592 1393.44 820.28 1391.95 823.067C1391.57 823.797 1391.06 824.41 1390.55 825.023L1390.55 825.023C1390.09 825.58 1389.63 826.137 1389.26 826.783C1388.64 827.994 1387.88 829.126 1387 830.157C1385.33 831.948 1383.53 833.612 1381.61 835.134C1375.16 840.177 1367.98 843.942 1360.44 847.03C1360.08 847.177 1359.73 847.328 1359.37 847.479L1359.37 847.479L1359.37 847.479L1359.37 847.479L1359.37 847.479L1359.37 847.479L1359.37 847.479L1359.37 847.479L1359.37 847.479C1357.41 848.307 1355.44 849.139 1353.26 849.31C1352.45 849.329 1351.65 849.511 1350.91 849.846C1349.56 850.558 1348.11 851.055 1346.6 851.318C1344.87 851.643 1343.16 852.093 1341.45 852.544L1341.45 852.544C1340.06 852.911 1338.67 853.279 1337.25 853.579C1332.16 854.661 1327.07 855.696 1321.92 856.474C1320.49 856.691 1319.08 857 1317.66 857.308L1317.66 857.308L1317.66 857.308L1317.66 857.308L1317.66 857.308L1317.66 857.308L1317.66 857.308L1317.66 857.308L1317.66 857.308L1317.66 857.308C1315.99 857.673 1314.32 858.037 1312.61 858.252C1311.17 858.433 1309.77 858.969 1308.38 859.503C1307.82 859.717 1307.26 859.93 1306.7 860.121C1297.43 863.278 1289.19 868.042 1282.95 875.753C1282.58 876.203 1282.12 876.462 1281.66 876.716C1281.12 877.015 1280.6 877.308 1280.25 877.9C1277.37 882.834 1274.42 887.727 1271.26 892.495C1269.09 895.775 1267.72 899.419 1266.34 903.063C1265.62 904.986 1264.89 906.909 1264.05 908.779L1264.01 908.872L1263.97 908.956L1263.97 908.957C1263.56 909.883 1263.53 909.933 1262.42 910.573C1262.33 910.623 1262.29 910.768 1262.26 910.908C1262.25 910.96 1262.23 911.011 1262.22 911.057C1261.85 912.157 1261.44 913.248 1261.04 914.338C1260.21 916.567 1259.39 918.796 1258.83 921.112C1258.75 921.465 1258.66 921.818 1258.57 922.171C1258.11 923.975 1257.65 925.786 1257.82 927.676C1258.52 935.546 1262.43 941.501 1268.9 945.828C1272.54 948.268 1276.62 949.834 1280.76 951.21C1289.25 954.059 1298.25 955.074 1307.16 954.188C1310.76 953.837 1314.34 953.385 1317.93 952.932C1323.28 952.255 1328.64 951.579 1334.04 951.24C1342.83 950.623 1351.66 951.775 1360 954.627C1370.1 958.115 1379.64 962.871 1389.14 967.712C1395.65 971.03 1402.27 974.11 1409.3 976.213C1419.17 979.171 1429.17 979.456 1439.28 977.58C1445.39 976.459 1451.41 974.919 1457.31 972.971C1473.46 967.605 1488.52 960.069 1502.25 949.921C1508.51 945.293 1514.19 940.103 1518.61 933.627C1521.59 929.258 1524.23 924.727 1525.73 919.607C1526.61 916.604 1527.06 913.567 1526.26 910.472C1525.3 906.677 1523.66 903.086 1521.43 899.873C1517.38 894.036 1512.23 889.229 1507.09 884.42C1506.46 883.835 1505.83 883.25 1505.21 882.663C1499.56 877.355 1494.03 871.987 1490.41 864.926C1488.31 860.912 1486.79 856.617 1485.91 852.172C1483.8 841.196 1483.31 830.061 1482.82 818.932L1482.82 818.931L1482.76 817.616C1482.69 816.111 1482.66 814.604 1482.63 813.096L1482.63 813.096C1482.56 809.252 1482.48 805.407 1481.79 801.599C1481.15 798.045 1480.15 794.621 1478.17 791.548C1474.62 786.171 1469.3 782.208 1463.13 780.344C1462.96 780.31 1462.79 780.243 1462.63 780.145C1461.17 778.97 1459.44 778.905 1457.71 778.839L1457.71 778.839C1457.54 778.833 1457.37 778.826 1457.2 778.819C1457.08 778.813 1456.95 778.815 1456.82 778.816C1456.41 778.821 1455.99 778.826 1455.75 778.625C1455.12 778.1 1454.43 778.176 1453.73 778.254C1453.16 778.316 1452.58 778.38 1452.02 778.125C1451.71 777.987 1451.22 778.081 1450.68 778.184C1450.24 778.267 1449.78 778.355 1449.37 778.33L1450.79 778.077ZM1332.95 952.633C1337.94 952.228 1342.97 952.425 1347.92 953.22C1342.29 952.742 1336.63 952.768 1331 953.299C1326.21 953.699 1321.45 954.316 1316.69 954.932C1314.37 955.232 1312.05 955.533 1309.73 955.808C1307.47 956.118 1305.18 956.228 1302.9 956.138C1303.43 955.632 1304 955.701 1304.56 955.768C1304.83 955.8 1305.1 955.832 1305.35 955.797C1307.01 955.569 1308.67 955.378 1310.33 955.188C1311.9 955.008 1313.46 954.828 1315.02 954.617C1320.98 953.812 1326.95 953.075 1332.95 952.633ZM1446.78 773.811C1452.37 773.783 1457.94 774.54 1463.32 776.06C1458.08 773.929 1452.4 773.156 1446.78 773.811ZM1356.58 841.343C1362.67 839.236 1368.41 836.23 1373.61 832.424C1368.1 835.713 1362.38 838.609 1356.58 841.343ZM1287.84 863.108C1283.08 866.346 1278.69 869.966 1275.74 875.04C1279.31 870.612 1283.37 866.609 1287.84 863.108ZM1417.69 979.722L1417.69 979.722C1423.06 980.236 1428.43 980.749 1433.83 980.028C1427.9 981.153 1421.78 980.991 1415.91 979.554C1416.5 979.609 1417.09 979.665 1417.67 979.721L1417.69 979.722ZM1438.84 774.594C1438.97 774.725 1439.06 774.823 1439.13 774.893C1439.22 774.993 1439.26 775.034 1439.28 775.028C1441.3 774.526 1443.37 774.24 1445.46 774.174C1445.55 774.187 1445.64 774.161 1445.71 774.104C1445.78 774.046 1445.83 773.961 1445.83 773.869C1445.85 773.555 1445.6 773.498 1445.38 773.533C1443.73 773.792 1442.09 774.061 1440.34 774.348L1440.34 774.348L1440.33 774.349C1439.84 774.429 1439.35 774.511 1438.84 774.594ZM1374.97 838.775C1377.2 837.71 1379.25 836.306 1381.05 834.614L1374.97 838.775ZM1322.47 957.519C1324.9 957.695 1326.02 957.356 1326.31 956.19C1325.79 957.275 1325.01 957.232 1324.21 957.187C1323.62 957.154 1323.01 957.12 1322.47 957.519ZM1318.09 959.054L1318.07 959.226L1312.77 959.784L1312.75 959.615L1318.09 959.054Z" fill="#9EAD8D"/>
<path fill-rule="evenodd" clip-rule="evenodd" d="M78.1313 2190.56C79.4101 2189.83 80.6896 2189.11 82.1325 2188.71C80.4212 2189.78 78.5988 2190.67 76.697 2191.35C77.1806 2191.09 77.6559 2190.83 78.1313 2190.56ZM82.1694 2188.69L82.9198 2188.52C78.8921 2190.95 74.5899 2192.89 70.1035 2194.3C63.728 2196.25 57.1001 2197.25 50.4326 2197.26C43.9037 2197.26 37.3822 2196.81 30.9165 2195.89C21.469 2194.63 12.0118 2193.49 2.46659 2193.24C-5.39223 2192.99 -13.2223 2194.29 -20.5747 2197.07C-23.4931 2198.18 -26.3893 2199.34 -29.2877 2200.7C-29.2505 2200.31 -29.0223 2200.21 -28.7649 2200.09C-28.5688 2200.01 -28.3557 2199.91 -28.197 2199.67C-28.4709 2199.81 -28.7566 2199.91 -29.0267 2200.01C-29.5874 2200.22 -30.0816 2200.41 -30.2671 2200.76C-30.5309 2201.37 -31.1096 2201.8 -31.7773 2201.86C-33.3038 2201.81 -34.4741 2202.54 -35.6392 2203.27C-36.1697 2203.6 -36.6991 2203.93 -37.2606 2204.19C-37.9478 2204.5 -38.5439 2204.97 -39.1445 2205.45C-39.7879 2205.96 -40.4364 2206.47 -41.2075 2206.8C-41.8218 2207.06 -42.4133 2207.36 -43.0052 2207.67C-44.2386 2208.3 -45.4735 2208.94 -46.919 2209.17C-47.8745 2209.32 -48.805 2210.11 -49.6474 2210.84C-50.4267 2211.52 -51.55 2212.17 -52.5242 2212.17C-53.5357 2212.17 -54.3566 2212.58 -55.1752 2212.99L-55.1754 2212.99C-55.6832 2213.25 -56.1902 2213.5 -56.7413 2213.65C-60.2516 2214.68 -63.8205 2215.5 -67.4291 2216.11C-72.5838 2216.87 -77.8045 2217.08 -83.0053 2216.75C-91.6515 2216.28 -98.8857 2212.59 -105.259 2206.99C-111.643 2201.38 -115.203 2194.39 -115.374 2185.78L-115.377 2185.61C-115.467 2181.13 -115.557 2176.65 -115.249 2172.19C-115.073 2169.29 -114.519 2166.42 -113.601 2163.67C-112.826 2161.4 -112.766 2159.06 -112.706 2156.72L-112.706 2156.71C-112.701 2156.53 -112.696 2156.34 -112.691 2156.16C-112.508 2149.5 -111.649 2142.96 -109.365 2136.66C-107.057 2130.31 -103.415 2124.76 -98.9533 2119.74C-93.0203 2113.06 -85.828 2107.98 -78.2616 2103.33L-77.8152 2103.06L-77.8152 2103.06C-67.0773 2096.46 -56.3286 2089.86 -46.9264 2081.36C-40.2081 2075.29 -34.0615 2068.71 -29.3871 2060.88C-27.3187 2057.41 -26.106 2053.63 -25.0697 2049.75C-24.4136 2047.3 -23.8111 2044.83 -23.2086 2042.36C-22.1333 2037.96 -21.058 2033.55 -19.6789 2029.23C-18.1329 2024.39 -16.441 2019.59 -13.8899 2015.16C-9.41963 2007.4 -4.05812 2000.33 2.99805 1994.76C10.5596 1988.78 18.8809 1984.31 28.6651 1983.2C37.9771 1982.14 46.6908 1983.62 54.2017 1989.64C58.3083 1992.94 61.2028 1997.24 63.5138 2001.92C65.6002 2006.14 67.4745 2010.46 69.349 2014.78L69.3491 2014.78L69.3492 2014.78L69.3493 2014.78L69.3494 2014.78L69.3495 2014.78L69.3496 2014.78L69.3497 2014.78L69.3498 2014.78L69.3499 2014.78C71.2881 2019.25 73.2264 2023.71 75.3995 2028.07C75.8991 2029.08 76.392 2030.08 76.8848 2031.09C79.2497 2035.91 81.6139 2040.74 84.7136 2045.16C89.2882 2051.7 95.4268 2056.29 102.595 2059.62C105.625 2061.04 108.695 2062.36 111.765 2063.68L111.769 2063.68C113.576 2064.46 115.383 2065.24 117.182 2066.04C123.007 2068.62 128.645 2071.53 133.643 2075.56C142.427 2082.63 146.07 2091.95 145.648 2103.03C145.358 2109.47 144.097 2115.83 141.907 2121.9C141.131 2124.11 140.214 2126.25 139.3 2128.39C139.14 2128.77 138.981 2129.14 138.823 2129.51C137.846 2131.81 136.643 2134.01 135.231 2136.07C134.644 2136.93 134.154 2137.85 133.661 2138.77L133.661 2138.77L133.661 2138.77C133.206 2139.62 132.749 2140.48 132.213 2141.29C128.194 2147.42 123.77 2153.28 118.972 2158.83C116.082 2162.14 112.968 2165.23 109.834 2168.3C107.327 2170.74 104.673 2173.05 101.917 2175.25C101.245 2175.79 100.575 2176.34 99.9051 2176.88C98.3093 2178.18 96.71 2179.48 95.0603 2180.7C94.4076 2181.19 93.6691 2181.54 92.9249 2181.9C92.2368 2182.23 91.5439 2182.57 90.9095 2183.01C88.3103 2184.87 85.5773 2186.54 82.7326 2188C82.4452 2188.14 82.1689 2188.31 82.1694 2188.69ZM22.5543 1990.41L22.426 1990.26C22.0492 1990.42 21.6686 1990.58 21.288 1990.73C20.4529 1991.07 19.6178 1991.41 18.8236 1991.82C18.5333 1991.98 18.2427 1992.13 17.9522 1992.28C14.4723 1994.09 11.004 1995.9 8.33431 1998.98C7.99294 1999.37 7.54558 1999.69 7.08775 2000.02C6.52879 2000.41 5.95419 2000.82 5.53781 2001.39C5.02352 2002.1 4.37876 2002.67 3.72792 2003.24C3.06702 2003.82 2.39985 2004.41 1.85666 2005.15C0.193946 2007.43 -1.55269 2009.68 -3.39859 2011.82C-4.21891 2012.77 -4.84427 2013.83 -5.46843 2014.89L-5.46854 2014.89L-5.46868 2014.89C-5.77597 2015.42 -6.08295 2015.94 -6.41278 2016.44C-7.1377 2017.7 -7.79273 2019 -8.3749 2020.33C-9.59679 2022.72 -10.6142 2025.22 -11.4164 2027.79C-12.2075 2030.39 -12.8953 2033.04 -13.5451 2035.69C-13.7984 2036.72 -14.0346 2037.76 -14.2708 2038.8C-14.6328 2040.38 -14.9948 2041.97 -15.4185 2043.55C-16.2621 2046.59 -16.9079 2049.69 -17.3518 2052.81C-17.4616 2053.63 -17.7301 2054.38 -17.9988 2055.13L-17.9989 2055.13C-18.2429 2055.81 -18.4872 2056.49 -18.6129 2057.23C-18.7787 2058.58 -19.1041 2059.9 -19.5824 2061.17C-20.5387 2063.42 -21.6621 2065.6 -22.9431 2067.69C-27.2781 2074.63 -32.7334 2080.63 -38.7636 2086.11C-39.0502 2086.37 -39.3344 2086.63 -39.619 2086.9L-39.6191 2086.9L-39.6192 2086.9L-39.6192 2086.9L-39.6193 2086.9L-39.6194 2086.9L-39.6195 2086.9L-39.6196 2086.9L-39.6197 2086.9C-41.1798 2088.35 -42.7473 2089.8 -44.7383 2090.71C-45.4917 2091 -46.1779 2091.45 -46.7557 2092.01C-47.7815 2093.14 -48.9776 2094.11 -50.301 2094.87C-51.8243 2095.77 -53.2735 2096.78 -54.7237 2097.78L-54.7237 2097.78C-55.9065 2098.61 -57.09 2099.43 -58.3149 2100.19C-62.7289 2102.95 -67.1646 2105.67 -71.73 2108.16C-73.0026 2108.85 -74.2248 2109.62 -75.4476 2110.4L-75.4476 2110.4L-75.4477 2110.4L-75.4478 2110.4L-75.4478 2110.4L-75.4479 2110.4L-75.4479 2110.4L-75.448 2110.4L-75.4481 2110.4L-75.4481 2110.4C-76.8942 2111.31 -78.341 2112.23 -79.8728 2113.01C-81.1649 2113.68 -82.296 2114.66 -83.4251 2115.64C-83.8759 2116.03 -84.3265 2116.42 -84.7869 2116.79C-92.4149 2122.93 -98.5288 2130.22 -101.763 2139.6C-101.952 2140.15 -102.299 2140.55 -102.642 2140.95C-103.044 2141.41 -103.439 2141.87 -103.562 2142.54C-104.584 2148.17 -105.683 2153.77 -107.018 2159.33C-107.937 2163.16 -107.981 2167.05 -108.025 2170.95C-108.049 2173 -108.072 2175.06 -108.224 2177.1L-108.231 2177.2L-108.238 2177.29L-108.238 2177.3C-108.311 2178.31 -108.314 2178.36 -109.144 2179.35C-109.209 2179.42 -109.193 2179.57 -109.179 2179.71C-109.173 2179.77 -109.168 2179.82 -109.167 2179.87C-109.14 2181.03 -109.146 2182.19 -109.152 2183.35C-109.164 2185.73 -109.177 2188.11 -108.909 2190.48C-108.868 2190.84 -108.832 2191.2 -108.796 2191.56C-108.61 2193.41 -108.424 2195.27 -107.619 2196.99C-104.263 2204.14 -98.5547 2208.4 -90.9969 2210.26C-86.7359 2211.3 -82.3724 2211.38 -78.0097 2211.26C-69.0547 2211.03 -60.2516 2208.91 -52.1802 2205.03C-48.9212 2203.47 -45.7084 2201.82 -42.4953 2200.16C-37.6939 2197.7 -32.8917 2195.23 -27.9335 2193.06C-19.8836 2189.48 -11.196 2187.54 -2.38273 2187.37C8.30829 2187.19 18.8946 2188.4 29.4775 2189.7C36.7332 2190.59 44.0079 2191.22 51.3254 2190.79C61.6175 2190.19 71.1065 2187.04 79.9696 2181.82C85.3258 2178.68 90.4596 2175.17 95.3346 2171.32C108.678 2160.76 120.254 2148.52 129.679 2134.29C133.977 2127.8 137.545 2120.98 139.481 2113.39C140.785 2108.26 141.723 2103.1 141.381 2097.78C141.18 2094.65 140.558 2091.65 138.756 2089.01C136.554 2085.77 133.787 2082.96 130.588 2080.7C124.783 2076.6 118.304 2073.85 111.823 2071.09C111.035 2070.75 110.246 2070.42 109.459 2070.08C102.34 2067.02 95.3029 2063.87 89.485 2058.47C86.1378 2055.42 83.245 2051.9 80.895 2048.03C75.1598 2038.43 70.8888 2028.14 66.6198 2017.85L66.6194 2017.85L66.1151 2016.63C65.5375 2015.24 64.9937 2013.84 64.45 2012.43L64.4499 2012.43C63.0632 2008.84 61.6765 2005.26 59.7266 2001.91C57.9062 1998.79 55.7952 1995.92 52.891 1993.71C47.7113 1989.87 41.3563 1987.96 34.9261 1988.32C34.7473 1988.35 34.5646 1988.34 34.3877 1988.31C32.6113 1987.7 30.9666 1988.23 29.3186 1988.76L29.3178 1988.76C29.1544 1988.81 28.9909 1988.87 28.8272 1988.92C28.713 1988.95 28.593 1989 28.4713 1989.04C28.0912 1989.19 27.6939 1989.34 27.3987 1989.23C26.6264 1988.95 26.0043 1989.26 25.3706 1989.57C24.8568 1989.83 24.3353 1990.09 23.7197 1990.04C23.3853 1990.01 22.9524 1990.27 22.4823 1990.55C22.1029 1990.78 21.6991 1991.02 21.3032 1991.14L22.5543 1990.41ZM-28.4836 2194.75C-23.9265 2192.66 -19.1347 2191.12 -14.211 2190.18C-19.6672 2191.65 -24.9802 2193.62 -30.0868 2196.04C-34.4472 2198.05 -38.7098 2200.26 -42.9724 2202.47C-45.0485 2203.54 -47.1247 2204.62 -49.2121 2205.67C-51.234 2206.73 -53.3455 2207.62 -55.5223 2208.32C-55.1971 2207.66 -54.6354 2207.53 -54.0897 2207.4C-53.8233 2207.34 -53.5606 2207.28 -53.3312 2207.16C-51.854 2206.38 -50.3588 2205.63 -48.8638 2204.88C-47.453 2204.18 -46.0424 2203.47 -44.6472 2202.74C-39.3225 2199.95 -33.9685 2197.21 -28.4836 2194.75ZM17.3282 1987.77C22.5711 1985.84 28.0606 1984.64 33.6363 1984.23C27.9875 1984.02 22.3784 1985.24 17.3282 1987.77ZM-44.3427 2082.09C-39.3407 2078.02 -34.9734 2073.23 -31.3853 2067.88C-35.4417 2072.85 -39.8242 2077.53 -44.3427 2082.09ZM-101.489 2126.05C-104.852 2130.72 -107.739 2135.62 -108.774 2141.4C-106.941 2136.02 -104.496 2130.87 -101.489 2126.05ZM60.4127 2191.22L60.4129 2191.22C65.6358 2189.86 70.8587 2188.51 75.6901 2185.98C70.4932 2189.07 64.6947 2191.01 58.6844 2191.67C59.255 2191.52 59.8262 2191.37 60.3973 2191.22L60.4127 2191.22ZM10.129 1991.23C10.2979 1991.3 10.417 1991.37 10.5014 1991.41C10.6219 1991.47 10.6719 1991.5 10.6955 1991.48C12.4233 1990.32 14.2699 1989.34 16.2041 1988.57C16.294 1988.55 16.3718 1988.49 16.4194 1988.42C16.4669 1988.34 16.4799 1988.24 16.4554 1988.15C16.3613 1987.85 16.1053 1987.89 15.9098 1987.99C14.4532 1988.8 13.0011 1989.62 11.4556 1990.48L11.4535 1990.48L11.4508 1990.49C11.0182 1990.73 10.5783 1990.97 10.129 1991.23ZM-27.9337 2073.38C-26.2055 2071.62 -24.76 2069.6 -23.6484 2067.39L-27.9337 2073.38ZM-36.6598 2202.92C-34.3107 2202.25 -33.3778 2201.55 -33.5043 2200.36C-33.6253 2201.56 -34.3647 2201.78 -35.139 2202.01C-35.7023 2202.18 -36.2842 2202.36 -36.6598 2202.92ZM-40.2519 2205.86L-40.2052 2206.03L-45.0016 2208.37L-45.0761 2208.22L-40.2519 2205.86Z" fill="#9EAD8D"/>
<path fill-rule="evenodd" clip-rule="evenodd" d="M1354.61 888.061L1354.61 888.061L1354.61 888.061L1354.61 888.061C1354.61 888.183 1354.61 888.31 1354.61 888.445C1353.56 888.649 1353.37 888.818 1353.42 889.698L1353.42 889.754C1353.44 890.178 1353.47 890.628 1353.82 890.994C1353.99 891.171 1354.13 891.38 1354.27 891.589C1354.41 891.788 1354.54 891.988 1354.7 892.161C1355.37 892.873 1356.11 893.486 1357.14 893.61C1357.47 893.65 1357.8 893.707 1358.14 893.765L1358.14 893.765C1358.29 893.792 1358.45 893.819 1358.62 893.846L1358.94 893.611C1358.98 893.582 1359.02 893.554 1359.06 893.525L1359.06 893.525L1359.06 893.525L1359.06 893.525L1359.06 893.525L1359.06 893.525L1359.06 893.525L1359.06 893.525L1359.06 893.525L1359.06 893.525L1359.06 893.525L1359.06 893.525L1359.06 893.525L1359.06 893.525L1359.06 893.525L1359.06 893.525L1359.06 893.525L1359.06 893.525L1359.06 893.525L1359.06 893.525L1359.06 893.525L1359.06 893.525L1359.06 893.525L1359.06 893.524L1359.06 893.524L1359.06 893.524L1359.06 893.524L1359.06 893.524L1359.06 893.524L1359.06 893.524L1359.06 893.524L1359.06 893.524L1359.06 893.524L1359.06 893.524L1359.06 893.524L1359.06 893.524L1359.06 893.524L1359.06 893.524L1359.06 893.524L1359.06 893.524L1359.06 893.524L1359.06 893.524L1359.06 893.524L1359.06 893.524L1359.06 893.524C1359.13 893.466 1359.21 893.409 1359.29 893.354C1359.92 892.928 1359.92 892.93 1360.69 893.482L1360.71 893.495C1360.78 893.546 1360.87 893.584 1360.96 893.62C1361.1 893.676 1361.23 893.729 1361.28 893.829C1361.62 894.422 1362.14 894.47 1362.71 894.449L1362.44 893.663L1362.14 892.789L1362.34 892.698L1363.29 894.012C1364.24 893.607 1363.93 893.011 1363.64 892.455C1363.62 892.421 1363.61 892.386 1363.59 892.352C1364.24 892.218 1364.64 891.979 1364.53 891.324C1364.44 890.798 1364.72 890.847 1365.01 890.897L1365.01 890.897L1365.01 890.897C1365.05 890.904 1365.09 890.911 1365.13 890.916C1365.08 889.843 1364.66 888.817 1363.95 888.01C1363.42 887.363 1362.93 886.679 1362.45 885.996L1362.45 885.995L1362.45 885.995L1362.45 885.995L1362.45 885.995L1362.45 885.995L1362.45 885.995L1362.45 885.995L1362.45 885.995L1362.45 885.995L1362.45 885.995L1362.45 885.995L1362.45 885.995L1362.45 885.995L1362.45 885.995L1362.45 885.995L1362.45 885.995L1362.45 885.994L1362.45 885.994L1362.45 885.994L1362.45 885.994L1362.45 885.994L1362.45 885.994C1362.2 885.643 1361.95 885.291 1361.69 884.944C1361.54 884.749 1361.37 884.562 1361.19 884.383L1361.07 884.477L1361.79 885.7C1361.45 885.505 1361.15 885.229 1360.94 884.897C1360.71 884.596 1360.46 884.314 1360.19 884.051C1359.91 883.835 1359.63 883.637 1359.32 883.461L1359.53 884.146C1358.6 883.705 1358.6 883.706 1357.98 884.427L1357.98 884.433C1357.9 884.532 1357.76 884.687 1357.68 884.67C1357.24 884.574 1357.12 884.754 1356.99 885.154C1356.96 885.247 1356.8 885.284 1356.62 885.324C1356.46 885.361 1356.28 885.401 1356.18 885.492C1355.92 885.744 1355.72 886.051 1355.6 886.389C1355.51 886.606 1355.33 886.63 1355.15 886.653C1354.98 886.675 1354.82 886.695 1354.75 886.867C1354.68 886.989 1354.64 887.123 1354.62 887.26C1354.61 887.517 1354.61 887.775 1354.61 888.061ZM1384.77 882.741C1384.66 882.884 1384.42 882.923 1383.94 883.002C1383.95 883.151 1383.91 883.298 1383.88 883.446C1383.81 883.761 1383.74 884.083 1384.02 884.454C1384.38 884.946 1384.91 885.286 1385.5 885.407C1385.57 885.422 1385.64 885.441 1385.71 885.461C1385.94 885.523 1386.17 885.587 1386.36 885.531C1386.93 885.366 1387.46 885.482 1387.99 885.598C1388.24 885.655 1388.5 885.711 1388.76 885.735C1389.69 885.821 1390.4 886.4 1390.95 887.053C1392.29 888.638 1394.12 889.309 1395.95 889.98L1396.1 890.035C1396.69 890.251 1397.23 889.977 1397.77 889.698C1397.86 889.65 1397.96 889.603 1398.05 889.557L1398.1 889.535C1399.12 889.043 1399.36 888.927 1399.22 888.021L1399.21 887.921C1399.12 887.352 1399.07 886.982 1399.87 887.058C1399.93 887.065 1400.02 886.853 1400.09 886.688L1400.1 886.664C1400.11 886.644 1400.12 886.625 1400.13 886.607C1400.15 886.541 1400.18 886.447 1400.2 886.361L1400.2 886.361C1400.23 886.245 1400.25 886.144 1400.28 886.143C1401.02 886.14 1400.72 885.656 1400.58 885.414L1400.57 885.402C1400.52 885.32 1400.47 885.236 1400.42 885.153L1400.42 885.153L1400.42 885.153L1400.42 885.153L1400.42 885.153C1400.09 884.601 1399.75 884.03 1399.27 883.648C1399.1 883.513 1398.94 883.359 1398.79 883.203L1398.79 883.203L1398.78 883.203L1398.78 883.203L1398.78 883.203L1398.78 883.203L1398.78 883.203L1398.78 883.203L1398.78 883.203L1398.78 883.203L1398.78 883.203L1398.78 883.203L1398.78 883.203L1398.78 883.203L1398.78 883.203L1398.78 883.203L1398.78 883.202L1398.78 883.202L1398.78 883.202L1398.78 883.202L1398.78 883.202L1398.78 883.202L1398.78 883.202L1398.78 883.202L1398.78 883.202C1398.39 882.812 1397.98 882.417 1397.4 882.321C1397.02 882.291 1396.67 882.075 1396.48 881.742C1396.36 881.606 1396.2 881.507 1396.03 881.457C1395.91 881.411 1395.8 881.365 1395.69 881.318C1395.21 881.116 1394.73 880.914 1394.24 880.755C1393.91 880.648 1393.57 880.564 1393.23 880.48C1392.89 880.394 1392.54 880.308 1392.2 880.198C1391.73 880.042 1391.23 879.929 1390.75 879.816L1390.75 879.816L1390.75 879.816C1390.65 879.794 1390.56 879.772 1390.46 879.749C1390.35 879.724 1390.24 879.696 1390.13 879.668L1390.13 879.668C1389.39 879.478 1388.61 879.283 1387.83 879.701C1387.26 879.972 1386.67 880.213 1386.07 880.421C1386 880.891 1385.67 881.109 1385.33 881.325C1385.11 881.465 1384.9 881.603 1384.75 881.808C1384.84 882.335 1384.88 882.593 1384.77 882.741ZM1528.14 896.771C1527.56 895.621 1527.27 894.428 1527.61 893.21C1527.46 893.045 1527.31 892.896 1527.18 892.757L1527.18 892.757L1527.18 892.755L1527.18 892.755C1526.91 892.477 1526.68 892.237 1526.47 891.979C1526.06 891.469 1525.53 891.036 1524.93 891.272C1524.21 891.553 1523.68 891.58 1523.19 890.954C1523.12 890.889 1523.03 890.858 1522.94 890.87C1522.16 891.04 1521.43 890.876 1520.69 890.712L1520.69 890.712C1520.3 890.626 1519.92 890.541 1519.53 890.503L1519.37 890.487C1518.5 890.399 1518.45 890.395 1517.56 891.149C1517.38 891.301 1517.21 891.466 1517.01 891.657L1516.9 891.769C1516.84 891.829 1516.77 891.893 1516.7 891.958C1515.94 891.779 1515.18 891.552 1514.45 891.277C1514.25 891.191 1514.03 891.142 1513.81 891.093C1513.35 890.989 1512.89 890.885 1512.58 890.44C1512.2 890.651 1511.81 890.546 1511.46 890.451C1511.23 890.389 1511.02 890.331 1510.83 890.367L1509.81 891.476L1510.29 892.133C1510.06 892.114 1509.93 892.102 1509.87 892.097L1509.64 892.712C1511.74 893.888 1513.95 894.862 1516.23 895.62C1516.59 895.719 1516.85 896.022 1516.9 896.389C1516.55 896.261 1516.2 896.141 1515.86 896.024C1515.11 895.766 1514.39 895.519 1513.7 895.213C1512.81 894.822 1511.95 894.38 1511.08 893.938L1511.08 893.938L1511.08 893.938L1511.08 893.938L1511.08 893.937L1511.08 893.937C1510.7 893.746 1510.33 893.556 1509.95 893.369C1509.65 894.281 1509.65 894.283 1510.3 894.669L1510.33 894.687C1512.24 895.814 1514.29 896.65 1516.33 897.485L1516.33 897.485C1516.64 897.612 1516.95 897.739 1517.26 897.867C1519.55 898.815 1521.9 899.678 1524.42 899.921C1524.91 899.969 1525.37 899.91 1525.84 899.852L1525.84 899.852C1526.05 899.825 1526.26 899.798 1526.47 899.782C1526.74 899.725 1526.95 899.539 1527.05 899.287C1527.1 898.906 1527.31 898.679 1527.52 898.435L1527.57 898.387C1527.61 898.34 1527.65 898.292 1527.69 898.242C1527.72 898.21 1527.75 898.178 1527.77 898.145C1528.08 897.783 1528.44 897.353 1528.14 896.771ZM1493.03 872.406C1492.71 872.354 1492.4 872.296 1492.09 872.239C1491.44 872.119 1490.82 872.004 1490.2 871.962C1488.06 871.819 1486.23 870.893 1484.39 869.968C1483.96 869.751 1483.53 869.533 1483.09 869.325C1482.22 868.913 1481.71 868.138 1481.2 867.372L1481.2 867.371C1481.1 867.229 1481.01 867.086 1480.91 866.947C1480.84 866.842 1480.86 866.671 1480.89 866.494C1480.9 866.41 1480.91 866.325 1480.91 866.246L1480.94 866.261C1481.34 866.466 1481.71 866.661 1482.26 866.941L1481.08 865.321C1481.15 865.189 1481.22 865.065 1481.29 864.946C1481.45 864.684 1481.59 864.442 1481.65 864.182C1481.74 863.802 1482.04 863.504 1482.42 863.404C1482.67 863.303 1482.96 863.305 1483.26 863.306C1483.4 863.306 1483.54 863.307 1483.68 863.299C1484.12 864.28 1484.97 864.75 1485.92 865.193C1486.02 865.061 1486.17 864.969 1486.32 864.876C1486.59 864.71 1486.87 864.538 1486.93 864.121C1487.01 863.942 1487.17 863.813 1487.36 863.777C1487.67 863.751 1487.98 863.703 1488.29 863.654C1489.29 863.497 1490.29 863.339 1491.26 863.944L1491.33 863.985L1491.33 863.985C1491.54 864.121 1491.79 864.28 1492 864.253C1492.15 864.234 1492.25 864.326 1492.35 864.418C1492.48 864.545 1492.62 864.671 1492.87 864.5C1493.11 864.339 1493.21 864.517 1493.31 864.699C1493.36 864.79 1493.41 864.882 1493.48 864.933C1493.74 865.103 1494 865.293 1494.24 865.499C1494.43 865.718 1494.61 865.953 1494.76 866.201C1494.47 867.621 1494.52 869.094 1494.92 870.492L1493.03 872.406ZM1430.05 848.337L1430.04 848.339C1429.85 848.886 1429.66 849.424 1429.44 849.951C1429.43 849.993 1429.29 849.986 1429.12 849.978L1429.12 849.978L1429.12 849.978C1429.03 849.973 1428.93 849.968 1428.83 849.969C1428.88 850.23 1428.9 850.493 1428.91 850.758C1428.89 851.048 1428.85 851.337 1428.79 851.624L1428.78 851.702C1428.7 852.262 1428.63 852.818 1427.79 852.659C1427.75 852.651 1427.71 852.695 1427.65 852.741C1427.62 852.769 1427.59 852.798 1427.56 852.817C1427.41 852.903 1427.27 853.001 1427.13 853.098C1426.72 853.385 1426.32 853.666 1425.66 853.634C1425.38 853.62 1425.09 853.638 1424.8 853.655C1424.36 853.682 1423.91 853.71 1423.46 853.627C1422.76 853.543 1422.07 853.359 1421.42 853.08C1420.41 852.579 1419.42 852.083 1418.88 851.027C1418.77 850.695 1418.69 850.35 1418.66 850.001L1419.83 850.073C1419.76 849.859 1419.66 849.65 1419.56 849.438L1419.56 849.438C1419.3 848.879 1419.03 848.304 1419.16 847.583L1420.29 847.601L1419.67 846.737C1419.88 846.519 1420.07 846.294 1420.27 846.071C1420.69 845.579 1421.11 845.1 1421.66 844.744C1422.08 844.452 1422.59 844.322 1423.1 844.376C1423.31 844.405 1423.52 844.416 1423.73 844.427C1424.14 844.447 1424.55 844.468 1424.96 844.622C1425.24 844.729 1425.54 844.8 1425.84 844.872C1426.13 844.942 1426.43 845.013 1426.72 845.119C1427.31 845.338 1427.83 845.689 1428.34 846.04C1428.65 846.25 1428.95 846.46 1429.28 846.641C1429.56 846.8 1429.76 847.126 1429.95 847.449C1430.03 847.595 1430.12 847.74 1430.21 847.869C1430.16 848.023 1430.1 848.177 1430.05 848.33L1430.05 848.337ZM1398.6 909.389L1396.75 906.843L1396.49 906.949C1396.57 907.17 1396.64 907.409 1396.7 907.647L1396.7 907.647L1396.7 907.648C1396.84 908.19 1396.98 908.732 1397.33 909.064C1397.47 909.202 1397.61 909.35 1397.75 909.499L1397.75 909.499C1398.2 909.971 1398.66 910.458 1399.32 910.704C1399.71 910.849 1400.09 911.049 1400.46 911.249C1401.33 911.712 1402.19 912.175 1403.27 911.952C1403.83 912.428 1404.44 912.294 1405.03 912.164C1405.19 912.13 1405.34 912.095 1405.49 912.073C1406.48 911.931 1407.51 911.742 1407.95 910.588C1408.25 909.821 1408.58 909.067 1408.91 908.321L1408.91 908.321C1409.05 907.995 1409.19 907.671 1409.33 907.347C1409.03 906.991 1408.76 906.614 1408.52 906.217C1408.11 905.389 1407.32 905.004 1406.56 904.784C1406.12 904.656 1405.73 904.381 1405.46 904.004C1405.01 903.782 1404.57 903.767 1404.14 903.752C1403.77 903.739 1403.4 903.727 1403.04 903.572C1402.65 903.463 1402.22 903.541 1401.89 903.785C1401.7 903.936 1401.49 904.059 1401.28 904.183L1401.28 904.183L1401.28 904.183L1401.28 904.183L1401.28 904.183L1401.28 904.183L1401.28 904.183L1401.28 904.183L1401.28 904.183L1401.28 904.183L1401.28 904.183L1401.28 904.183L1401.28 904.183L1401.28 904.183L1401.28 904.183L1401.28 904.183L1401.28 904.183L1401.28 904.183L1401.28 904.183L1401.28 904.183L1401.28 904.183C1400.79 904.463 1400.31 904.746 1400.11 905.369C1400.08 905.465 1399.91 905.509 1399.73 905.556L1399.73 905.556C1399.61 905.589 1399.48 905.623 1399.38 905.677C1399.31 905.719 1399.26 905.81 1399.2 905.93C1399.17 905.995 1399.13 906.067 1399.09 906.145C1398.95 905.887 1398.77 905.654 1398.56 905.452C1398.35 905.314 1397.92 905.194 1397.81 905.299C1397.51 905.629 1397.25 906.003 1397.06 906.41C1396.91 906.705 1397.09 906.912 1397.26 907.114C1397.31 907.173 1397.36 907.233 1397.4 907.293C1397.48 907.415 1397.57 907.534 1397.65 907.654L1397.65 907.654C1398.03 908.189 1398.41 908.724 1398.6 909.389ZM1428.9 903.104L1426.1 902.652C1425.76 902.229 1425.44 901.782 1425.16 901.315C1425.06 901.128 1425.18 900.781 1425.29 900.549C1425.32 900.488 1425.47 900.484 1425.62 900.481C1425.68 900.479 1425.75 900.478 1425.81 900.472C1425.79 900.404 1425.78 900.335 1425.77 900.265C1425.68 899.855 1425.59 899.426 1426.15 899.163C1426.29 899.114 1426.4 899.016 1426.46 898.889C1426.58 898.445 1426.72 897.977 1427.17 897.812C1427.32 897.756 1427.47 897.695 1427.62 897.633C1428.27 897.372 1428.94 897.106 1429.63 897.174C1431.31 897.342 1432.99 897.625 1434.45 898.568C1435.33 899.116 1436.16 899.748 1436.92 900.455C1437.32 900.828 1437.47 901.395 1437.31 901.914C1437.19 902.284 1437.07 902.656 1436.95 903.029L1436.95 903.029L1436.95 903.029L1436.95 903.029L1436.95 903.03L1436.95 903.03L1436.95 903.03L1436.95 903.03L1436.95 903.03L1436.95 903.031L1436.95 903.031L1436.95 903.031L1436.95 903.031L1436.95 903.031L1436.95 903.032L1436.95 903.032L1436.95 903.032L1436.95 903.032L1436.95 903.032L1436.95 903.033C1436.76 903.625 1436.57 904.217 1436.35 904.798C1436.22 905.14 1435.99 905.434 1435.69 905.638C1433.87 906.734 1432.06 906.81 1430.14 905.23C1430.04 905.155 1429.94 905.086 1429.84 905.018C1429.62 904.877 1429.41 904.737 1429.31 904.54C1429.12 904.077 1428.98 903.596 1428.9 903.104ZM1462.33 943.229L1462.99 943.841C1462.88 943.341 1462.71 942.974 1462.16 942.811C1461.81 942.707 1461.49 942.526 1461.17 942.343L1461.17 942.343C1460.73 942.097 1460.3 941.848 1459.77 941.783C1459.44 941.768 1459.12 941.714 1458.8 941.623C1456.95 940.842 1455.09 940.989 1453.22 941.392L1453.17 941.402L1453.14 941.408C1452.93 941.452 1452.64 941.512 1452.61 941.623C1452.51 941.979 1452.27 942.043 1452.02 942.112C1451.96 942.129 1451.9 942.145 1451.84 942.166C1451.66 942.227 1451.41 942.364 1451.38 942.502C1451.3 942.968 1451.07 943.342 1450.83 943.719L1450.83 943.72C1450.77 943.801 1450.72 943.882 1450.67 943.965C1450.61 944.068 1450.5 944.275 1450.82 944.374C1450.97 944.423 1451.1 944.558 1451.24 944.713C1451.31 944.787 1451.38 944.867 1451.47 944.943C1450.68 945.073 1450.11 945.292 1450.13 946.012C1450.3 946.125 1450.47 946.246 1450.63 946.365L1450.63 946.365L1450.63 946.365L1450.63 946.365L1450.63 946.365L1450.63 946.365L1450.63 946.365L1450.63 946.366L1450.63 946.366L1450.63 946.366L1450.63 946.366L1450.63 946.366L1450.63 946.366L1450.63 946.366L1450.63 946.366L1450.63 946.366L1450.63 946.366L1450.63 946.366L1450.63 946.366C1450.97 946.62 1451.3 946.862 1451.66 946.977C1452.01 947.087 1452.35 947.244 1452.69 947.401C1453.42 947.736 1454.14 948.072 1454.99 947.96C1456.59 948.715 1458.24 948.55 1459.89 948.383L1459.89 948.383L1459.89 948.383C1460.03 948.369 1460.17 948.355 1460.31 948.342C1460.87 948.347 1461.37 947.987 1461.54 947.453C1461.55 947.43 1461.56 947.405 1461.57 947.38C1461.64 947.166 1461.73 946.907 1462.16 946.954C1462.33 946.935 1462.48 946.841 1462.58 946.697C1462.67 946.553 1462.7 946.373 1462.64 946.208C1462.48 945.789 1462.53 945.348 1462.58 944.905C1462.65 944.335 1462.71 943.762 1462.33 943.229ZM1494.38 836.502L1493.98 835.752C1494.03 835.752 1494.07 835.748 1494.1 835.745C1494.17 835.739 1494.22 835.734 1494.26 835.756C1494.49 835.898 1494.72 836.035 1494.95 836.171L1494.96 836.171C1495.58 836.536 1496.2 836.901 1496.75 837.386L1496.83 837.456C1497.28 837.849 1497.71 838.223 1497.52 838.921C1497.47 839.113 1497.57 839.308 1497.66 839.503C1497.82 839.818 1497.98 840.134 1497.5 840.438C1497.56 841.232 1497 841.584 1496.45 841.924L1496.41 841.95C1496.58 842.382 1496.72 842.824 1496.83 843.275C1496.92 843.772 1496.43 844.286 1495.7 844.553C1495.63 844.577 1495.55 844.586 1495.48 844.594C1495.36 844.606 1495.25 844.618 1495.18 844.679L1495.16 844.7C1494.26 845.478 1494.26 845.479 1493.29 845.005C1492.79 844.793 1492.3 844.553 1491.83 844.286C1491.32 843.939 1490.68 843.831 1490.09 843.988C1489.16 844.206 1488.17 843.922 1487.49 843.237C1486.87 842.626 1486.73 841.755 1486.98 840.806L1487.49 840.96L1487.51 840.965L1487.61 840.995L1487.64 841.006L1487.65 841.008L1487.66 841.01L1487.68 841.018C1488.07 841.134 1488.49 841.261 1489.01 841.415C1488.87 841.233 1488.76 841.071 1488.65 840.921L1488.64 840.917L1488.64 840.913L1488.64 840.909L1488.63 840.905L1488.63 840.902C1488.4 840.588 1488.21 840.331 1488.03 840.069C1487.81 839.757 1487.83 839.726 1488.06 839.365C1488.11 839.273 1488.18 839.16 1488.26 839.016C1488.36 838.843 1488.52 838.704 1488.68 838.566C1488.98 838.296 1489.29 838.026 1489.16 837.51L1490.4 836.534C1491.16 835.932 1491.92 835.511 1492.93 836.124C1493.2 836.292 1493.54 836.349 1493.89 836.408C1494.05 836.435 1494.22 836.463 1494.38 836.502ZM1379.9 926.269C1380.5 926.95 1381.48 927.144 1382.29 926.744L1381.98 925.445C1382.64 925.938 1383.27 926.218 1384.07 925.76C1384.01 925.454 1383.97 925.146 1383.95 924.836C1383.94 924.754 1383.96 924.667 1383.98 924.58C1384.03 924.334 1384.08 924.096 1383.65 924.024L1384.39 923.566C1384.29 923.077 1384.16 922.424 1384.04 921.813C1384.13 921.778 1384.21 921.744 1384.3 921.711L1384.3 921.71C1384.57 921.604 1384.82 921.504 1385.07 921.389C1385.11 921.37 1385.14 921.188 1385.1 921.142C1385.02 921.042 1384.86 920.897 1384.78 920.922C1384.7 920.947 1384.63 921.009 1384.56 921.069C1384.47 921.142 1384.39 921.212 1384.3 921.21C1384.21 921.208 1384.11 921.112 1383.98 920.981C1383.92 920.913 1383.84 920.836 1383.75 920.757L1384.53 920.836C1384.33 920.563 1384.14 920.295 1383.95 920.031L1383.95 920.03L1383.95 920.03C1383.24 919.059 1382.57 918.137 1381.9 917.222C1381.86 917.167 1381.78 917.138 1381.71 917.109C1381.65 917.087 1381.59 917.064 1381.54 917.027C1381.29 916.828 1381 916.674 1380.72 916.523C1380.16 916.225 1379.62 915.939 1379.43 915.337C1378.75 914.879 1378.27 915.171 1377.82 915.446C1377.53 915.627 1377.25 915.799 1376.93 915.748C1376.83 915.936 1376.76 916.135 1376.68 916.329C1376.52 916.746 1376.37 917.141 1376.08 917.351C1375.77 917.583 1375.66 917.913 1375.55 918.237C1375.44 918.567 1375.33 918.89 1375.01 919.095C1374.93 919.148 1374.93 919.501 1375.02 919.621C1375.18 919.838 1375.26 920.085 1375.33 920.335C1375.42 920.614 1375.5 920.897 1375.71 921.144C1376.53 922.112 1377.28 923.14 1377.95 924.22C1378.31 924.794 1378.79 925.234 1379.27 925.67C1379.48 925.866 1379.7 926.062 1379.9 926.269ZM1508.47 918.429L1508.47 918.429L1508.47 918.429C1507.94 918.761 1507.47 919.059 1507.64 919.816C1506.66 919.518 1506.26 919.091 1506.38 918.198C1506.42 917.971 1506.42 917.744 1506.43 917.516L1506.43 917.516L1506.43 917.516L1506.43 917.516L1506.43 917.516L1506.43 917.515L1506.43 917.515L1506.43 917.515L1506.43 917.515L1506.43 917.515L1506.43 917.515L1506.43 917.515L1506.43 917.515L1506.43 917.515L1506.43 917.515L1506.43 917.515C1506.44 917.123 1506.45 916.728 1506.59 916.325C1506.7 916.003 1506.65 915.63 1506.6 915.251C1506.56 914.973 1506.52 914.693 1506.54 914.426C1506.57 914.091 1506.71 913.765 1506.84 913.44C1506.9 913.295 1506.95 913.149 1507 913.003L1507.68 913.105L1507.41 913.904L1507.57 914.001L1508.32 913.258C1508.36 913.275 1508.42 913.306 1508.49 913.341C1508.66 913.433 1508.88 913.553 1509.08 913.524C1510.74 913.28 1512.27 913.774 1513.79 914.323C1514.08 914.429 1514.35 914.613 1514.62 914.797L1514.62 914.797C1514.8 914.923 1514.99 915.05 1515.18 915.153L1515.37 915.252C1516.39 915.788 1516.64 915.921 1517.11 916.851C1517.47 917.564 1517.84 918.326 1517.72 919.206C1517.65 919.566 1517.7 919.94 1517.86 920.271C1518.32 920.951 1518.03 921.319 1517.48 921.67C1517.32 921.773 1517.18 921.899 1517.06 922.046C1516.32 922.97 1516.2 923.013 1515.22 922.634C1514.01 922.167 1512.97 921.416 1511.94 920.665L1511.94 920.665C1511.73 920.514 1511.52 920.363 1511.31 920.215C1510.7 919.78 1510.11 919.311 1509.53 918.848L1509.52 918.847C1509.27 918.643 1509.01 918.44 1508.76 918.242C1508.66 918.307 1508.56 918.369 1508.47 918.429ZM1483.88 916.168C1484.02 916.151 1484.16 916.134 1484.3 916.119C1484.14 915.611 1484.17 915.083 1484.66 915.082C1485.36 915.082 1485.2 914.705 1485.06 914.396C1485.04 914.336 1485 914.277 1484.97 914.217C1484.86 914.013 1484.75 913.813 1484.9 913.609C1485.13 913.291 1485.1 912.949 1485.08 912.611C1485.07 912.465 1485.06 912.321 1485.08 912.179C1485.11 911.798 1485.01 911.256 1484.76 911.037C1484.31 910.681 1483.79 910.43 1483.23 910.299C1482.9 910.213 1482.56 910.199 1482.21 910.184C1481.99 910.175 1481.76 910.166 1481.54 910.136C1481.26 910.098 1480.97 910.05 1480.69 910.001C1479.89 909.865 1479.09 909.728 1478.27 909.827C1477.91 909.871 1477.55 909.871 1477.18 909.872L1477.18 909.872C1476.5 909.873 1475.82 909.873 1475.17 910.162C1474.55 910.49 1473.84 910.607 1473.15 910.495C1472.39 910.346 1472.11 910.658 1471.82 911.504C1471.78 911.606 1471.73 911.72 1471.68 911.835C1471.55 912.106 1471.43 912.382 1471.52 912.508C1471.74 912.835 1471.56 912.974 1471.38 913.113C1471.21 913.241 1471.04 913.368 1471.19 913.641C1472.58 914.453 1474.2 914.837 1475.81 915.22C1475.99 915.263 1476.17 915.307 1476.36 915.351C1477.5 915.627 1478.67 915.795 1479.84 915.963L1479.84 915.963C1480.41 916.045 1480.98 916.127 1481.55 916.221C1482.33 916.352 1483.1 916.26 1483.88 916.168ZM1522.46 873.996L1522.46 873.996L1522.41 873.974C1521.26 873.46 1520.14 872.865 1519.07 872.194C1518.84 872.047 1518.6 871.912 1518.35 871.777C1517.47 871.29 1516.58 870.792 1516.13 869.696C1516.8 869.684 1517.33 870.005 1517.88 870.338C1518.38 870.64 1518.89 870.953 1519.54 871.033C1518.96 870.413 1518.29 869.99 1517.6 869.55C1517.07 869.213 1516.52 868.866 1515.99 868.412L1517.07 868.277C1516.96 868.044 1516.84 867.799 1516.72 867.555L1517.68 866.527C1517.75 866.555 1517.83 866.588 1517.91 866.624L1517.91 866.624L1517.91 866.624C1518.12 866.712 1518.36 866.815 1518.6 866.898C1519.94 867.351 1519.96 867.347 1521.45 866.911L1521.48 866.9C1521.66 866.856 1521.84 866.831 1522.02 866.826C1523.39 866.741 1524.74 866.793 1526.01 867.455C1526.59 867.745 1527.11 868.145 1527.53 868.633C1527.63 868.731 1527.75 868.796 1527.89 868.816C1528.01 868.827 1528.12 868.903 1528.18 869.015C1528.23 869.127 1528.22 869.26 1528.16 869.364C1527.98 869.743 1527.97 870.144 1527.95 870.545C1527.94 870.869 1527.93 871.193 1527.83 871.504C1527.77 871.781 1527.83 872.073 1527.99 872.304C1528.19 872.68 1527.85 873.6 1527.49 873.752C1527.42 873.784 1527.32 873.775 1527.23 873.767C1527.05 873.75 1526.86 873.734 1526.82 874.032C1526.79 874.274 1526.79 874.516 1526.79 874.759C1525.07 875.173 1523.75 874.578 1522.46 873.996ZM1467.88 875.495L1468.51 874.852C1468.47 874.483 1468.22 874.273 1467.97 874.062C1467.75 873.87 1467.52 873.678 1467.45 873.367C1467.37 873.226 1467.21 873.157 1467.05 873.199C1466.9 873.242 1466.8 873.385 1466.8 873.545C1466.79 873.604 1466.66 873.643 1466.53 873.682C1466.47 873.701 1466.41 873.719 1466.36 873.739C1466.35 873.698 1466.33 873.648 1466.3 873.599C1466.26 873.492 1466.21 873.386 1466.23 873.368C1466.84 872.887 1466.28 872.497 1466.03 872.335C1465.82 872.2 1465.61 872.06 1465.41 871.92C1464.57 871.35 1463.72 870.776 1462.74 870.461L1462.73 870.457C1462.22 870.293 1461.58 870.085 1461.36 870.934C1461.35 870.977 1461.25 871.022 1461.18 871.025C1460.48 871.06 1460.32 871.457 1460.47 872.074C1460.59 872.613 1460.27 872.559 1460.02 872.517L1459.97 872.51L1459.7 873.498L1460.7 874.317C1460.52 874.336 1460.36 874.282 1460.2 874.23C1459.93 874.14 1459.67 874.053 1459.34 874.338L1459.36 874.521L1459.36 874.521L1459.36 874.522L1459.36 874.523L1459.36 874.523L1459.36 874.524C1459.38 874.702 1459.4 874.901 1459.42 875.1C1459.43 875.196 1459.45 875.305 1459.47 875.413C1459.52 875.654 1459.57 875.895 1459.47 876.005C1459.07 876.461 1459.37 876.64 1459.64 876.802C1459.68 876.823 1459.71 876.844 1459.75 876.865C1460.12 877.107 1460.51 877.332 1460.9 877.557C1461.18 877.715 1461.45 877.873 1461.72 878.037C1461.88 878.151 1462.02 878.279 1462.14 878.421L1462 878.622C1461.06 878.092 1460.13 877.561 1459.09 876.965C1459.44 877.815 1460.01 878.151 1460.64 878.511C1461.63 879.077 1462.7 879.512 1463.8 879.806C1465.2 880.183 1466.63 880.298 1467.77 879.091C1467.87 879.001 1467.98 878.921 1468.09 878.851L1468.56 875.828L1467.88 875.495ZM1445.84 852.632L1446.69 852.769L1446.48 852.401C1446.36 852.188 1446.25 851.988 1446.13 851.777C1446.25 851.642 1446.37 851.504 1446.49 851.364C1446.78 851.034 1447.08 850.698 1447.4 850.385C1447.68 850.114 1447.99 849.885 1448.34 849.707C1448.45 849.651 1448.53 849.72 1448.63 849.797C1448.77 849.904 1448.93 850.028 1449.2 849.867C1449.44 849.718 1449.87 849.915 1450.27 850.095L1450.27 850.095L1450.27 850.095L1450.27 850.096C1450.35 850.133 1450.43 850.169 1450.5 850.201C1450.62 850.25 1450.72 850.363 1450.82 850.477C1451.03 850.718 1451.24 850.965 1451.64 850.636L1452.54 851.746C1452.57 851.77 1452.59 851.793 1452.61 851.815L1452.63 851.835L1452.64 851.846L1455.68 852.335C1455.86 852.183 1456.05 852.045 1456.26 851.923C1456.58 851.757 1457.11 851.82 1457.09 852.11C1457.07 852.456 1457.29 852.571 1457.5 852.681C1457.68 852.776 1457.85 852.867 1457.85 853.099C1457.14 854.037 1456.87 854.276 1456.04 854.685C1456.52 854.954 1456.94 855.189 1457.46 855.484C1457.45 855.544 1457.45 855.621 1457.44 855.702C1457.44 855.893 1457.43 856.11 1457.32 856.188C1457.11 856.337 1456.91 856.499 1456.71 856.661C1455.96 857.261 1455.21 857.864 1454.13 857.813C1453.76 857.835 1453.38 857.816 1453.01 857.757C1452.33 857.567 1451.66 857.328 1450.99 857.09L1450.78 857.013L1450.65 856.968C1450.43 856.889 1450.21 856.797 1449.99 856.704C1449.83 856.637 1449.68 856.57 1449.51 856.508C1449.29 856.421 1449.1 856.27 1448.91 856.118C1448.59 855.87 1448.28 855.621 1447.82 855.66C1447.59 855.217 1447.19 855.006 1446.79 854.79L1446.79 854.79C1446.67 854.724 1446.54 854.657 1446.42 854.583C1446.08 854.407 1445.82 854.098 1445.71 853.729C1445.61 853.361 1445.65 852.964 1445.84 852.632ZM1397.75 860.695L1396.66 861.486C1395.89 861.925 1395.24 862.535 1394.74 863.27C1394.53 863.583 1394.41 863.945 1394.29 864.309C1394.16 864.68 1394.03 865.054 1393.81 865.382C1393.76 865.455 1393.83 865.668 1393.9 865.76C1394.14 866.047 1394.4 866.317 1394.68 866.567C1395.19 867.031 1395.83 867.233 1396.47 867.436C1396.66 867.497 1396.85 867.558 1397.04 867.626C1398.65 868.206 1400.21 868.39 1401.67 867.28C1401.78 867.19 1401.91 867.142 1402.05 867.144C1402.56 867.244 1402.69 866.937 1402.82 866.631C1402.89 866.464 1402.96 866.297 1403.09 866.198C1403.04 865.464 1403.36 864.837 1403.67 864.225C1403.78 864.008 1403.89 863.793 1403.98 863.576C1404.29 862.838 1404.2 862.371 1403.72 861.965C1403.63 861.885 1403.53 861.803 1403.44 861.72C1402.7 861.074 1401.95 860.415 1400.85 860.446C1400.7 860.45 1400.56 860.413 1400.41 860.376C1400.09 860.298 1399.78 860.22 1399.48 860.515C1399.37 860.582 1399.23 860.588 1399.12 860.53C1398.63 860.039 1398.25 860.323 1397.87 860.608C1397.83 860.637 1397.79 860.667 1397.75 860.695ZM1436.59 920.422C1436.96 920.57 1437.24 920.678 1437.77 920.889C1437.67 920.715 1437.6 920.584 1437.55 920.481L1437.55 920.48L1437.55 920.48C1437.46 920.315 1437.41 920.22 1437.35 920.126L1437.35 920.124C1437.22 919.892 1437.15 919.766 1437.16 919.651C1437.18 919.516 1437.31 919.394 1437.61 919.131L1437.61 919.13C1437.63 919.114 1437.65 919.097 1437.67 919.081C1437.73 919.032 1437.8 918.98 1437.8 918.934C1437.73 918.381 1438.08 917.865 1438.61 917.706C1439.19 917.468 1439.82 917.349 1440.45 917.355C1442.81 917.532 1444.88 918.569 1446.82 919.846C1447.05 919.995 1447.21 920.254 1447.36 920.512C1447.43 920.63 1447.5 920.748 1447.58 920.855L1447.1 921.132C1447.43 921.536 1447.57 921.921 1447.15 922.381C1447.01 922.578 1446.99 922.828 1447.07 923.05C1447.27 923.377 1447.09 923.555 1446.93 923.73C1446.81 923.849 1446.7 923.967 1446.7 924.129C1446.37 923.992 1446.18 924.194 1446 924.397C1445.84 924.574 1445.68 924.752 1445.41 924.708C1445.22 924.676 1445.02 924.663 1444.82 924.651C1444.45 924.627 1444.09 924.604 1443.78 924.458C1442.7 923.989 1441.68 923.405 1440.73 922.717C1440.35 922.377 1439.85 922.207 1439.34 922.246C1438.54 922.347 1437.74 922.195 1437.04 921.811L1437.02 921.798C1436.44 921.471 1436.43 921.468 1436.59 920.422ZM1448.37 890.124C1448.45 890.282 1448.55 890.429 1448.67 890.56C1449.12 890.714 1449.57 890.813 1450.01 890.91C1450.22 890.956 1450.42 891.001 1450.63 891.052C1451.89 891.371 1453.19 891.697 1454.56 891.358C1455.47 891.132 1456.06 890.572 1456.07 889.808C1456.07 889.59 1456.15 889.376 1456.23 889.164C1456.37 888.784 1456.5 888.407 1456.21 888.008C1456.79 887.447 1456.29 886.99 1455.94 886.723C1454.97 885.976 1453.97 885.238 1452.74 884.97C1452.51 884.921 1452.28 884.917 1452.04 884.913L1452.04 884.913C1451.82 884.909 1451.6 884.906 1451.39 884.866C1451.04 884.801 1450.7 884.694 1450.33 884.579L1450.33 884.579C1450.16 884.527 1449.99 884.473 1449.81 884.421L1448.32 886.017L1448.42 886.212L1448.48 886.343L1448.49 886.345C1448.57 886.511 1448.65 886.68 1448.76 886.884L1446.67 886.76C1446.64 886.912 1446.62 887.074 1446.61 887.227C1446.58 887.538 1446.56 887.811 1446.43 887.882C1446.21 887.997 1446.09 888.17 1445.97 888.343C1445.85 888.513 1445.73 888.682 1445.52 888.798C1445.73 888.861 1445.91 888.763 1446.09 888.669C1446.37 888.523 1446.63 888.386 1446.91 888.866L1446.19 889.028C1446.41 889.723 1446.94 889.676 1447.49 889.626L1447.49 889.626C1447.54 889.621 1447.59 889.616 1447.65 889.612C1447.44 889.449 1447.23 889.285 1446.97 889.081C1447.1 889.005 1447.25 888.953 1447.4 888.926C1447.59 888.931 1447.77 888.984 1447.94 889.08C1447.98 889.108 1447.98 889.182 1447.99 889.261C1448 889.333 1448 889.409 1448.04 889.456C1448.08 889.509 1448.15 889.544 1448.21 889.579C1448.28 889.616 1448.36 889.654 1448.39 889.713C1448.41 889.767 1448.4 889.843 1448.38 889.92C1448.36 889.994 1448.35 890.068 1448.37 890.124ZM1479.29 891.829L1480.02 891.605C1479.65 891.048 1479.12 890.928 1478.58 890.807C1478.13 890.704 1477.67 890.599 1477.3 890.225C1477.51 890.155 1477.73 890.111 1477.96 890.092C1478.31 890.127 1478.66 890.18 1479 890.251C1478.72 889.908 1478.32 889.677 1477.88 889.6C1477.92 888.924 1477.94 888.627 1478.08 888.402C1478.19 888.227 1478.37 888.095 1478.69 887.86C1478.91 887.91 1479.14 887.977 1479.37 888.045L1479.37 888.045C1479.89 888.2 1480.43 888.358 1480.95 888.318C1481.45 888.279 1481.87 888.44 1482.28 888.6C1482.55 888.703 1482.82 888.805 1483.11 888.854C1483.81 889.023 1484.49 889.298 1485.12 889.668C1485.5 889.838 1485.82 890.114 1486.04 890.463C1486.26 890.888 1486.5 891.566 1486.31 891.87C1486.1 892.218 1486.19 892.441 1486.29 892.67C1486.33 892.769 1486.37 892.87 1486.39 892.982C1486.46 893.489 1486.46 894.036 1486.04 894.463C1485.96 894.553 1485.88 894.67 1485.8 894.786L1485.8 894.786C1485.66 894.989 1485.52 895.187 1485.35 895.223C1484.68 895.385 1483.99 895.416 1483.31 895.316C1482.08 895.059 1480.86 894.723 1479.66 894.309C1479.46 894.243 1479.31 894.038 1479.13 893.797L1479.13 893.797L1479.13 893.797C1479.04 893.675 1478.94 893.543 1478.82 893.415L1479.53 893.452C1479.18 893.092 1479.23 892.711 1479.27 892.351C1479.29 892.17 1479.32 891.994 1479.29 891.829ZM1503.83 939.966L1504.71 939.856C1504.35 939.505 1503.97 939.177 1503.57 938.877C1503.4 938.765 1503.02 938.703 1502.91 938.807C1502.67 939.035 1502.4 939.003 1502.15 938.974C1501.99 938.955 1501.84 938.937 1501.7 938.991C1501.36 939.127 1501.07 939.068 1500.79 939.009C1500.67 938.986 1500.56 938.964 1500.45 938.952C1500.21 938.93 1499.98 938.875 1499.74 938.822C1499.34 938.73 1498.95 938.64 1498.58 938.705C1498.21 938.77 1497.88 938.718 1497.55 938.667C1497.33 938.635 1497.12 938.602 1496.9 938.601C1496.51 938.6 1496.13 938.606 1495.74 938.612L1495.74 938.612L1495.74 938.612L1495.74 938.612L1495.74 938.612L1495.74 938.612L1495.74 938.612L1495.54 938.615C1495.44 938.616 1495.34 938.618 1495.23 938.619L1493.96 939.547C1494.39 939.885 1494.17 940.048 1493.95 940.213C1493.77 940.341 1493.59 940.471 1493.73 940.686C1493.83 940.858 1494.03 940.878 1494.23 940.897C1494.51 940.925 1494.79 940.953 1494.83 941.394C1494.73 941.385 1494.62 941.368 1494.52 941.351C1494.11 941.283 1493.71 941.217 1493.51 941.708C1494.04 942.37 1494.78 942.471 1495.53 942.571L1495.64 942.586C1495.78 942.597 1495.93 942.621 1496.07 942.658C1497.59 943.166 1499.15 943.56 1500.73 943.836C1500.91 943.868 1501.09 943.943 1501.26 944.019C1501.43 944.089 1501.59 944.159 1501.76 944.194L1501.84 944.209C1502.46 944.338 1503.12 944.473 1503.66 943.947C1503.51 943.671 1503.24 943.57 1502.98 943.471C1502.66 943.352 1502.35 943.235 1502.26 942.818L1504.33 943.152L1504.69 942.332L1503.2 941.441C1504.23 941.22 1504.26 941.123 1503.83 939.966ZM1438.94 866.376C1439.09 866.284 1439.2 866.176 1439.3 866.072C1439.5 865.873 1439.69 865.693 1440.06 865.694L1439.7 866.203C1439.83 866.304 1439.97 866.404 1440.1 866.505L1440.1 866.505L1440.1 866.505L1440.1 866.505L1440.1 866.506C1440.46 866.776 1440.81 867.046 1441.15 867.337C1441.27 867.439 1441.38 867.73 1441.32 867.829C1441.13 868.148 1441.13 868.491 1441.13 868.831C1441.13 869.072 1441.13 869.31 1441.06 869.538C1440.96 869.789 1440.79 870.009 1440.58 870.178C1440.53 870.223 1440.44 870.227 1440.36 870.232C1440.27 870.236 1440.19 870.24 1440.14 870.285C1440.03 870.431 1439.95 870.597 1439.9 870.773L1439.85 870.731C1439.17 870.198 1439.14 870.171 1438.17 870.469C1437.8 870.582 1437.49 870.471 1437.17 870.358C1436.98 870.29 1436.79 870.22 1436.58 870.201L1436.66 870.629L1436.71 870.864C1436.64 870.851 1436.56 870.846 1436.49 870.84C1436.33 870.829 1436.19 870.819 1436.13 870.743C1435.11 869.324 1435.09 869.293 1433.83 868.912C1433.89 869.455 1434.26 869.623 1434.66 869.801C1434.92 869.918 1435.19 870.04 1435.39 870.279C1435.32 870.311 1435.26 870.354 1435.19 870.396C1435.05 870.484 1434.93 870.566 1434.87 870.531C1434.75 870.454 1434.62 870.381 1434.49 870.308C1433.76 869.887 1433.04 869.469 1432.9 868.424C1432.89 868.376 1432.88 868.332 1432.87 868.29C1432.83 868.001 1432.8 867.85 1433.09 867.637C1433.29 867.453 1433.43 867.221 1433.52 866.962C1433.69 866.512 1433.85 866.055 1434.02 865.576L1434.02 865.576L1434.02 865.575C1434.09 865.377 1434.16 865.176 1434.23 864.97L1434.64 865.122C1434.89 865.117 1435.01 864.929 1435.12 864.767C1435.26 864.547 1435.37 864.376 1435.73 864.797C1435.8 864.876 1435.86 864.794 1435.93 864.697C1436.04 864.541 1436.18 864.345 1436.44 864.699C1436.55 864.854 1436.86 864.866 1437.15 864.878L1437.15 864.878L1437.15 864.878C1437.29 864.884 1437.41 864.889 1437.52 864.906C1437.56 865.042 1437.6 865.173 1437.63 865.304L1437.71 865.614C1437.8 865.613 1437.89 865.612 1437.98 865.61L1437.93 865.285L1437.85 864.728C1438.18 864.875 1438.42 864.978 1438.66 865.082L1438.95 865.212C1438.95 865.571 1438.94 865.973 1438.94 866.376ZM1423.66 930.23L1425.05 930.624C1425.12 930.43 1425.17 930.228 1425.19 930.023C1425.16 929.846 1425.12 929.672 1425.07 929.5L1425.06 929.472L1425.06 929.472C1425.03 929.308 1424.98 929.048 1425.02 929.031C1425.34 928.901 1425.41 928.601 1425.47 928.302C1425.54 927.982 1425.61 927.663 1426 927.553C1425.97 927.432 1425.94 927.312 1425.9 927.195C1425.59 927.254 1425.51 927.052 1425.43 926.852C1425.39 926.747 1425.35 926.642 1425.27 926.576C1424.95 926.294 1424.57 926.154 1424.2 926.016C1423.94 925.919 1423.68 925.822 1423.44 925.676C1422.41 925.038 1421.26 924.645 1420.06 924.527L1417.89 926.619L1418.73 927.774C1418.5 927.842 1418.27 927.789 1418.04 927.738C1417.71 927.664 1417.4 927.594 1417.13 927.889C1417.46 928.644 1417.94 929.259 1418.67 929.5C1419.26 929.701 1419.84 929.948 1420.42 930.196C1420.98 930.434 1421.53 930.673 1422.11 930.868C1422.64 931.082 1423.23 931.15 1423.8 931.064L1423.66 930.23ZM1461.6 925.997L1462.86 926.744L1462.65 926.008C1462.66 926.007 1462.67 926.006 1462.68 926.005C1462.7 926.002 1462.71 925.999 1462.73 925.996C1462.79 925.984 1462.85 925.973 1462.88 925.996C1463.27 926.322 1463.74 926.54 1464.24 926.631C1464.55 926.705 1464.85 926.822 1465.13 926.978C1465.61 927.252 1466.19 927.271 1466.68 927.028C1466.64 926.819 1466.61 926.603 1466.59 926.503L1467.59 926.52C1467.63 926.578 1467.67 926.622 1467.69 926.655C1467.73 926.705 1467.75 926.73 1467.75 926.745C1467.66 926.978 1467.56 927.208 1467.47 927.427L1467.4 927.598C1467.7 927.88 1467.96 928.136 1468.36 928.519L1467.24 928.714L1467.36 929.423L1467.47 930.024L1466.94 930.504L1467.33 931.031C1467.06 931.909 1466.53 932.201 1465.67 932.103C1465.32 932.062 1464.96 932.04 1464.6 932.019L1464.6 932.018C1464.01 931.983 1463.41 931.946 1462.78 931.824L1463.16 930.814C1462.66 930.428 1462.1 930.15 1461.49 929.999C1461.05 929.877 1460.63 929.642 1460.22 929.411L1460.22 929.41C1460.05 929.31 1459.87 929.21 1459.69 929.121C1459.72 928.584 1460.04 928.546 1460.38 928.506C1460.47 928.495 1460.56 928.484 1460.64 928.464C1460.62 928.422 1460.6 928.377 1460.58 928.332C1460.54 928.238 1460.5 928.148 1460.43 928.109C1459.81 927.745 1459.72 927.406 1460.2 927.019C1460.52 926.767 1460.85 926.533 1461.17 926.302C1461.32 926.2 1461.46 926.099 1461.6 925.997ZM1432.61 955.504L1431.44 955.077L1431.43 955.118L1431.4 955.183C1431.29 955.481 1431.19 955.743 1431.41 956.115C1431.91 956.96 1432.7 957.401 1433.49 957.84C1433.7 957.953 1433.9 958.066 1434.1 958.185C1434.5 958.425 1435.17 958.11 1435.57 957.666C1435.73 957.493 1435.91 957.341 1436.11 957.214C1436.62 956.915 1436.81 956.262 1436.53 955.734C1436.36 955.343 1436.27 955.058 1436.55 954.703C1436.82 954.408 1436.8 953.953 1436.51 953.676C1436.49 953.645 1436.46 953.614 1436.43 953.583C1436.22 953.332 1435.99 953.073 1436.11 952.657C1436.08 952.463 1435.95 952.295 1435.78 952.212C1435.69 952.181 1435.57 952.211 1435.45 952.24C1435.33 952.27 1435.22 952.298 1435.16 952.249C1435.09 952.189 1435.08 952.066 1435.07 951.939C1435.06 951.823 1435.05 951.702 1434.99 951.622C1434.59 951.062 1433.97 951.069 1433.42 951.217C1433.27 951.256 1433.14 951.346 1433 951.439C1432.8 951.578 1432.59 951.723 1432.3 951.704C1432.28 951.703 1432.25 951.864 1432.21 952.053L1432.21 952.053L1432.21 952.053C1432.18 952.204 1432.15 952.374 1432.11 952.493C1432.05 952.623 1431.96 952.744 1431.87 952.853L1432.57 953.823C1432.21 953.627 1432.03 953.528 1431.88 953.446L1431.19 953.945C1431.32 954.054 1431.44 954.16 1431.56 954.262L1431.56 954.262C1431.88 954.539 1432.17 954.798 1432.46 955.068C1432.51 955.117 1432.53 955.201 1432.56 955.309C1432.57 955.368 1432.59 955.433 1432.61 955.504ZM1453.75 906.249L1454.94 905.827C1454.82 905.329 1454.6 904.928 1454.01 904.831C1454.1 904.429 1454.37 904.395 1454.66 904.36C1454.85 904.336 1455.06 904.311 1455.2 904.166L1454.86 903.446C1454.89 903.159 1455.1 903.122 1455.32 903.084C1455.53 903.046 1455.76 903.006 1455.84 902.72C1455.94 902.365 1456.19 902.436 1456.46 902.513C1456.64 902.563 1456.82 902.615 1456.97 902.549C1457.24 902.484 1457.51 902.499 1457.76 902.593C1458.12 902.687 1458.43 902.868 1458.75 903.051C1459.19 903.304 1459.63 903.559 1460.18 903.584C1460.33 903.591 1460.47 903.793 1460.64 904.022C1460.72 904.137 1460.8 904.259 1460.9 904.367C1460.44 904.446 1460.4 904.77 1460.37 905.095C1460.34 905.404 1460.31 905.715 1459.91 905.819C1459.92 905.957 1459.98 906.095 1460.04 906.235C1460.19 906.561 1460.35 906.902 1459.88 907.314L1459.07 906.954L1459.14 907.349L1459.22 907.759C1458.9 908.129 1458.49 907.95 1458.2 907.824L1458.16 907.806C1457.21 907.393 1456.18 907.228 1455.15 907.327C1454.5 907.384 1453.93 907.121 1453.75 906.249ZM1424.47 881.157L1425.11 878.889C1424.99 878.79 1424.88 878.672 1424.76 878.548C1424.48 878.261 1424.18 877.949 1423.82 877.81C1422.89 877.436 1421.92 877.208 1420.92 877.134C1419.78 877.077 1418.58 877.217 1418.29 878.727C1418.27 878.824 1418.19 878.908 1418.1 879.004C1418.06 879.053 1418 879.106 1417.96 879.165C1418.06 879.256 1418.14 879.355 1418.23 879.45C1418.4 879.643 1418.55 879.817 1418.74 879.86C1418.86 879.89 1418.99 879.917 1419.11 879.945C1419.85 880.107 1420.58 880.267 1421.12 880.899C1421.68 880.93 1422.15 881.195 1422.62 881.457C1422.9 881.615 1423.18 881.772 1423.48 881.877L1424.47 881.157Z" fill="#F5D3AB"/>
</g>
</svg>
