<svg width="270" height="196" viewBox="0 0 270 196" fill="none" xmlns="http://www.w3.org/2000/svg">
<path fill-rule="evenodd" clip-rule="evenodd" d="M141.746 12.19C140.379 11.6517 139.011 11.113 137.791 10.2442C139.702 10.8986 141.537 11.7579 143.263 12.8073C142.762 12.5903 142.254 12.3902 141.746 12.19ZM137.756 10.2247L137.15 9.74971C141.573 11.351 145.789 13.4727 149.71 16.0703C155.235 19.8001 160.181 24.3238 164.388 29.4961C168.499 34.5687 172.247 39.925 175.605 45.5253C180.57 53.6614 185.636 61.7286 191.451 69.3021C196.199 75.5698 202.137 80.8367 208.924 84.8009C211.625 86.3691 214.349 87.8902 217.232 89.2852C216.907 89.5003 216.683 89.3881 216.43 89.2615C216.238 89.165 216.029 89.0601 215.746 89.0852C216.022 89.214 216.284 89.3689 216.533 89.5154C217.048 89.8193 217.503 90.0872 217.891 90.0117C218.537 89.8283 219.23 90.0111 219.702 90.4888C220.62 91.7091 221.925 92.1583 223.224 92.6056C223.816 92.8092 224.406 93.0125 224.958 93.2879C225.634 93.625 226.376 93.7912 227.123 93.9586C227.924 94.1379 228.731 94.3187 229.47 94.7125C230.059 95.0265 230.668 95.2943 231.278 95.5624C232.548 96.1209 233.819 96.6801 234.908 97.6581C235.629 98.3045 236.822 98.5352 237.923 98.7276C238.942 98.9057 240.151 99.3716 240.766 100.128C241.404 100.912 242.24 101.291 243.074 101.67L243.074 101.67C243.591 101.904 244.107 102.139 244.575 102.469C247.585 104.549 250.467 106.807 253.207 109.232C257.04 112.76 260.493 116.682 263.507 120.934C268.587 127.946 270.272 135.89 269.93 144.368C269.587 152.86 266.394 160.027 259.81 165.578L259.68 165.688C256.257 168.575 252.834 171.462 249.167 174.036C246.804 175.723 244.231 177.094 241.513 178.114C239.259 178.941 237.401 180.368 235.545 181.794L235.543 181.796C235.396 181.909 235.249 182.022 235.102 182.134C229.81 186.184 224.186 189.633 217.858 191.818C211.469 194.022 204.861 194.688 198.152 194.379C189.23 193.969 180.753 191.579 172.38 188.623L171.886 188.449L171.886 188.449C160.005 184.253 148.111 180.053 135.587 178.097C126.638 176.699 117.661 176.059 108.629 177.358C104.633 177.932 100.932 179.369 97.2674 181.003C94.9476 182.037 92.6503 183.122 90.353 184.207C86.2533 186.143 82.1536 188.08 77.9265 189.728C73.1886 191.576 68.3951 193.28 63.3495 194.083C54.5071 195.492 45.6392 195.774 36.8645 193.8C27.4613 191.684 18.7524 188.029 11.7292 181.127C5.04515 174.557 0.708676 166.856 0.664123 157.227C0.641389 151.962 2.1675 147.001 4.34769 142.262C6.31562 137.984 8.49232 133.809 10.6692 129.635L10.6693 129.634L10.6694 129.634L10.6695 129.634L10.6696 129.634L10.6697 129.633L10.6698 129.633L10.6699 129.633L10.67 129.633L10.6701 129.633C12.921 125.316 15.172 120.999 17.1928 116.566C17.6573 115.547 18.1288 114.531 18.6003 113.515C20.8625 108.64 23.1243 103.767 24.6122 98.5732C26.8103 90.9068 26.5151 83.2469 24.597 75.5764C23.7879 72.3322 22.884 69.1142 21.9801 65.8961L21.979 65.8923C21.4469 63.9977 20.9147 62.1031 20.4019 60.2031C18.742 54.0526 17.4574 47.8378 17.4389 41.421C17.4064 30.145 22.3568 21.4491 31.2321 14.8045C36.4231 10.9737 42.1619 7.94952 48.254 5.83454C50.4594 5.04705 52.7041 4.40905 54.9423 3.77287C55.3327 3.66191 55.7229 3.55099 56.1127 3.43936C58.5157 2.75 60.981 2.30182 63.4722 2.10141C64.506 2.01891 65.5283 1.82235 66.5547 1.62499L66.5549 1.62492L66.5552 1.62485C67.5038 1.44245 68.4558 1.25939 69.4236 1.16507C76.7198 0.428312 84.0564 0.179434 91.3846 0.420053C95.7795 0.578933 100.142 1.05414 104.495 1.56182C107.976 1.96815 111.437 2.58004 114.886 3.33425C115.727 3.51826 116.571 3.69596 117.417 3.87382C119.429 4.29734 121.447 4.72178 123.435 5.23451C124.221 5.43743 124.963 5.78695 125.711 6.13915C126.402 6.46482 127.098 6.79278 127.839 7.00916C130.923 7.85645 133.94 8.93005 136.866 10.2213C137.155 10.3564 137.458 10.4665 137.756 10.2247ZM21.1799 181.337L21.1446 181.53C21.5072 181.722 21.8665 181.92 22.2257 182.119C23.014 182.555 23.8023 182.992 24.6255 183.347C24.9263 183.477 25.2268 183.607 25.5273 183.738C29.1257 185.302 32.7122 186.86 36.7859 186.997C37.307 187.014 37.8359 187.162 38.3771 187.312C39.038 187.496 39.7173 187.686 40.4234 187.65C41.296 187.605 42.143 187.749 42.9981 187.894C43.8663 188.041 44.7428 188.19 45.6626 188.144C48.4776 188.004 51.3231 187.947 54.149 188.034C55.4048 188.073 56.624 187.89 57.8409 187.708L57.8411 187.708L57.8414 187.708C58.4404 187.618 59.0389 187.528 59.641 187.465C61.0739 187.238 62.4933 186.931 63.8927 186.547C66.5254 185.987 69.1064 185.206 71.6084 184.213C74.1275 183.191 76.6171 182.06 79.0849 180.897C80.0465 180.445 81.0013 179.975 81.9562 179.506C83.4194 178.787 84.8828 178.068 86.3712 177.408C89.2674 176.148 92.0792 174.702 94.789 173.079C95.4928 172.65 96.2446 172.387 96.997 172.123L96.9971 172.123C97.6804 171.884 98.3642 171.645 99.0132 171.281C100.165 170.561 101.399 169.981 102.688 169.553C105.041 168.878 107.442 168.379 109.869 168.062C117.994 167.06 126.084 167.529 134.138 168.766C134.521 168.825 134.905 168.88 135.29 168.934L135.29 168.934L135.29 168.934L135.29 168.934L135.29 168.935L135.29 168.935L135.29 168.935L135.291 168.935L135.291 168.935C137.399 169.235 139.517 169.537 141.474 170.514C142.177 170.914 142.954 171.168 143.757 171.261C145.282 171.346 146.784 171.669 148.209 172.218C149.867 172.835 151.562 173.328 153.257 173.821L153.257 173.821C154.64 174.223 156.023 174.626 157.389 175.096C162.31 176.791 167.213 178.528 172.021 180.51C173.361 181.062 174.731 181.525 176.101 181.989L176.101 181.989L176.101 181.989L176.101 181.989L176.101 181.989L176.101 181.989L176.101 181.989L176.101 181.989L176.101 181.989L176.102 181.989C177.722 182.538 179.344 183.086 180.918 183.782C182.247 184.369 183.721 184.63 185.193 184.891C185.781 184.995 186.369 185.099 186.946 185.224C196.516 187.29 206.032 187.451 215.36 184.059C215.904 183.861 216.435 183.879 216.958 183.896C217.572 183.917 218.175 183.936 218.776 183.607C223.789 180.864 228.838 178.189 234 175.727C237.55 174.034 240.604 171.618 243.658 169.202C245.269 167.927 246.881 166.652 248.566 165.483L248.65 165.424L248.726 165.372L248.727 165.371C249.559 164.791 249.603 164.76 250.889 164.785C250.99 164.787 251.096 164.682 251.198 164.58C251.236 164.542 251.274 164.505 251.31 164.474C252.196 163.722 253.103 162.996 254.01 162.269C255.865 160.782 257.72 159.296 259.391 157.599C259.646 157.34 259.905 157.084 260.164 156.827C261.487 155.518 262.815 154.203 263.643 152.496C267.091 145.386 266.808 138.269 263.493 131.229C261.624 127.259 258.939 123.819 256.097 120.506C250.285 113.69 243.094 108.185 234.999 104.355C231.736 102.804 228.431 101.346 225.126 99.888C220.186 97.7094 215.246 95.5306 210.444 93.0394C202.591 89.0407 195.618 83.5078 189.938 76.767C183.07 68.5715 177.347 59.5842 171.697 50.5418C167.823 44.3427 163.734 38.2929 158.799 32.8738C151.856 25.2522 143.436 19.8605 133.8 16.2589C127.987 14.074 122.031 12.2915 115.973 10.924C99.3633 7.20463 82.5716 5.90692 65.5816 7.53715C57.8334 8.28082 50.2866 9.8006 43.1647 13.077C38.363 15.2879 33.7591 17.8083 29.8375 21.4244C27.5368 23.5464 25.5929 25.9212 24.6764 28.9814C23.5466 32.7301 23.1015 36.6512 23.3623 40.5565C23.8302 47.6469 25.7643 54.4176 27.6991 61.1903C27.9344 62.0142 28.1697 62.838 28.4024 63.6625C30.5067 71.1192 32.486 78.5712 31.9534 86.4887C31.6868 91.0117 30.7734 95.4737 29.2411 99.7385C25.395 110.233 20.0824 120.03 14.7722 129.824L14.7718 129.825L14.1447 130.981C13.4268 132.306 12.6761 133.614 11.9255 134.921L11.9253 134.921C10.0108 138.256 8.09646 141.591 6.72573 145.21C5.44676 148.588 4.54067 152.038 4.64837 155.688C4.92645 162.127 7.44555 168.265 11.7696 173.037C11.9046 173.158 12.0155 173.303 12.0964 173.466C12.7445 175.227 14.1909 176.172 15.6402 177.119L15.6409 177.119C15.7847 177.213 15.9285 177.307 16.0715 177.402C16.1713 177.468 16.2819 177.533 16.3942 177.598C16.7446 177.804 17.1109 178.018 17.2142 178.314C17.4846 179.089 18.1149 179.379 18.7571 179.675C19.2777 179.914 19.8061 180.158 20.1568 180.666C20.3475 180.942 20.8205 181.115 21.3343 181.304C21.7489 181.457 22.1901 181.619 22.5309 181.853L21.1799 181.337ZM212.097 92.4085C207.605 90.182 203.397 87.4236 199.563 84.1926C204.145 87.5032 209.013 90.3975 214.11 92.8411C218.419 94.9629 222.817 96.8863 227.215 98.8098C229.357 99.7466 231.499 100.683 233.631 101.643C235.732 102.544 237.749 103.627 239.66 104.881C238.945 105.041 238.489 104.687 238.047 104.344C237.831 104.176 237.618 104.01 237.379 103.908C235.843 103.251 234.322 102.559 232.801 101.868C231.365 101.215 229.929 100.562 228.482 99.9387C222.96 97.5593 217.466 95.1184 212.097 92.4085ZM22.4193 187.058C17.6133 184.203 13.232 180.687 9.40325 176.613C12.7938 181.136 17.2707 184.729 22.4193 187.058ZM134.524 175.632C128.219 174.302 121.749 173.922 115.329 174.504C121.749 174.525 128.141 174.987 134.524 175.632ZM204.653 192.377C210.398 192.052 216.025 191.21 221.165 188.38C215.831 190.34 210.291 191.681 204.653 192.377ZM153.411 25.543L153.411 25.5429C149.071 22.3366 144.732 19.1303 139.729 16.9648C145.399 19.0599 150.555 22.3462 154.849 26.603C154.373 26.2537 153.899 25.9031 153.424 25.5525L153.411 25.543ZM29.6333 190.48C29.5876 190.299 29.5606 190.168 29.5414 190.075C29.514 189.942 29.5027 189.887 29.4761 189.878C27.4844 189.268 25.5633 188.447 23.7451 187.431C23.6734 187.373 23.5811 187.348 23.4901 187.36C23.399 187.373 23.317 187.422 23.2635 187.497C23.0896 187.759 23.2755 187.938 23.4826 188.022C25.0259 188.646 26.5732 189.262 28.22 189.917L28.2222 189.918L28.2251 189.919C28.686 190.103 29.1547 190.289 29.6333 190.48ZM117.433 168.358C114.975 168.125 112.496 168.272 110.083 168.796L117.433 168.358ZM223.596 93.6178C221.599 92.2119 220.468 91.9276 219.619 92.778C220.626 92.1178 221.265 92.5519 221.934 93.0065C222.421 93.3373 222.924 93.6789 223.596 93.6178ZM228.142 94.5582L228.242 94.4173L233.079 96.6726L233.007 96.8266L228.142 94.5582Z" fill="#F5D3AB"/>
</svg>
