<svg width="204" height="86" viewBox="0 0 204 86" fill="none" xmlns="http://www.w3.org/2000/svg">
<path fill-rule="evenodd" clip-rule="evenodd" d="M233.441 -36.9839C233.198 -37.6771 233.025 -38.3928 232.924 -39.1204C232.867 -39.1721 232.825 -39.2392 232.805 -39.3137C232.665 -39.7352 232.529 -40.1586 232.393 -40.582C232.285 -40.9204 232.177 -41.2588 232.066 -41.5961C231.504 -43.1353 230.835 -44.6329 230.062 -46.0779C229.526 -47.1876 228.891 -48.2476 228.168 -49.2455C227.893 -49.6168 227.627 -49.9954 227.362 -50.3738C226.547 -51.536 225.732 -52.6976 224.65 -53.6484C224.235 -53.9299 223.882 -54.2934 223.613 -54.7164C223.344 -55.3324 222.858 -55.7363 222.374 -56.1381C221.967 -56.4759 221.562 -56.8123 221.29 -57.272C220.645 -57.6671 220.08 -58.1633 219.515 -58.6601C218.934 -59.1701 218.353 -59.6808 217.683 -60.0834C217.074 -60.4491 216.501 -60.8724 215.927 -61.296C215.564 -61.5637 215.201 -61.8316 214.829 -62.085C214.321 -62.4701 213.769 -62.7927 213.185 -63.0461C212.941 -63.1361 212.732 -63.2951 212.524 -63.4535C212.185 -63.7118 211.848 -63.9685 211.365 -63.9208C211.205 -64.4567 210.763 -64.6211 210.333 -64.7809C210.186 -64.8354 210.04 -64.8893 209.908 -64.9573C209.379 -65.2299 208.83 -65.4663 208.282 -65.7026C207.555 -66.0158 206.828 -66.3288 206.15 -66.7252C205.619 -67.0361 205.052 -67.2481 204.483 -67.4605C203.912 -67.6743 203.339 -67.8885 202.801 -68.2043C202.126 -68.6002 201.349 -68.8212 200.572 -69.0421C200.244 -69.1353 199.916 -69.2285 199.596 -69.3347C199.398 -69.4007 199.196 -69.4612 198.993 -69.5216C198.581 -69.6443 198.17 -69.7668 197.802 -69.9342C197.487 -70.077 197.161 -70.1787 196.835 -70.2803C196.519 -70.3788 196.203 -70.4771 195.899 -70.6125C195.324 -70.9362 194.659 -71.0625 194.005 -70.9722C193.658 -71.3339 193.206 -71.4299 192.755 -71.5259C192.54 -71.5715 192.326 -71.617 192.123 -71.691C191.938 -71.7586 191.731 -71.7733 191.526 -71.7879C191.289 -71.8047 191.053 -71.8215 190.855 -71.9188C190.285 -72.1992 189.676 -72.3076 189.07 -72.4153C188.801 -72.4632 188.533 -72.511 188.268 -72.5737C186.852 -72.9131 185.418 -73.1753 183.973 -73.359C183.632 -73.4013 183.291 -73.4531 182.949 -73.5051C181.89 -73.6659 180.82 -73.8283 179.73 -73.7177C179.163 -73.5791 178.564 -73.6567 178.051 -73.9354C177.895 -74.0386 177.623 -73.9661 177.352 -73.8936C177.225 -73.8598 177.098 -73.826 176.984 -73.8101L176.564 -74.0099L176.232 -73.7007L175.889 -74.0194L175.539 -73.8196C175.392 -73.8415 175.254 -73.875 175.129 -73.9057C174.885 -73.965 174.686 -74.0138 174.54 -73.9479C173.922 -73.6613 173.285 -73.6827 172.651 -73.7041C172.314 -73.7155 171.978 -73.7268 171.645 -73.6922C171.327 -73.6601 171.011 -73.606 170.68 -73.5492C170.525 -73.5227 170.367 -73.4956 170.204 -73.4699L169.967 -73.6892C169.935 -73.6612 169.903 -73.6254 169.871 -73.5895C169.802 -73.5118 169.733 -73.434 169.667 -73.4364C167.998 -73.4645 166.333 -73.278 164.713 -72.8814C164.517 -72.8377 164.322 -72.8427 164.125 -72.8477C163.81 -72.8557 163.49 -72.8638 163.156 -72.6746C162.921 -72.5416 162.635 -72.5239 162.335 -72.5054C162.064 -72.4887 161.782 -72.4713 161.518 -72.3674C161.332 -72.2943 161.122 -72.2921 160.909 -72.2898C160.599 -72.2866 160.279 -72.2832 160.009 -72.0622C158.615 -72.0124 157.297 -71.5983 155.99 -71.1875C155.631 -71.0747 155.273 -70.9621 154.914 -70.8573C152.668 -70.1621 150.464 -69.3344 148.316 -68.3786C147.422 -67.9973 146.518 -67.6379 145.615 -67.2784C144.451 -66.8155 143.288 -66.3525 142.142 -65.8425C141.005 -65.3886 139.836 -65.0228 138.643 -64.7485C137.83 -64.5307 137.009 -64.3509 136.187 -64.1709C135.761 -64.0777 135.335 -63.9844 134.91 -63.8858C134.775 -63.8545 134.642 -63.8133 134.509 -63.7722C134.317 -63.7131 134.126 -63.654 133.931 -63.6246C133.573 -63.6381 133.215 -63.6186 132.861 -63.5661C131.92 -63.2429 130.928 -63.0888 129.933 -63.111C129.199 -63.1182 128.465 -63.0992 127.731 -63.0802C125.957 -63.0343 124.183 -62.9883 122.407 -63.3108C120.772 -63.5754 119.174 -64.0307 117.646 -64.6676C115.785 -65.4775 114.092 -66.6298 112.657 -68.0644C112.263 -68.4574 111.868 -68.8484 111.473 -69.2394C109.917 -70.777 108.362 -72.3145 106.923 -73.9769C104.787 -76.3934 102.415 -78.5913 99.8435 -80.5383C98.7952 -81.3449 97.6787 -82.0589 96.5066 -82.6723C94.3079 -83.8277 92.0816 -84.9187 89.612 -85.4537C88.8746 -85.652 88.1271 -85.8108 87.3728 -85.9293C86.2399 -86.016 85.1023 -86.023 83.9684 -85.9502C83.6343 -85.9377 83.2999 -85.9464 82.9653 -85.9552C82.1528 -85.9763 81.3396 -85.9975 80.5281 -85.7145C80.2059 -85.6019 79.8476 -85.5831 79.4911 -85.5645C79.0916 -85.5436 78.6944 -85.5229 78.3529 -85.3703C78.0443 -85.2323 77.7306 -85.1956 77.4172 -85.159C77.1032 -85.1223 76.7895 -85.0857 76.4815 -84.9472C75.824 -84.6521 75.1297 -84.441 74.4347 -84.2296C73.9589 -84.085 73.4828 -83.9402 73.0177 -83.7683C72.1768 -83.499 71.372 -83.1281 70.6211 -82.6638C70.2965 -82.4408 69.9408 -82.27 69.5856 -82.0995C69.0139 -81.8249 68.4436 -81.551 68.007 -81.0613C66.6165 -80.4915 65.4343 -79.5942 64.2564 -78.7002C63.971 -78.4836 63.6859 -78.2671 63.3981 -78.0556C61.8504 -76.9406 60.404 -75.6916 59.0756 -74.3231C58.489 -73.7067 57.8831 -73.1089 57.2771 -72.511C56.058 -71.3082 54.8387 -70.1053 53.7774 -68.7513C53.6094 -68.537 53.4199 -68.3351 53.2308 -68.1337C52.9005 -67.7818 52.5714 -67.4313 52.3604 -67.0184C52.0601 -66.4317 51.6618 -65.9063 51.2639 -65.3815C50.6819 -64.6138 50.1009 -63.8474 49.8293 -62.8922C48.8337 -61.6179 48.2534 -60.1431 47.6732 -58.6686C47.4203 -58.026 47.1675 -57.3834 46.8803 -56.7575C46.4904 -55.9073 46.198 -55.0209 45.9051 -54.1332C45.6452 -53.3455 45.3849 -52.5567 45.0559 -51.7911C44.6381 -50.9203 44.2667 -50.0281 43.9433 -49.1181C43.8341 -48.7651 43.7002 -48.4189 43.5664 -48.0729C43.3811 -47.5939 43.1961 -47.1155 43.0771 -46.6204C42.9752 -46.1969 42.848 -45.7812 42.7211 -45.3661C42.5759 -44.8914 42.431 -44.4176 42.3244 -43.9339C41.987 -42.3858 41.7041 -40.8253 41.4277 -39.2643C41.3822 -39.0068 41.3711 -38.7326 41.3601 -38.4601C41.34 -37.9627 41.3201 -37.471 41.0918 -37.0973C40.9235 -36.8218 40.9112 -36.5389 40.8989 -36.2574C40.8855 -35.9479 40.8721 -35.64 40.6514 -35.3454C40.4527 -35.0808 40.4675 -34.6568 40.4823 -34.2316C40.489 -34.0364 40.4958 -33.8409 40.482 -33.6605C40.4653 -33.4551 40.4478 -33.2499 40.4304 -33.0447C40.3955 -32.6354 40.3607 -32.2261 40.332 -31.8162C40.3262 -31.7337 40.3367 -31.6413 40.347 -31.5502C40.365 -31.3921 40.3825 -31.2382 40.313 -31.1478C40.0172 -30.7653 40.0388 -30.3521 40.0603 -29.9403C40.0707 -29.7391 40.0812 -29.5383 40.0546 -29.3415C40.0177 -29.0682 39.9745 -28.7956 39.9312 -28.523C39.8796 -28.1979 39.828 -27.8728 39.7872 -27.5467C39.7592 -26.7182 39.6517 -25.8944 39.4663 -25.0865C39.3599 -24.5926 39.1828 -24.1167 38.9405 -23.6733C37.7226 -21.8622 36.3672 -20.1472 34.8864 -18.5436C33.9115 -17.4968 32.8598 -16.5241 31.74 -15.6338C31.1672 -15.1881 30.634 -14.6922 30.1005 -14.196C29.7198 -13.842 29.339 -13.4878 28.9435 -13.1516C28.6908 -12.9368 28.4146 -12.7489 28.1387 -12.5611C27.8057 -12.3345 27.473 -12.108 27.1821 -11.8348C26.2855 -11.0951 25.3224 -10.4398 24.3051 -9.87715C23.5495 -9.3925 22.7802 -8.93008 22.0106 -8.46753C21.4697 -8.14246 20.9288 -7.81733 20.3924 -7.48438C19.0534 -6.65215 17.7169 -5.81693 16.3983 -4.95374C14.2857 -3.60295 12.2521 -2.13259 10.3074 -0.549843C8.97378 0.543564 7.75052 1.76494 6.6552 3.09676C5.76299 4.19978 4.97474 5.38289 4.30051 6.63097C3.54321 7.8485 2.87391 9.11856 2.2977 10.4314C2.15966 10.8008 2.01178 11.166 1.86407 11.5308C1.41064 12.6507 0.958831 13.7665 0.798224 14.9847C0.493246 15.1641 0.487505 15.4418 0.481484 15.733C0.476522 15.9731 0.47137 16.2223 0.298397 16.4333C0.144841 16.6209 0.179907 16.9525 0.216225 17.2959C0.237832 17.5001 0.259883 17.7086 0.242916 17.8935C0.136102 18.3964 0.0550246 18.9044 0 19.4156C0.00499215 19.7546 0.0630214 20.0923 0.121087 20.4303C0.17348 20.7353 0.225903 21.0404 0.239417 21.3467C0.315415 22.0269 0.470923 22.6959 0.702757 23.3399C1.03183 24.5631 1.55278 25.7265 2.24622 26.7867C2.8441 27.784 3.52761 28.7275 4.28902 29.6066C4.59178 29.9226 4.88081 30.2515 5.16993 30.5805C5.80532 31.3036 6.44112 32.0271 7.224 32.6152C7.59193 32.8917 7.92668 33.2074 8.26318 33.5248C8.60278 33.845 8.94418 34.167 9.32327 34.452C11.5969 36.1225 13.9694 37.6542 16.4278 39.0388C17.7404 39.7982 19.1167 40.4503 20.4895 41.1007C20.6003 41.1532 20.7111 41.2057 20.8218 41.2582C21.3459 41.5068 21.8974 41.6982 22.4486 41.8895C22.6528 41.9604 22.8569 42.0312 23.0595 42.1049C23.5046 42.267 23.9668 42.3849 24.4267 42.5022C24.9546 42.637 25.4796 42.7709 25.9725 42.9701C26.4603 43.1685 26.9642 43.2576 27.4665 43.3463C27.9633 43.4341 28.4586 43.5217 28.935 43.7144C29.2701 43.8498 29.6445 43.8815 30.0212 43.9134C30.302 43.9372 30.584 43.9611 30.8518 44.0281C31.1311 44.0977 31.4253 44.126 31.7138 44.1538C32.0878 44.1898 32.4523 44.2249 32.7627 44.3478C33.1655 44.507 33.5458 44.5122 33.9224 44.5174C34.1425 44.5204 34.3613 44.5234 34.5825 44.5571C34.7167 44.5775 34.8508 44.5986 34.985 44.6197C35.4936 44.6996 36.0026 44.7795 36.5144 44.8254C36.9869 44.8678 37.4629 44.8517 37.9392 44.8356C38.7967 44.8067 39.655 44.7776 40.495 45.0901C40.7289 45.178 41.1443 45.2035 41.2787 45.0656C41.5416 44.7971 41.8272 44.8142 42.111 44.8313C42.2153 44.8375 42.3193 44.8438 42.4218 44.8359C42.9972 44.7912 43.5731 44.8002 44.1497 44.8093C45.1268 44.8247 46.1057 44.8401 47.0877 44.5941C48.2181 44.3979 49.3627 44.2951 50.51 44.2869C50.5434 44.2843 50.5831 44.2889 50.6217 44.2934C50.6872 44.3011 50.75 44.3085 50.7754 44.2799C51.0091 44.0237 51.2929 44.0219 51.5794 44.02C51.685 44.0193 51.7911 44.0186 51.895 44.0051C52.1422 43.9733 52.3865 43.9152 52.6313 43.8569C52.8018 43.8163 52.9726 43.7757 53.1446 43.7439C53.3254 43.7105 53.5178 43.6958 53.7096 43.6813C54.1028 43.6514 54.4937 43.6217 54.7775 43.4307C55.0383 43.2549 55.3276 43.2518 55.6095 43.2488C55.9366 43.2453 56.2537 43.242 56.5044 42.9691C57.7043 42.7562 58.8758 42.4305 60.0464 42.105C60.6723 41.931 61.2979 41.757 61.9276 41.6004C62.766 41.3916 63.5945 41.1527 64.4226 40.9138C65.4669 40.6127 66.5105 40.3117 67.5721 40.0718C68.3851 39.8883 69.1892 39.6692 69.9934 39.4501C70.4154 39.3351 70.8375 39.2201 71.2608 39.1102C71.657 39.0076 72.0616 38.9252 72.4646 38.8431C72.9881 38.7364 73.5089 38.6303 74.0054 38.4813C74.514 38.3284 75.0322 38.2392 75.5493 38.1501C76.1207 38.0517 76.6909 37.9535 77.2458 37.7699C77.4618 37.699 77.6894 37.6839 77.9228 37.6683C78.2024 37.6497 78.4904 37.6304 78.7767 37.5142C79.0267 37.4131 79.3038 37.3945 79.5912 37.3753C79.8675 37.3568 80.1534 37.3377 80.4337 37.2439C80.7874 37.1256 81.186 37.1512 81.5883 37.177C81.8363 37.193 82.0857 37.209 82.327 37.1915C82.6048 37.171 82.881 37.1205 83.157 37.0702C83.4789 37.0114 83.8004 36.9527 84.1234 36.9417C85.0472 36.9196 85.9709 36.9892 86.8809 37.1495C87.5215 37.2545 88.1574 37.3729 88.7929 37.4911C89.1704 37.5614 89.5478 37.6316 89.9259 37.699C91.9711 38.0639 93.7371 39.0303 95.4902 39.9896L95.6304 40.0663C97.5366 41.1095 99.1246 42.5968 100.706 44.0781C100.986 44.3403 101.266 44.6024 101.547 44.8618C101.802 45.0969 102.014 45.3775 102.227 45.6586C102.413 45.9055 102.6 46.1526 102.816 46.3694C104.229 47.7856 105.516 49.3022 106.785 50.8508C107.327 51.512 107.883 52.1627 108.44 52.8138C108.915 53.3693 109.39 53.9251 109.857 54.4879C110.529 55.298 111.251 56.0662 111.974 56.835C112.261 57.1408 112.549 57.4467 112.833 57.7553C113.005 57.9041 113.164 58.0665 113.309 58.2409C114.152 59.5344 115.272 60.5686 116.39 61.6001C116.758 61.9398 117.126 62.2791 117.483 62.6273C118.046 63.1784 118.69 63.6467 119.333 64.1151C119.962 64.5726 120.591 65.0302 121.145 65.565C121.858 66.2543 122.677 66.7988 123.493 67.3423C124.382 67.9337 125.269 68.5239 126.017 69.2981C126.958 69.759 127.837 70.3253 128.716 70.8916C129.514 71.4055 130.311 71.9194 131.156 72.3547C131.465 72.5138 131.762 72.6959 132.059 72.8779C132.377 73.0723 132.695 73.2668 133.026 73.4332C133.482 73.6619 133.938 73.8924 134.393 74.123C136.862 75.3736 139.331 76.6242 141.936 77.5863C142.739 77.8825 143.532 78.2029 144.326 78.5232C144.856 78.7374 145.386 78.9515 145.919 79.1584C146.662 79.4471 147.415 79.7124 148.168 79.9766C148.856 80.1701 149.532 80.4055 150.192 80.6815C150.862 80.9383 151.55 81.1441 152.252 81.2969C153.389 81.6652 154.554 81.945 155.719 82.225C156.37 82.3813 157.022 82.5377 157.668 82.7096C158.899 83.0618 160.151 83.3352 161.417 83.5283C161.563 83.5479 161.705 83.603 161.847 83.6581C161.983 83.711 162.119 83.7638 162.26 83.7856C162.511 83.8247 162.77 83.8434 163.028 83.862C163.521 83.8976 164.011 83.9329 164.445 84.1103C164.903 84.2323 165.371 84.313 165.844 84.3515C166.286 84.5285 166.758 84.6182 167.235 84.6158C167.699 84.553 168.15 84.6575 168.6 84.7621C169.099 84.8779 169.599 84.9938 170.12 84.883C170.469 85.1747 170.869 85.1635 171.269 85.1523C171.44 85.1475 171.611 85.1427 171.778 85.1618C172.023 85.1897 172.266 85.2356 172.51 85.2814C172.818 85.3395 173.127 85.3975 173.438 85.419C174.588 85.4265 175.737 85.5045 176.877 85.6528C178.049 85.8176 179.237 85.827 180.411 85.6808C181.075 85.6299 181.719 85.7272 182.361 85.8242C182.898 85.9053 183.433 85.9862 183.979 85.9805C184.296 85.9772 184.612 85.9731 184.928 85.9691C186.43 85.9498 187.932 85.9305 189.43 85.992C190.337 86.0291 191.232 85.9306 192.127 85.8319C193.003 85.7353 193.881 85.6387 194.771 85.6693C195.043 85.6788 195.317 85.6937 195.59 85.7088C196.779 85.7739 197.979 85.8397 199.163 85.456C199.702 85.3765 200.249 85.3662 200.791 85.4255C200.908 85.4208 201.027 85.4277 201.147 85.4346C201.503 85.4552 201.861 85.4759 202.164 85.1908C202.455 85.5702 202.724 85.4266 203.003 85.2775C203.192 85.1764 203.386 85.0728 203.595 85.1283C204.134 85.2065 204.681 85.2166 205.222 85.1583C205.294 85.1583 205.374 85.1677 205.453 85.1772C205.627 85.1977 205.801 85.2183 205.889 85.1413C206.239 84.8373 206.62 84.8629 207 84.8884C207.189 84.9011 207.378 84.9138 207.563 84.8855C207.746 84.8575 207.931 84.8263 208.115 84.795C208.529 84.7248 208.944 84.6543 209.359 84.6198C210.297 84.5401 211.237 84.4787 212.177 84.4174C212.563 84.3922 212.948 84.367 213.334 84.3405C213.362 84.3386 213.395 84.3404 213.427 84.3421C213.496 84.3458 213.564 84.3495 213.593 84.3176C213.832 84.0501 214.132 84.0736 214.42 84.0962C214.62 84.1119 214.815 84.1272 214.981 84.0438C215.468 83.8523 215.992 83.7672 216.515 83.7941C216.796 83.7751 217.072 83.71 217.348 83.6449C217.797 83.539 218.246 83.433 218.72 83.5258C218.943 83.2612 219.228 83.2602 219.517 83.2592C219.623 83.2589 219.729 83.2585 219.832 83.2451C220.242 83.132 220.66 83.0512 221.082 83.0033C221.438 83.0171 221.624 82.8365 221.816 82.6493C221.868 82.5989 221.92 82.548 221.976 82.5003C222.015 82.4668 222.076 82.4582 222.139 82.4492C222.169 82.445 222.2 82.4406 222.23 82.4333L222.689 82.733C222.849 82.6077 223.03 82.5118 223.223 82.4498C223.403 82.4258 223.588 82.4317 223.772 82.4376C223.953 82.4433 224.133 82.4491 224.31 82.4268C224.508 82.4019 224.703 82.3486 224.897 82.2952C225.073 82.2471 225.248 82.199 225.426 82.1716C225.776 82.1822 226.122 82.097 226.426 81.9253C226.572 81.8206 226.772 81.7973 226.986 81.7722C227.165 81.7514 227.354 81.7293 227.532 81.658C227.943 81.4929 228.387 81.4122 228.832 81.3313C229.23 81.2587 229.63 81.186 230.008 81.0521C230.31 80.9455 230.628 80.8913 230.945 80.8371C231.508 80.741 232.071 80.645 232.54 80.2569C233.28 80.3129 233.941 80.0564 234.603 79.7996C235.057 79.6235 235.511 79.4473 235.992 79.3717C236.414 79.3349 236.821 79.1988 237.18 78.9745C237.562 78.6618 238.036 78.4813 238.529 78.46C238.898 78.3788 239.254 78.2513 239.591 78.0804C239.725 78.0352 239.864 78.0007 240.002 77.9663C240.193 77.9188 240.384 77.8714 240.563 77.7961C240.699 77.7394 240.829 77.6534 240.958 77.5684C241.161 77.4351 241.36 77.3041 241.569 77.2916C241.902 77.2714 242.079 77.098 242.258 76.9218C242.318 76.8625 242.379 76.8028 242.446 76.7486C242.712 77.0058 242.928 76.8718 243.14 76.7406C243.223 76.6888 243.306 76.6375 243.391 76.6107C243.581 76.551 243.764 76.4662 243.947 76.3813C244.108 76.3066 244.269 76.2319 244.435 76.1741C245.086 75.9993 245.726 75.7886 246.354 75.5432C246.723 75.3675 247.072 75.1472 247.421 74.9271C247.792 74.693 248.162 74.4591 248.557 74.2789C248.807 74.1653 249.055 74.05 249.303 73.9345C249.968 73.6255 250.634 73.3162 251.315 73.0406C251.485 72.9722 251.629 72.8397 251.773 72.7075C251.92 72.5723 252.067 72.4374 252.24 72.3712C253.225 71.992 254.17 71.5191 255.064 70.959C255.818 70.491 256.597 70.0599 257.376 69.6328C258.44 69.0822 259.407 68.3621 260.239 67.5007L260.514 67.711C260.543 67.6427 260.565 67.5697 260.585 67.5009C260.624 67.3686 260.659 67.2516 260.734 67.2115C262.914 66.0529 264.757 64.4439 266.593 62.8407C266.848 62.6177 267.103 62.3948 267.359 62.1732C270.196 59.6217 272.809 56.8317 275.169 53.834C276.539 51.984 277.783 50.0441 278.893 48.0274C280.042 46.0226 280.859 43.8851 281.676 41.7461C281.818 41.3753 281.96 41.0045 282.103 40.6343C282.163 40.4805 282.121 40.2875 282.07 40.0541C282.044 39.932 282.015 39.7987 281.997 39.6542C282.209 39.4133 282.371 39.1323 282.474 38.828C282.588 38.3685 282.666 37.9008 282.707 37.4293C282.735 37.0298 282.811 36.6353 282.935 36.2544C282.968 36.1741 282.866 36.0053 282.79 35.879C282.741 35.7978 282.702 35.7342 282.717 35.7229C283.053 35.4629 283.013 35.1251 282.976 34.8071C282.967 34.7322 282.958 34.6583 282.955 34.5869C282.967 33.2106 282.901 31.8347 282.759 30.4658C282.534 29.1227 282.166 27.8077 281.66 26.5434C280.544 23.6784 278.809 21.0952 276.578 18.9785C275.462 17.8178 274.269 16.734 273.007 15.7345C271.72 14.7386 270.375 13.8221 268.977 12.99C268.41 12.6783 267.864 12.3255 267.319 11.9728C266.684 11.5621 266.05 11.1515 265.381 10.8061C263.325 9.74374 261.239 8.74832 259.123 7.81985C257.704 7.19694 256.25 6.63846 254.792 6.09796C253.925 5.78297 253.074 5.42401 252.243 5.02247C251.615 4.71448 250.96 4.46178 250.305 4.20927C250.097 4.12923 249.889 4.04921 249.683 3.96745C248.811 3.66283 247.968 3.28362 247.162 2.83401C246.737 2.57118 246.304 2.32292 245.869 2.07439C244.859 1.49581 243.845 0.915764 242.931 0.147011C241.945 -0.756065 241.055 -1.75789 240.274 -2.8427C239.787 -3.45832 239.504 -4.17059 239.222 -4.88068C238.958 -5.54424 238.695 -6.20589 238.267 -6.78503C238.322 -7.24464 238.159 -7.65334 237.997 -8.05907C237.873 -8.36991 237.75 -8.67902 237.726 -9.00796C237.689 -9.5155 237.569 -10.0082 237.448 -10.5004C237.291 -11.1436 237.134 -11.7858 237.164 -12.4587C236.858 -12.7649 236.876 -13.1296 236.893 -13.4937C236.901 -13.6576 236.909 -13.8215 236.887 -13.9798C236.855 -14.2126 236.81 -14.4438 236.764 -14.6749C236.71 -14.9501 236.656 -15.2252 236.625 -15.5029C236.586 -15.8446 236.56 -16.1885 236.534 -16.5323C236.484 -17.1982 236.433 -17.8634 236.294 -18.5101C236.271 -18.8222 236.21 -19.1304 236.114 -19.4282C236.014 -19.8693 236 -20.3257 236.074 -20.772C236.074 -20.8981 236.088 -21.0326 236.102 -21.1671C236.133 -21.4685 236.164 -21.7701 236.039 -21.9774C235.852 -22.3734 235.77 -22.8105 235.8 -23.2472C235.784 -24.3476 235.677 -25.4448 235.48 -26.5276C235.409 -26.809 235.39 -27.0934 235.371 -27.3724C235.348 -27.7012 235.326 -28.0223 235.222 -28.3215C234.876 -29.3033 234.701 -30.3369 234.704 -31.3776C234.727 -31.7255 234.662 -32.0737 234.516 -32.3902C234.369 -32.6854 234.329 -33.0304 234.288 -33.3784C234.258 -33.6386 234.227 -33.9005 234.152 -34.1445C234.036 -34.5185 233.97 -34.9025 233.904 -35.2871C233.806 -35.8622 233.707 -36.4385 233.441 -36.9839ZM169.444 -68.0361C169.539 -68.096 169.628 -68.152 169.707 -68.1903C169.86 -68.1622 170.013 -68.1172 170.159 -68.0743C170.46 -67.9859 170.731 -67.9063 170.908 -68.0015C171.395 -68.2649 171.885 -68.2498 172.374 -68.2347C172.581 -68.2283 172.788 -68.2219 172.995 -68.2368C173.262 -68.2566 173.53 -68.2771 173.798 -68.2976C174.9 -68.3821 176.003 -68.4666 177.107 -68.502C177.926 -68.5288 178.747 -68.5244 179.567 -68.52C180.155 -68.5168 180.744 -68.5136 181.332 -68.522C181.623 -68.5716 181.907 -68.6554 182.178 -68.7718C182.186 -68.7654 182.198 -68.7519 182.214 -68.7344C182.271 -68.673 182.371 -68.5637 182.481 -68.5525C182.701 -68.529 182.924 -68.5287 183.147 -68.5284C183.375 -68.5281 183.604 -68.5278 183.83 -68.5025C184.009 -68.4828 184.185 -68.4314 184.36 -68.38C184.555 -68.3231 184.749 -68.2664 184.946 -68.2527C185.176 -68.237 185.42 -68.2586 185.662 -68.2799C186.088 -68.3175 186.506 -68.3544 186.825 -68.1873C187.124 -68.0289 187.443 -68.0428 187.735 -68.0556C188.024 -68.0683 188.286 -68.0798 188.477 -67.9221C188.734 -67.7094 189.033 -67.7173 189.321 -67.7249C189.65 -67.7336 189.966 -67.7419 190.195 -67.4225C191.467 -67.3933 192.668 -67.0402 193.87 -66.6868C194.762 -66.4247 195.655 -66.1624 196.577 -66.0318C197.482 -65.8289 198.365 -65.5383 199.213 -65.1641C199.899 -64.9618 200.573 -64.7194 201.23 -64.4383C201.829 -64.1302 202.463 -63.8965 203.118 -63.7424C203.414 -63.68 203.684 -63.5442 203.951 -63.4089C204.329 -63.2183 204.704 -63.0289 205.151 -63.0476C205.878 -62.6564 206.613 -62.2805 207.347 -61.9046C208.866 -61.1269 210.386 -60.3491 211.842 -59.4355C213.142 -58.6194 214.379 -57.7226 215.611 -56.8301L215.849 -56.6575C217.119 -55.668 218.312 -54.5825 219.416 -53.4106C221.129 -51.6259 222.617 -49.6379 223.846 -47.4911C224.203 -46.9021 224.476 -46.2894 224.749 -45.6776C224.903 -45.3336 225.056 -44.9898 225.224 -44.6507C225.676 -43.7489 226.054 -42.8121 226.355 -41.8494L226.38 -41.7688C226.732 -40.6246 227.085 -39.478 227.329 -38.3067C227.365 -38.1352 227.419 -37.9675 227.473 -37.799C227.59 -37.4345 227.708 -37.0667 227.645 -36.6512C227.607 -36.397 227.696 -36.1547 227.786 -35.9093C227.894 -35.6175 228.003 -35.3214 227.9 -34.9957C228.223 -34.2169 228.334 -33.3906 228.445 -32.5642C228.556 -31.7384 228.667 -30.9125 228.989 -30.1338C228.997 -30.1106 228.994 -30.0832 228.991 -30.0552C228.989 -30.0361 228.987 -30.0168 228.989 -29.9984C229.015 -29.6314 229.039 -29.2644 229.064 -28.8973C229.126 -27.9848 229.187 -27.0724 229.267 -26.1615C229.305 -25.7376 229.376 -25.3168 229.447 -24.8959C229.476 -24.7196 229.506 -24.5432 229.534 -24.3666C229.565 -24.1651 229.55 -23.9571 229.535 -23.7488C229.506 -23.3392 229.477 -22.9286 229.797 -22.5643C229.855 -22.4983 229.832 -22.3496 229.812 -22.2244C229.809 -22.2037 229.806 -22.1836 229.803 -22.1647C229.672 -21.2129 229.813 -20.2782 229.954 -19.3455C230.019 -18.9164 230.084 -18.4877 230.122 -18.058C230.248 -16.6373 230.439 -15.2042 230.658 -13.79C230.836 -12.5686 231.113 -11.3636 231.485 -10.1869C231.821 -9.05963 232.221 -7.9528 232.685 -6.87195C232.867 -6.47728 233.043 -6.07697 233.22 -5.67641C233.45 -5.15372 233.68 -4.63061 233.924 -4.11901C234.383 -3.19865 234.953 -2.33858 235.623 -1.5584C236.6 -0.335655 237.665 0.814476 238.809 1.8829C240.175 3.1374 241.695 4.21304 243.332 5.08391C244.869 5.95984 246.449 6.75599 248.068 7.46918C248.776 7.7457 249.468 8.05596 250.162 8.3663C251.269 8.86217 252.377 9.35823 253.547 9.71709C254.312 9.95179 255.043 10.2946 255.775 10.6377C256.378 10.9205 256.981 11.2035 257.605 11.4265C259.956 12.3414 262.246 13.4047 264.462 14.61C267.511 16.2629 270.331 18.3059 272.851 20.6874C273.977 21.8289 274.9 23.1538 275.581 24.6052C275.991 25.5371 276.291 26.5131 276.477 27.514C276.554 27.9154 276.567 28.3213 276.58 28.7218C276.596 29.2029 276.612 29.6764 276.736 30.1251C276.936 30.8488 276.842 31.5458 276.749 32.2419C276.683 32.7344 276.617 33.2265 276.655 33.7272C276.697 34.273 276.507 34.8431 276.321 35.4053C276.26 35.5876 276.2 35.7691 276.148 35.9486C275.79 37.2906 275.348 38.6086 274.825 39.895C273.742 42.4165 272.455 44.8455 270.976 47.1577C270.785 47.4294 270.596 47.7025 270.406 47.9757C269.351 49.4975 268.296 51.0193 266.924 52.2899C266.889 52.3196 266.857 52.3519 266.828 52.3863C266.681 52.5713 266.554 52.7679 266.426 52.9646C266.154 53.3853 265.881 53.8066 265.418 54.1157C264.779 54.6263 264.192 55.1973 263.663 55.8206C263.116 56.4286 262.532 57.0023 261.914 57.5385C261.577 57.8006 261.252 58.0755 260.926 58.3507C260.46 58.7444 259.993 59.1385 259.493 59.4957C259.003 59.8448 258.54 60.2317 258.075 60.6199C257.702 60.9311 257.328 61.2431 256.939 61.5373C255.661 62.5024 254.337 63.401 252.993 64.2453L252.873 64.3207C251.702 65.0568 250.524 65.7973 249.281 66.4407C248.618 66.7833 247.959 67.134 247.301 67.4847C245.877 68.2432 244.453 69.0014 242.985 69.6767C241.842 70.2027 240.688 70.7035 239.534 71.2041C239.032 71.4218 238.53 71.6395 238.03 71.8592C237.632 72.0331 237.224 72.1636 236.817 72.2935C236.384 72.4319 235.953 72.5695 235.539 72.7583C235.261 72.8854 234.964 72.9667 234.667 73.0479C234.148 73.1898 233.629 73.3316 233.211 73.7179C232.588 73.713 232.027 73.9316 231.468 74.1489C231.118 74.2851 230.77 74.4208 230.408 74.5007C229.968 74.598 229.544 74.7487 229.125 74.8978C228.666 75.0611 228.212 75.2225 227.748 75.31C226.901 75.4694 226.07 75.685 225.239 75.9004C224.461 76.1021 223.684 76.3036 222.895 76.4589C222.829 76.4718 222.764 76.4848 222.699 76.4977C222.213 76.594 221.733 76.6891 221.237 76.7516C220.724 76.7882 220.217 76.8795 219.723 77.0239C219.204 77.2143 218.666 77.3014 218.129 77.3887C217.577 77.4781 217.025 77.5676 216.491 77.7687C215.995 77.9553 215.441 77.9851 214.886 78.015C214.598 78.0305 214.31 78.0461 214.029 78.0834C213.742 78.1216 213.457 78.1818 213.173 78.242C212.996 78.2795 212.819 78.317 212.641 78.3491C212.506 78.3739 212.364 78.3632 212.222 78.3525C211.921 78.3299 211.62 78.3073 211.384 78.6174C211.363 78.6448 211.301 78.6378 211.235 78.6305C211.195 78.6261 211.153 78.6216 211.119 78.6244C210.838 78.6483 210.556 78.6714 210.274 78.6945C209.502 78.7577 208.73 78.821 207.962 78.9011C207.742 78.924 207.53 78.9834 207.317 79.043C206.991 79.1344 206.662 79.2263 206.3 79.1888C206.244 79.1829 206.187 79.176 206.13 79.169C205.671 79.1131 205.178 79.053 204.773 79.4346C204.742 79.464 204.678 79.4562 204.612 79.4483C204.575 79.4439 204.539 79.4395 204.507 79.4411C203.98 79.4686 203.452 79.4849 202.924 79.5012C201.712 79.5386 200.501 79.576 199.309 79.7478C198.479 79.8684 197.646 79.8817 196.818 79.895C195.999 79.9081 195.184 79.9211 194.381 80.0376C193.104 80.1893 191.818 80.261 190.532 80.2523C189.231 80.2785 187.93 80.2671 186.629 80.2558L186.579 80.2554C186.116 80.2514 185.66 80.3345 185.205 80.4175C184.571 80.5331 183.937 80.6486 183.285 80.5291C181.661 80.2314 180.026 80.2564 178.392 80.2813C177.197 80.2995 176.003 80.3177 174.815 80.2094C174.34 80.1662 173.861 80.1475 173.384 80.1288C172.62 80.099 171.859 80.0692 171.116 79.9391C170.667 79.8598 170.216 79.8369 169.769 79.8142C169.296 79.7902 168.826 79.7663 168.367 79.6759C168.031 79.6094 167.69 79.5843 167.353 79.5596C166.948 79.5298 166.548 79.5004 166.168 79.4001C165.788 79.2998 165.404 79.2821 165.027 79.2648C164.663 79.248 164.304 79.2315 163.96 79.1409C163.226 78.9477 162.475 78.843 161.725 78.7384C160.694 78.5946 159.664 78.451 158.68 78.0784C157.884 78.2043 157.14 77.9915 156.395 77.7783C155.966 77.6557 155.537 77.533 155.097 77.4744C154.013 77.2931 152.947 77.0182 151.91 76.6527C150.675 76.2585 149.444 75.8538 148.213 75.449C147.285 75.1439 146.356 74.8388 145.427 74.5382C143.986 74.0721 142.587 73.5061 141.191 72.9197C139.247 72.1035 137.381 71.1389 135.517 70.1678C135.004 69.9001 134.503 69.6043 134.003 69.309C133.479 68.9998 132.957 68.6911 132.422 68.4159C131.776 68.0836 131.174 67.6918 130.573 67.3007C130.216 67.0686 129.859 66.8367 129.494 66.6176C128.392 65.9488 127.331 65.2127 126.319 64.4136C125.614 63.8618 124.926 63.2854 124.238 62.7095C123.743 62.2948 123.248 61.8805 122.748 61.4759C121.039 60.0142 119.421 58.4505 117.902 56.7932C117.045 55.9097 116.248 54.9656 115.451 54.021C115.019 53.5087 114.586 52.9962 114.144 52.4932C113.158 51.3718 112.199 50.2159 111.249 49.0629C109.222 46.6077 107.03 44.3163 104.773 42.0789C103.946 41.2586 103.023 40.5589 102.101 39.8597C101.63 39.503 101.16 39.1464 100.703 38.774C98.959 37.4008 97.0435 36.2608 95.0046 35.3832C94.8172 35.2987 94.6296 35.2133 94.4417 35.1276C92.7571 34.3601 91.0449 33.5799 89.1526 33.3925C88.9021 33.1361 88.5803 33.1423 88.2678 33.1484C88.005 33.1535 87.7488 33.1584 87.5472 33.0069C87.2928 32.8161 87.0188 32.8145 86.7391 32.8129C86.4644 32.8113 86.1842 32.8097 85.9118 32.6287C85.689 32.4809 85.3576 32.518 85.0144 32.5565C84.7268 32.5887 84.4309 32.6218 84.1839 32.5478C83.0141 32.269 81.8049 32.1939 80.6096 32.326C80.1534 32.3478 79.6992 32.4032 79.2447 32.4586C78.4691 32.5532 77.6927 32.6479 76.9049 32.5758C76.5535 32.8193 76.1632 32.8219 75.7758 32.8246C75.5521 32.8261 75.3293 32.8276 75.1155 32.8755C74.8688 32.9305 74.617 32.9622 74.3679 32.9935C74.056 33.0327 73.7483 33.0714 73.4601 33.1547C72.7675 33.3528 72.0629 33.4881 71.3578 33.6235C70.6029 33.7684 69.8473 33.9135 69.1051 34.1358C68.4254 34.3394 67.7275 34.5006 67.0283 34.6621C66.5234 34.7787 66.0177 34.8955 65.5178 35.0285C64.9797 35.1721 64.4407 35.3139 63.9015 35.4557C62.9661 35.7017 62.0301 35.9479 61.0974 36.2039L60.7868 36.2892C59.3827 36.6747 57.9779 37.0603 56.5869 37.4897C55.4543 37.8399 54.3112 38.1526 53.1551 38.4148C52.1318 38.7159 51.0913 38.9553 50.0392 39.1317C49.4054 39.2025 48.7836 39.3561 48.1898 39.5888C47.9203 39.6933 47.6483 39.6984 47.3716 39.7036C47.0536 39.7096 46.7295 39.7157 46.3959 39.873C45.9465 40.0849 45.3758 40.1062 44.8166 40.1269C44.6128 40.1345 44.4105 40.142 44.2162 40.1587C43.7425 40.1993 43.2687 40.2498 42.7946 40.3004C41.3604 40.4534 39.9228 40.6068 38.4717 40.4859C37.8827 40.4337 37.2903 40.4337 36.7013 40.4859C34.9621 40.5672 33.2192 40.4514 31.5061 40.1407C30.0344 39.923 28.5778 39.6128 27.1451 39.2121C24.9544 38.5963 22.8367 37.7458 20.8288 36.6755C19.1656 35.8275 17.602 34.8225 16.0384 33.8175C15.3526 33.3767 14.6668 32.9359 13.9727 32.5084C13.738 32.3634 13.5493 32.1463 13.3601 31.9286C13.1854 31.7275 13.0102 31.526 12.7981 31.3804C11.5621 30.5339 10.7321 29.3465 9.90329 28.1608C9.69373 27.861 9.48425 27.5613 9.26829 27.2672C8.60336 26.4374 8.12517 25.4741 7.86628 24.4429C7.72963 24.0466 7.5503 23.6664 7.33146 23.3089C7.33646 22.6089 7.26167 21.9105 7.10854 21.2274C6.92105 20.5797 6.99032 19.8847 7.30197 19.2867C7.43173 19.0662 7.40175 18.7977 7.37065 18.5193C7.33143 18.1682 7.29045 17.8013 7.56588 17.4948C7.88927 14.7519 9.10335 12.3292 10.3449 9.92789C11.2503 8.05522 12.4573 6.34386 13.9177 4.86211C14.0607 4.72375 14.2032 4.58491 14.3456 4.44612C15.5916 3.232 16.8322 2.02303 18.3981 1.19504C18.5589 1.11014 18.6662 0.92482 18.7767 0.734032C18.8288 0.644165 18.8816 0.553085 18.9409 0.470711L19.0909 0.597595C19.8441 0.0102081 20.6389 -0.521858 21.4691 -0.994423C21.9408 -1.22327 22.3789 -1.50362 22.8151 -1.78271C23.2358 -2.05193 23.6547 -2.31997 24.1002 -2.53948C24.8208 -2.89552 25.492 -3.31789 26.1648 -3.74131C26.3519 -3.85911 26.5392 -3.97698 26.7278 -4.09354C27.1054 -4.32693 27.5021 -4.52956 27.8989 -4.7322C28.2918 -4.93292 28.6849 -5.13367 29.0594 -5.36435C30.1511 -6.03423 31.2257 -6.73958 32.2693 -7.48288C32.8884 -7.92409 33.4812 -8.40207 34.074 -8.88009C34.3303 -9.08671 34.5865 -9.29333 34.8449 -9.497C36.6278 -10.9032 38.2933 -12.4388 39.9492 -13.9928C40.2046 -14.2327 40.4758 -14.4603 40.7478 -14.6885C41.1898 -15.0594 41.6337 -15.432 42.015 -15.8616C43.5989 -17.518 44.931 -19.3978 45.9686 -21.4409C46.3573 -22.1585 46.577 -22.9554 46.6109 -23.7707C46.6634 -24.3275 46.7458 -24.8812 46.8578 -25.4292C46.8744 -25.5923 46.8729 -25.7568 46.8715 -25.9213C46.8679 -26.3219 46.8644 -26.7218 47.1217 -27.0976C47.1944 -27.2035 47.1751 -27.3727 47.1558 -27.5417C47.147 -27.619 47.1382 -27.6963 47.1382 -27.7675V-29.6792C47.4552 -29.8976 47.4422 -30.2129 47.4289 -30.5368C47.4165 -30.8375 47.4038 -31.1455 47.6545 -31.3901C47.8 -31.5323 47.7504 -31.8966 47.7062 -32.2208C47.6953 -32.3008 47.6847 -32.3784 47.6775 -32.4496C47.6548 -33.2839 47.7474 -34.1174 47.9529 -34.9263C48.0486 -35.7329 48.2178 -36.5292 48.4582 -37.3051C48.6589 -37.6624 48.5799 -38.1116 48.2693 -38.3791C48.3207 -38.5179 48.4022 -38.6494 48.4839 -38.7814C48.7132 -39.1521 48.9446 -39.5258 48.5192 -40.071C49.0545 -40.2681 49.096 -40.6967 49.1387 -41.1387C49.1617 -41.3757 49.185 -41.6164 49.2849 -41.8274C49.5377 -42.3606 49.6801 -42.9364 49.8229 -43.5139C50.0143 -44.2882 50.2066 -45.0658 50.667 -45.7482C50.6478 -46.6073 51.0028 -47.338 51.3595 -48.0722C51.4484 -48.2551 51.5373 -48.4382 51.6206 -48.6235C51.8363 -49.1032 52.0287 -49.5929 52.2214 -50.0831C52.3971 -50.5302 52.5729 -50.9776 52.7667 -51.4184C53.0957 -52.1661 53.3502 -52.9464 53.6055 -53.7289C53.7167 -54.07 53.8281 -54.4115 53.9458 -54.7508L53.7599 -54.9541C54.0941 -55.461 54.387 -55.9939 54.6356 -56.5477C55.1019 -57.8514 55.6088 -59.1158 56.8013 -60.0064L56.4185 -60.488L56.9953 -61.0649L56.4265 -61.2683C56.4333 -62.0787 56.8161 -62.4949 57.1753 -62.8854C57.2908 -63.011 57.4038 -63.1339 57.5011 -63.2664L57.5742 -63.3655C58.0386 -63.9955 58.5035 -64.6261 58.9951 -65.2351C59.3688 -65.6982 59.7601 -66.1476 60.1513 -66.5969C60.3111 -66.7804 60.4709 -66.9639 60.6295 -67.1483C60.8175 -67.3668 61.026 -67.5659 61.2348 -67.7652C61.6335 -68.1458 62.033 -68.5272 62.2914 -69.0465C62.3658 -69.1952 62.5401 -69.2888 62.7195 -69.3851C62.8607 -69.461 63.0051 -69.5385 63.1062 -69.6459C63.1889 -69.7333 63.2396 -69.8447 63.2908 -69.9575C63.3778 -70.1491 63.4668 -70.3447 63.7185 -70.4337C63.9565 -70.5371 64.1717 -70.6865 64.3517 -70.8733C66.7282 -73.0419 69.2906 -74.9976 72.0096 -76.7179C72.7114 -77.1703 73.4436 -77.5525 74.1736 -77.9334C74.3793 -78.0408 74.5849 -78.1482 74.7896 -78.2569C75.7341 -78.7184 76.7044 -79.1252 77.6956 -79.4753C77.9992 -79.594 78.3129 -79.6864 78.6276 -79.7791C79.1593 -79.9358 79.6938 -80.0932 80.1868 -80.3794C80.4545 -80.5341 80.774 -80.5652 81.1019 -80.5972C81.3817 -80.6244 81.6677 -80.6523 81.9326 -80.7581C82.378 -80.9141 82.8427 -81.0079 83.3137 -81.0368C83.4912 -81.0546 83.6787 -81.0388 83.8643 -81.0231C84.1489 -80.9991 84.4293 -80.9755 84.6632 -81.0738C85.3549 -81.366 86.0538 -81.3435 86.7513 -81.3212C86.9757 -81.314 87.1999 -81.3068 87.4238 -81.3101C89.3296 -81.3792 91.225 -81.0006 92.9578 -80.2046C94.0733 -79.674 95.1279 -79.0242 96.1032 -78.2664C98.6687 -76.3001 100.867 -73.9285 103.052 -71.5715C103.194 -71.4189 103.335 -71.2664 103.477 -71.1141C103.571 -71.0122 103.666 -70.9103 103.761 -70.8084C105.102 -69.3639 106.446 -67.9173 107.875 -66.5683C110.512 -64.0241 113.577 -61.9659 116.931 -60.489C118.757 -59.7094 120.654 -59.1083 122.596 -58.6942C123.031 -58.5999 123.47 -58.5162 123.907 -58.4326C124.44 -58.331 124.971 -58.2295 125.495 -58.1097C126.498 -57.9547 127.512 -57.8782 128.528 -57.8809C128.653 -57.8713 128.776 -57.8298 128.899 -57.7882C129.019 -57.7474 129.14 -57.7065 129.264 -57.6956C129.385 -57.6848 129.512 -57.666 129.641 -57.6471C130.027 -57.5901 130.424 -57.5315 130.698 -57.6836C131.094 -57.8835 131.544 -57.9496 131.981 -57.8719C132.853 -57.7912 133.71 -57.8966 134.567 -58.0019C135.211 -58.081 135.855 -58.1601 136.504 -58.1601C136.909 -58.3839 137.366 -58.4251 137.822 -58.4663C138.393 -58.5178 138.964 -58.5693 139.436 -58.9779C140.131 -58.8878 140.778 -59.0768 141.427 -59.2667C141.861 -59.3938 142.297 -59.5212 142.75 -59.5658C143.704 -59.735 144.632 -60.0284 145.51 -60.4385C146.177 -60.6933 146.847 -60.9406 147.518 -61.1879C149.288 -61.8411 151.06 -62.4945 152.781 -63.2859C153.382 -63.5619 154.01 -63.7994 154.638 -64.0372C154.916 -64.1424 155.194 -64.2477 155.47 -64.3564C155.873 -64.5151 156.277 -64.6726 156.68 -64.83C157.176 -65.0238 157.673 -65.2177 158.169 -65.4139C158.871 -65.6919 159.609 -65.8816 160.347 -66.0713C160.677 -66.1559 161.007 -66.2406 161.333 -66.333C161.875 -66.4882 162.423 -66.6205 162.971 -66.7528C163.37 -66.8492 163.769 -66.9456 164.166 -67.0509C164.572 -67.1581 164.992 -67.2122 165.415 -67.2665C165.723 -67.306 166.032 -67.3457 166.336 -67.406C167.1 -67.606 167.885 -67.7142 168.675 -67.7282C168.939 -67.7179 169.21 -67.8888 169.444 -68.0361Z" fill="#9EAD8D"/>
</svg>
