<svg width="859" height="1022" viewBox="0 0 859 1022" fill="none" xmlns="http://www.w3.org/2000/svg">
<path fill-rule="evenodd" clip-rule="evenodd" d="M338.746 -138.81C337.379 -139.348 336.011 -139.887 334.791 -140.756C336.702 -140.101 338.537 -139.242 340.263 -138.193C339.762 -138.41 339.254 -138.61 338.746 -138.81ZM334.756 -140.775L334.15 -141.25C338.573 -139.649 342.789 -137.527 346.71 -134.93C352.235 -131.2 357.181 -126.676 361.388 -121.504C365.499 -116.431 369.247 -111.075 372.605 -105.475C377.57 -97.3386 382.636 -89.2714 388.451 -81.6979C393.198 -75.4302 399.136 -70.1633 405.924 -66.1991C408.625 -64.6309 411.349 -63.1098 414.232 -61.7148C413.907 -61.4997 413.683 -61.6119 413.43 -61.7385C413.238 -61.835 413.029 -61.9399 412.745 -61.9148C413.022 -61.786 413.284 -61.6311 413.533 -61.4846C414.048 -61.1807 414.503 -60.9128 414.891 -60.9883C415.536 -61.1717 416.23 -60.9889 416.702 -60.5112C417.62 -59.2909 418.925 -58.8417 420.224 -58.3944C420.816 -58.1908 421.406 -57.9875 421.958 -57.7121C422.633 -57.375 423.376 -57.2088 424.123 -57.0414C424.924 -56.8621 425.731 -56.6813 426.47 -56.2875C427.059 -55.9735 427.668 -55.7057 428.277 -55.4376C429.548 -54.8791 430.819 -54.3199 431.908 -53.3419C432.629 -52.6955 433.822 -52.4648 434.923 -52.2724C435.941 -52.0943 437.151 -51.6284 437.766 -50.8725C438.404 -50.0878 439.24 -49.7085 440.074 -49.3303L440.074 -49.3302C440.591 -49.0955 441.107 -48.8613 441.575 -48.5309C444.585 -46.4511 447.467 -44.1927 450.206 -41.7678C454.04 -38.2396 457.493 -34.3176 460.507 -30.0665C465.587 -23.0539 467.272 -15.1102 466.93 -6.63225C466.587 1.8603 463.394 9.02687 456.81 14.5783L456.68 14.6881C453.257 17.5754 449.834 20.4622 446.167 23.0359C443.804 24.7233 441.231 26.0943 438.513 27.1141C436.259 27.9407 434.401 29.3683 432.545 30.7944L432.543 30.7959C432.396 30.9088 432.249 31.0216 432.102 31.1341C426.81 35.1842 421.186 38.6335 414.858 40.8178C408.469 43.0225 401.861 43.6876 395.152 43.3789C386.23 42.9689 377.753 40.5789 369.38 37.623L368.886 37.4486L368.886 37.4486C357.005 33.2529 345.111 29.053 332.587 27.0966C323.638 25.6987 314.661 25.0591 305.629 26.3576C301.633 26.9322 297.932 28.3687 294.267 30.0029C291.948 31.0373 289.65 32.1222 287.353 33.2072C283.253 35.1435 279.154 37.0797 274.926 38.7281C270.189 40.5755 265.395 42.2801 260.349 43.0834C251.507 44.4916 242.639 44.7738 233.864 42.7998C224.461 40.6843 215.752 37.0292 208.729 30.1266C202.045 23.5569 197.709 15.8561 197.664 6.22738C197.641 0.961672 199.167 -3.99872 201.348 -8.73792C203.316 -13.0162 205.492 -17.1906 207.669 -21.3654L207.669 -21.3657L207.669 -21.3659L207.669 -21.3661L207.67 -21.3663L207.67 -21.3665L207.67 -21.3667L207.67 -21.367L207.67 -21.3672L207.67 -21.3674C209.921 -25.684 212.172 -30.0011 214.193 -34.4337C214.657 -35.4527 215.129 -36.4687 215.6 -37.4847C217.862 -42.3597 220.124 -47.2334 221.612 -52.4268C223.81 -60.0932 223.515 -67.7531 221.597 -75.4236C220.788 -78.6678 219.884 -81.8858 218.98 -85.1039L218.979 -85.1077C218.447 -87.0023 217.915 -88.8969 217.402 -90.7969C215.742 -96.9474 214.457 -103.162 214.439 -109.579C214.406 -120.855 219.357 -129.551 228.232 -136.195C233.423 -140.026 239.162 -143.05 245.254 -145.165C247.459 -145.953 249.704 -146.591 251.942 -147.227C252.333 -147.338 252.723 -147.449 253.113 -147.561C255.516 -148.25 257.981 -148.698 260.472 -148.899C261.506 -148.981 262.528 -149.178 263.555 -149.375L263.555 -149.375L263.555 -149.375C264.504 -149.558 265.456 -149.741 266.424 -149.835C273.72 -150.572 281.056 -150.821 288.385 -150.58C292.779 -150.421 297.142 -149.946 301.495 -149.438C304.976 -149.032 308.437 -148.42 311.886 -147.666C312.727 -147.482 313.571 -147.304 314.417 -147.126C316.429 -146.703 318.446 -146.278 320.435 -145.765C321.221 -145.563 321.963 -145.213 322.711 -144.861C323.402 -144.535 324.098 -144.207 324.839 -143.991C327.923 -143.144 330.94 -142.07 333.866 -140.779C334.155 -140.644 334.458 -140.533 334.756 -140.775ZM218.18 30.3367L218.145 30.5304C218.507 30.7215 218.866 30.9204 219.226 31.1192C220.014 31.5554 220.802 31.9917 221.625 32.3471C221.926 32.4769 222.227 32.6075 222.527 32.738C226.126 34.3019 229.712 35.8605 233.786 35.9969C234.307 36.0142 234.836 36.1616 235.377 36.3124C236.038 36.4965 236.717 36.6858 237.423 36.6497C238.296 36.6049 239.143 36.7486 239.998 36.8937C240.866 37.0411 241.743 37.1898 242.663 37.1439C245.477 37.0039 248.323 36.9471 251.149 37.0339C252.405 37.0726 253.624 36.89 254.841 36.7077L254.841 36.7077L254.841 36.7077C255.44 36.6179 256.039 36.5283 256.641 36.4652C258.074 36.2376 259.493 35.9311 260.893 35.547C263.525 34.9874 266.106 34.2065 268.608 33.2126C271.127 32.1907 273.617 31.0596 276.085 29.8974C277.046 29.4447 278.001 28.9754 278.956 28.5061C280.419 27.787 281.883 27.0677 283.371 26.4076C286.267 25.148 289.079 23.702 291.789 22.0788C292.493 21.6501 293.245 21.3868 293.997 21.1233L293.997 21.1233C294.68 20.884 295.364 20.6446 296.013 20.2808C297.165 19.5612 298.399 18.9811 299.687 18.5529C302.041 17.8776 304.442 17.3792 306.869 17.0619C314.994 16.0605 323.084 16.529 331.138 17.7661C331.521 17.8249 331.905 17.8796 332.29 17.9344L332.29 17.9344L332.29 17.9344L332.29 17.9345L332.29 17.9345L332.29 17.9345L332.29 17.9346L332.29 17.9346L332.291 17.9346C334.399 18.2351 336.517 18.537 338.474 19.514C339.177 19.914 339.954 20.168 340.757 20.2607C342.282 20.3458 343.784 20.6686 345.209 21.2176C346.867 21.835 348.561 22.3278 350.257 22.821L350.257 22.821C351.64 23.2233 353.023 23.6257 354.389 24.0962C359.31 25.7909 364.213 27.5284 369.02 29.5095C370.361 30.0618 371.731 30.5252 373.101 30.9889L373.101 30.989L373.101 30.989L373.101 30.989L373.101 30.9891L373.101 30.9891L373.101 30.9891L373.101 30.9891L373.101 30.9892L373.101 30.9892C374.722 31.5376 376.344 32.0863 377.918 32.7823C379.247 33.3691 380.721 33.6303 382.193 33.8911C382.781 33.9952 383.369 34.0992 383.946 34.2239C393.515 36.2905 403.032 36.4509 412.36 33.0593C412.904 32.8614 413.435 32.8789 413.958 32.8962C414.572 32.9165 415.175 32.9365 415.776 32.6075C420.789 29.8636 425.838 27.189 431 24.7274C434.55 23.034 437.604 20.6183 440.658 18.2022C442.269 16.9271 443.881 15.652 445.566 14.4828L445.65 14.4244L445.726 14.3718L445.727 14.3711C446.559 13.7908 446.603 13.7597 447.889 13.7854C447.99 13.7873 448.096 13.6818 448.198 13.5803C448.236 13.5424 448.273 13.5051 448.31 13.4741C449.196 12.7224 450.103 11.9955 451.01 11.2687C452.865 9.78247 454.72 8.29643 456.391 6.59882C456.646 6.33997 456.905 6.08382 457.164 5.8275C458.487 4.51757 459.815 3.20264 460.643 1.49556C464.09 -5.61438 463.808 -12.7307 460.493 -19.7715C458.624 -23.7408 455.939 -27.1811 453.097 -30.4938C447.285 -37.3099 440.094 -42.8147 431.999 -46.6453C428.736 -48.1964 425.431 -49.6541 422.125 -51.112C417.186 -53.2906 412.246 -55.4694 407.444 -57.9606C399.59 -61.9593 392.618 -67.4922 386.938 -74.233C380.07 -82.4285 374.347 -91.4158 368.697 -100.458C364.823 -106.657 360.734 -112.707 355.799 -118.126C348.856 -125.748 340.436 -131.139 330.8 -134.741C324.987 -136.926 319.031 -138.709 312.973 -140.076C296.363 -143.795 279.572 -145.093 262.582 -143.463C254.833 -142.719 247.286 -141.199 240.165 -137.923C235.363 -135.712 230.759 -133.192 226.837 -129.576C224.537 -127.454 222.593 -125.079 221.676 -122.019C220.547 -118.27 220.101 -114.349 220.362 -110.443C220.83 -103.353 222.764 -96.5824 224.699 -89.8097C224.934 -88.9858 225.17 -88.162 225.402 -87.3375C227.507 -79.8808 229.486 -72.4288 228.953 -64.5113C228.687 -59.9883 227.773 -55.5263 226.241 -51.2615C222.395 -40.7672 217.082 -30.9695 211.772 -21.1761L211.772 -21.1754L211.145 -20.0186C210.427 -18.694 209.676 -17.3865 208.925 -16.079L208.925 -16.0787C207.011 -12.7439 205.096 -9.40941 203.726 -5.79038C202.447 -2.41222 201.541 1.03779 201.648 4.68756C201.926 11.1274 204.445 17.2649 208.77 22.0375C208.905 22.1582 209.015 22.3034 209.096 22.4656C209.744 24.2266 211.191 25.1716 212.64 26.1186L212.641 26.119C212.785 26.2129 212.928 26.3069 213.071 26.4016C213.171 26.4678 213.282 26.5326 213.394 26.5984C213.745 26.8036 214.111 27.0182 214.214 27.3145C214.485 28.0893 215.115 28.3793 215.757 28.6748C216.278 28.9144 216.806 29.1575 217.157 29.6655C217.347 29.9415 217.82 30.1154 218.334 30.3043C218.749 30.4568 219.19 30.619 219.531 30.8525L218.18 30.3367ZM409.097 -58.5915C404.605 -60.818 400.397 -63.5764 396.563 -66.8074C401.145 -63.4968 406.013 -60.6025 411.11 -58.1589C415.419 -56.0371 419.817 -54.1137 424.215 -52.1902C426.357 -51.2534 428.499 -50.3166 430.631 -49.3568C432.731 -48.456 434.749 -47.3726 436.66 -46.1192C435.945 -45.9587 435.489 -46.3125 435.047 -46.6564C434.831 -46.8242 434.618 -46.9897 434.379 -47.0917C432.843 -47.7489 431.322 -48.4407 429.801 -49.1324C428.365 -49.7852 426.929 -50.4379 425.482 -51.0613C419.96 -53.4407 414.466 -55.8816 409.097 -58.5915ZM219.419 36.0578C214.613 33.2032 210.232 29.6875 206.403 25.6134C209.794 30.1364 214.271 33.7287 219.419 36.0578ZM331.524 24.6324C325.219 23.3022 318.749 22.9218 312.329 23.5036C318.749 23.5246 325.141 23.987 331.524 24.6324ZM401.652 41.3775C407.398 41.0525 413.025 40.2104 418.165 37.38C412.831 39.34 407.291 40.6813 401.652 41.3775ZM350.411 -125.457L350.411 -125.457C346.071 -128.663 341.732 -131.87 336.729 -134.035C342.399 -131.94 347.555 -128.654 351.849 -124.397C351.373 -124.746 350.899 -125.097 350.424 -125.448L350.411 -125.457ZM226.633 39.4797C226.588 39.2993 226.561 39.1679 226.541 39.0748C226.514 38.942 226.503 38.8869 226.476 38.878C224.484 38.2675 222.563 37.4471 220.745 36.4306C220.673 36.373 220.581 36.3475 220.49 36.3601C220.399 36.3727 220.317 36.4223 220.263 36.4972C220.09 36.7592 220.275 36.938 220.483 37.0218C222.026 37.6464 223.573 38.2619 225.22 38.9171L225.222 38.918L225.225 38.9191C225.686 39.1025 226.155 39.289 226.633 39.4797ZM314.433 17.3584C311.975 17.1248 309.496 17.2725 307.083 17.7963L314.433 17.3584ZM420.596 -57.3822C418.599 -58.7881 417.468 -59.0724 416.619 -58.222C417.626 -58.8822 418.265 -58.4481 418.934 -57.9935C419.421 -57.6627 419.923 -57.3211 420.596 -57.3822ZM425.142 -56.4418L425.242 -56.5827L430.079 -54.3274L430.007 -54.1734L425.142 -56.4418Z" fill="#9EAD8D"/>
<path fill-rule="evenodd" clip-rule="evenodd" d="M182.746 757.471C181.379 756.933 180.011 756.394 178.791 755.525C180.702 756.18 182.537 757.039 184.263 758.088C183.762 757.871 183.254 757.671 182.746 757.471ZM178.756 755.506L178.15 755.031C182.573 756.632 186.789 758.754 190.71 761.352C196.235 765.081 201.181 769.605 205.388 774.777C209.499 779.85 213.247 785.206 216.605 790.806C221.57 798.943 226.636 807.01 232.451 814.583C237.198 820.851 243.136 826.118 249.924 830.082C252.625 831.65 255.349 833.171 258.232 834.566C257.907 834.782 257.683 834.669 257.43 834.543C257.238 834.446 257.029 834.341 256.745 834.366C257.022 834.495 257.284 834.65 257.533 834.797C258.048 835.101 258.503 835.368 258.891 835.293C259.536 835.109 260.23 835.292 260.702 835.77C261.62 836.99 262.925 837.44 264.224 837.887C264.816 838.09 265.406 838.294 265.958 838.569C266.633 838.906 267.376 839.072 268.123 839.24C268.924 839.419 269.731 839.6 270.47 839.994C271.059 840.308 271.668 840.576 272.277 840.844C273.548 841.402 274.819 841.961 275.908 842.939C276.629 843.586 277.822 843.816 278.923 844.009C279.941 844.187 281.151 844.653 281.766 845.409C282.404 846.193 283.24 846.573 284.074 846.951L284.074 846.951C284.591 847.186 285.107 847.42 285.575 847.75C288.585 849.83 291.467 852.089 294.206 854.513C298.04 858.042 301.493 861.964 304.507 866.215C309.587 873.227 311.272 881.171 310.93 889.649C310.587 898.141 307.394 905.308 300.81 910.859L300.68 910.969C297.257 913.857 293.834 916.743 290.167 919.317C287.804 921.004 285.231 922.376 282.513 923.395C280.259 924.222 278.401 925.649 276.545 927.076L276.543 927.077C276.396 927.19 276.249 927.303 276.102 927.415C270.81 931.465 265.186 934.915 258.858 937.099C252.469 939.304 245.861 939.969 239.152 939.66C230.23 939.25 221.753 936.86 213.38 933.904L212.886 933.73L212.886 933.73C201.005 929.534 189.111 925.334 176.587 923.378C167.638 921.98 158.661 921.34 149.629 922.639C145.633 923.213 141.932 924.65 138.267 926.284C135.948 927.318 133.65 928.403 131.353 929.488C127.253 931.425 123.154 933.361 118.926 935.009C114.189 936.857 109.395 938.561 104.349 939.365C95.5071 940.773 86.6391 941.055 77.8644 939.081C68.4612 936.966 59.7524 933.31 52.7291 926.408C46.0451 919.838 41.7086 912.137 41.6641 902.509C41.6413 897.243 43.1674 892.282 45.3476 887.543C47.3156 883.265 49.4923 879.091 51.6692 874.916L51.6693 874.916L51.6694 874.915L51.6695 874.915L51.6696 874.915L51.6697 874.915L51.6698 874.914L51.6699 874.914L51.67 874.914L51.6701 874.914C53.9209 870.597 56.1719 866.28 58.1927 861.847C58.6572 860.828 59.1287 859.812 59.6002 858.796C61.8625 853.922 64.1242 849.048 65.6121 843.854C67.8103 836.188 67.5151 828.528 65.597 820.858C64.7879 817.613 63.884 814.395 62.9801 811.177L62.979 811.174C62.4468 809.279 61.9147 807.384 61.4019 805.484C59.742 799.334 58.4574 793.119 58.4389 786.702C58.4063 775.426 63.3567 766.73 72.232 760.086C77.423 756.255 83.1618 753.231 89.254 751.116C91.4593 750.328 93.704 749.69 95.9423 749.054C96.3326 748.943 96.7228 748.832 97.1126 748.721C99.5156 748.031 101.981 747.583 104.472 747.383C105.506 747.3 106.528 747.104 107.555 746.906L107.555 746.906L107.555 746.906C108.504 746.724 109.456 746.541 110.424 746.446C117.72 745.71 125.056 745.461 132.385 745.701C136.779 745.86 141.142 746.335 145.495 746.843C148.976 747.249 152.437 747.861 155.886 748.615C156.727 748.799 157.571 748.977 158.417 749.155C160.429 749.579 162.446 750.003 164.435 750.516C165.221 750.719 165.963 751.068 166.711 751.42C167.402 751.746 168.098 752.074 168.839 752.29C171.923 753.138 174.94 754.211 177.866 755.502C178.155 755.638 178.458 755.748 178.756 755.506ZM62.1798 926.618L62.1446 926.812C62.5071 927.003 62.8664 927.202 63.2257 927.4C64.014 927.837 64.8023 928.273 65.6254 928.628C65.9263 928.758 66.2268 928.889 66.5272 929.019C70.1256 930.583 73.7121 932.142 77.7858 932.278C78.3069 932.295 78.8358 932.443 79.3771 932.594C80.0379 932.778 80.7172 932.967 81.4233 932.931C82.296 932.886 83.143 933.03 83.998 933.175C84.8662 933.322 85.7427 933.471 86.6625 933.425C89.4775 933.285 92.323 933.228 95.149 933.315C96.4047 933.354 97.6239 933.171 98.8408 932.989L98.841 932.989L98.8413 932.989C99.4404 932.899 100.039 932.809 100.641 932.746C102.074 932.519 103.493 932.212 104.893 931.828C107.525 931.269 110.106 930.488 112.608 929.494C115.127 928.472 117.617 927.341 120.085 926.179C121.046 925.726 122.001 925.257 122.956 924.787C124.419 924.068 125.883 923.349 127.371 922.689C130.267 921.429 133.079 919.983 135.789 918.36C136.493 917.931 137.245 917.668 137.997 917.405L137.997 917.404C138.68 917.165 139.364 916.926 140.013 916.562C141.165 915.842 142.399 915.262 143.687 914.834C146.041 914.159 148.442 913.66 150.869 913.343C158.994 912.342 167.084 912.81 175.138 914.047C175.521 914.106 175.905 914.161 176.29 914.216L176.29 914.216L176.29 914.216L176.29 914.216L176.29 914.216L176.29 914.216L176.29 914.216L176.29 914.216L176.291 914.216C178.399 914.516 180.517 914.818 182.474 915.795C183.177 916.195 183.954 916.449 184.757 916.542C186.282 916.627 187.784 916.95 189.209 917.499C190.867 918.116 192.561 918.609 194.257 919.102L194.257 919.102C195.64 919.504 197.023 919.907 198.389 920.377C203.31 922.072 208.213 923.81 213.02 925.791C214.361 926.343 215.731 926.806 217.101 927.27L217.101 927.27L217.101 927.27L217.101 927.27L217.101 927.27L217.101 927.27L217.101 927.27L217.101 927.27L217.101 927.27L217.101 927.27C218.722 927.819 220.344 928.367 221.918 929.063C223.247 929.65 224.721 929.911 226.193 930.172C226.781 930.276 227.369 930.38 227.946 930.505C237.515 932.572 247.032 932.732 256.36 929.34C256.904 929.143 257.435 929.16 257.958 929.177C258.572 929.198 259.175 929.218 259.776 928.889C264.789 926.145 269.838 923.47 275 921.009C278.55 919.315 281.604 916.899 284.658 914.483C286.269 913.208 287.881 911.933 289.566 910.764L289.65 910.706L289.726 910.653L289.727 910.652C290.559 910.072 290.603 910.041 291.889 910.067C291.99 910.068 292.096 909.963 292.198 909.861C292.236 909.824 292.273 909.786 292.31 909.755C293.196 909.004 294.103 908.277 295.01 907.55C296.865 906.064 298.72 904.578 300.391 902.88C300.646 902.621 300.905 902.365 301.164 902.109C302.487 900.799 303.815 899.484 304.643 897.777C308.09 890.667 307.808 883.55 304.493 876.51C302.624 872.54 299.939 869.1 297.097 865.787C291.285 858.971 284.094 853.467 275.999 849.636C272.736 848.085 269.431 846.627 266.125 845.169C261.186 842.991 256.246 840.812 251.444 838.321C243.59 834.322 236.618 828.789 230.938 822.048C224.07 813.853 218.347 804.865 212.697 795.823C208.823 789.624 204.734 783.574 199.799 778.155C192.856 770.533 184.436 765.142 174.8 761.54C168.987 759.355 163.031 757.573 156.973 756.205C140.363 752.486 123.572 751.188 106.582 752.818C98.8333 753.562 91.2865 755.082 84.1646 758.358C79.363 760.569 74.759 763.089 70.8375 766.706C68.5368 768.828 66.5928 771.202 65.6763 774.263C64.5466 778.011 64.1014 781.932 64.3623 785.838C64.8301 792.928 66.7643 799.699 68.699 806.472C68.9343 807.295 69.1697 808.119 69.4024 808.944C71.5066 816.4 73.4859 823.852 72.9533 831.77C72.6868 836.293 71.7733 840.755 70.241 845.02C66.3949 855.514 61.0823 865.312 55.7721 875.105L55.7717 875.106L55.1446 876.263C54.4267 877.587 53.6761 878.895 52.9254 880.202L52.9252 880.203C51.0108 883.537 49.0964 886.872 47.7257 890.491C46.4467 893.869 45.5406 897.319 45.6483 900.969C45.9264 907.409 48.4455 913.546 52.7695 918.319C52.9046 918.439 53.0155 918.585 53.0963 918.747C53.7444 920.508 55.1909 921.453 56.6402 922.4L56.6409 922.4C56.7846 922.494 56.9284 922.588 57.0714 922.683C57.1712 922.749 57.2819 922.814 57.3941 922.88C57.7445 923.085 58.1108 923.299 58.2142 923.596C58.4846 924.37 59.1149 924.66 59.757 924.956C60.2776 925.196 60.806 925.439 61.1568 925.947C61.3474 926.223 61.8205 926.397 62.3342 926.586C62.7489 926.738 63.1901 926.9 63.5308 927.134L62.1798 926.618ZM253.097 837.69C248.605 835.463 244.397 832.705 240.563 829.474C245.145 832.784 250.013 835.679 255.11 838.122C259.419 840.244 263.817 842.168 268.215 844.091C270.357 845.028 272.499 845.965 274.631 846.924C276.731 847.825 278.749 848.909 280.66 850.162C279.945 850.323 279.489 849.969 279.047 849.625C278.831 849.457 278.618 849.291 278.379 849.189C276.843 848.532 275.322 847.841 273.801 847.149C272.365 846.496 270.929 845.843 269.482 845.22C263.96 842.84 258.466 840.4 253.097 837.69ZM63.4192 932.339C58.6133 929.484 54.2319 925.969 50.4032 921.895C53.7938 926.418 58.2706 930.01 63.4192 932.339ZM175.524 920.914C169.219 919.583 162.749 919.203 156.329 919.785C162.749 919.806 169.141 920.268 175.524 920.914ZM245.652 937.659C251.398 937.334 257.025 936.492 262.165 933.661C256.831 935.621 251.291 936.962 245.652 937.659ZM194.411 770.824L194.411 770.824C190.071 767.618 185.732 764.412 180.729 762.246C186.399 764.341 191.555 767.627 195.849 771.884C195.373 771.535 194.899 771.184 194.424 770.834L194.411 770.824ZM70.6333 935.761C70.5876 935.58 70.5605 935.449 70.5414 935.356C70.514 935.223 70.5026 935.168 70.476 935.159C68.4843 934.549 66.5632 933.728 64.745 932.712C64.6733 932.654 64.5811 932.629 64.49 932.641C64.3989 932.654 64.317 932.704 64.2634 932.778C64.0895 933.04 64.2755 933.219 64.4825 933.303C66.0259 933.928 67.5731 934.543 69.2199 935.198L69.2221 935.199L69.225 935.2C69.6859 935.384 70.1546 935.57 70.6333 935.761ZM158.433 913.64C155.975 913.406 153.496 913.554 151.083 914.078L158.433 913.64ZM264.596 838.899C262.599 837.493 261.468 837.209 260.619 838.059C261.626 837.399 262.265 837.833 262.934 838.288C263.421 838.618 263.923 838.96 264.596 838.899ZM269.142 839.839L269.242 839.698L274.079 841.954L274.007 842.108L269.142 839.839Z" fill="#9EAD8D"/>
<path fill-rule="evenodd" clip-rule="evenodd" d="M1002.28 503.152C1002.8 501.775 1003.31 500.398 1004.16 499.163C1003.54 501.086 1002.71 502.935 1001.69 504.679C1001.9 504.175 1002.09 503.664 1002.28 503.152ZM1004.18 499.128L1004.64 498.515C1003.12 502.964 1001.07 507.217 998.54 511.183C994.907 516.772 990.47 521.796 985.372 526.093C980.372 530.291 975.082 534.132 969.541 537.588C961.493 542.694 953.516 547.9 946.045 553.846C939.861 558.702 934.698 564.731 930.853 571.587C929.332 574.315 927.859 577.065 926.515 579.972C926.294 579.651 926.402 579.425 926.524 579.17C926.617 578.976 926.719 578.765 926.689 578.482C926.565 578.761 926.414 579.026 926.272 579.277C925.977 579.798 925.717 580.257 925.8 580.643C925.994 581.286 925.824 581.983 925.354 582.462C924.15 583.402 923.724 584.714 923.299 586.021C923.106 586.616 922.913 587.21 922.647 587.767C922.322 588.448 922.169 589.193 922.015 589.943C921.849 590.747 921.683 591.557 921.302 592.303C920.998 592.897 920.741 593.511 920.484 594.125C919.947 595.405 919.41 596.686 918.451 597.792C917.818 598.523 917.608 599.721 917.435 600.825C917.274 601.846 916.83 603.064 916.085 603.691C915.311 604.343 914.947 605.186 914.583 606.026L914.583 606.026C914.357 606.547 914.132 607.068 913.81 607.541C911.783 610.586 909.575 613.508 907.199 616.289C903.738 620.184 899.877 623.704 895.679 626.793C888.756 631.994 880.843 633.817 872.36 633.624C863.863 633.428 856.642 630.361 850.976 623.875L850.864 623.747C847.918 620.375 844.972 617.003 842.334 613.382C840.606 611.048 839.19 608.499 838.123 605.8C837.257 603.561 835.797 601.728 834.339 599.897L834.338 599.895C834.222 599.75 834.107 599.605 833.992 599.46C829.85 594.239 826.303 588.676 824.009 582.388C821.693 576.038 820.912 569.442 821.104 562.729C821.358 553.801 823.6 545.284 826.409 536.861L826.575 536.364L826.575 536.364C830.563 524.411 834.554 512.446 836.292 499.889C837.533 490.917 838.016 481.93 836.56 472.923C835.916 468.937 834.415 465.262 832.717 461.626C831.643 459.325 830.518 457.047 829.393 454.769C827.385 450.704 825.378 446.638 823.656 442.441C821.726 437.736 819.938 432.973 819.047 427.942C817.484 419.125 817.048 410.264 818.868 401.456C820.819 392.017 824.322 383.246 831.101 376.103C837.553 369.306 845.177 364.835 854.803 364.623C860.068 364.508 865.054 365.947 869.83 368.045C874.142 369.938 878.354 372.041 882.566 374.145L882.567 374.145L882.567 374.145L882.567 374.145L882.567 374.145L882.567 374.145L882.568 374.145L882.568 374.145L882.568 374.146L882.568 374.146C886.924 376.321 891.279 378.496 895.747 380.439C896.773 380.886 897.798 381.34 898.822 381.793C903.735 383.97 908.648 386.146 913.866 387.544C921.57 389.608 929.224 389.179 936.859 387.127C940.089 386.261 943.291 385.302 946.493 384.342L946.496 384.34C948.381 383.775 950.266 383.21 952.157 382.664C958.278 380.897 964.469 379.504 970.885 379.374C982.158 379.145 990.939 383.942 997.738 392.7C1001.66 397.824 1004.78 403.509 1007 409.563C1007.83 411.755 1008.51 413.988 1009.18 416.215C1009.3 416.603 1009.42 416.991 1009.54 417.379C1010.27 419.77 1010.76 422.227 1011 424.714C1011.1 425.746 1011.32 426.765 1011.53 427.788L1011.53 427.788L1011.53 427.788C1011.73 428.733 1011.93 429.682 1012.04 430.648C1012.91 437.93 1013.28 445.261 1013.17 452.593C1013.09 456.99 1012.69 461.36 1012.26 465.721C1011.91 469.209 1011.36 472.68 1010.67 476.141C1010.5 476.985 1010.33 477.833 1010.17 478.681C1009.78 480.701 1009.39 482.725 1008.92 484.722C1008.73 485.512 1008.39 486.26 1008.05 487.014C1007.74 487.71 1007.42 488.412 1007.22 489.157C1006.42 492.255 1005.4 495.29 1004.16 498.238C1004.03 498.53 1003.93 498.835 1004.18 499.128ZM831.056 385.556L830.861 385.524C830.677 385.89 830.484 386.253 830.291 386.616C829.869 387.411 829.447 388.207 829.106 389.036C828.981 389.339 828.856 389.642 828.73 389.945C827.23 393.57 825.734 397.183 825.669 401.259C825.66 401.78 825.522 402.311 825.381 402.855C825.208 403.519 825.031 404.202 825.079 404.907C825.139 405.779 825.01 406.628 824.88 407.485C824.748 408.356 824.615 409.235 824.677 410.154C824.866 412.966 824.972 415.81 824.935 418.637C824.918 419.893 825.122 421.109 825.325 422.323L825.325 422.323L825.325 422.323C825.426 422.921 825.526 423.518 825.599 424.118C825.852 425.547 826.183 426.961 826.592 428.353C827.197 430.976 828.023 433.543 829.06 436.027C830.126 438.528 831.3 440.998 832.505 443.445C832.975 444.398 833.461 445.345 833.947 446.291C834.691 447.742 835.436 449.192 836.122 450.669C837.432 453.543 838.927 456.329 840.597 459.01C841.038 459.706 841.314 460.453 841.591 461.201L841.591 461.201C841.842 461.88 842.093 462.56 842.468 463.202C843.208 464.342 843.809 465.565 844.26 466.846C844.976 469.187 845.517 471.579 845.876 474C847.019 482.106 846.692 490.203 845.596 498.278C845.544 498.662 845.496 499.047 845.447 499.432L845.447 499.432L845.447 499.432L845.447 499.433L845.447 499.433L845.447 499.433L845.447 499.433L845.447 499.433L845.447 499.433C845.184 501.546 844.919 503.669 843.976 505.643C843.588 506.353 843.348 507.134 843.269 507.939C843.211 509.465 842.914 510.973 842.39 512.407C841.802 514.076 841.339 515.778 840.875 517.482L840.875 517.482C840.497 518.872 840.119 520.262 839.672 521.635C838.064 526.585 836.412 531.518 834.515 536.359C833.986 537.709 833.547 539.087 833.107 540.465L833.107 540.465L833.107 540.465L833.107 540.465L833.107 540.465L833.107 540.465L833.107 540.465L833.107 540.465L833.107 540.466L833.107 540.466C832.587 542.096 832.067 543.726 831.398 545.313C830.835 546.651 830.599 548.13 830.364 549.607C830.27 550.196 830.177 550.786 830.062 551.365C828.163 560.969 828.168 570.487 831.722 579.754C831.93 580.295 831.921 580.826 831.913 581.349C831.904 581.963 831.894 582.567 832.234 583.162C835.065 588.126 837.827 593.128 840.378 598.246C842.133 601.766 844.602 604.777 847.071 607.788C848.374 609.378 849.677 610.967 850.876 612.631L850.935 612.714L850.989 612.789L850.99 612.79C851.585 613.611 851.617 613.656 851.613 614.942C851.613 615.043 851.721 615.147 851.824 615.247C851.862 615.284 851.9 615.321 851.932 615.357C852.699 616.23 853.442 617.124 854.184 618.018C855.702 619.847 857.221 621.676 858.947 623.317C859.21 623.567 859.471 623.821 859.732 624.076C861.065 625.376 862.403 626.681 864.124 627.479C871.293 630.802 878.403 630.395 885.385 626.958C889.321 625.02 892.714 622.275 895.977 619.376C902.69 613.446 908.069 606.16 911.758 597.999C913.251 594.71 914.651 591.38 916.051 588.049C918.143 583.073 920.236 578.095 922.643 573.25C926.504 565.328 931.914 558.261 938.555 552.464C946.629 545.454 955.515 539.575 964.457 533.768C970.588 529.786 976.566 525.592 981.898 520.563C989.397 513.489 994.641 504.976 998.074 495.278C1000.16 489.428 1001.84 483.442 1003.1 477.361C1006.53 460.689 1007.53 443.877 1005.6 426.918C1004.72 419.184 1003.07 411.665 999.673 404.601C997.379 399.839 994.779 395.279 991.095 391.422C988.933 389.158 986.524 387.256 983.449 386.393C979.681 385.329 975.753 384.952 971.852 385.281C964.771 385.873 958.035 387.925 951.297 389.978C950.478 390.227 949.658 390.477 948.838 390.724C941.419 392.958 934.003 395.067 926.077 394.673C921.55 394.485 917.073 393.65 912.782 392.192C902.222 388.53 892.333 383.389 882.449 378.25L882.448 378.25L881.28 377.643C879.943 376.949 878.623 376.221 877.303 375.493L877.302 375.493C873.935 373.637 870.567 371.781 866.925 370.474C863.525 369.254 860.06 368.408 856.412 368.58C849.978 368.97 843.886 371.596 839.189 376.002C839.071 376.14 838.928 376.253 838.767 376.337C837.018 377.015 836.098 378.478 835.176 379.944L835.176 379.944C835.085 380.09 834.993 380.235 834.901 380.38C834.836 380.481 834.774 380.593 834.71 380.706C834.511 381.06 834.303 381.43 834.008 381.538C833.238 381.822 832.959 382.458 832.675 383.105C832.445 383.629 832.211 384.162 831.709 384.522C831.436 384.717 831.271 385.193 831.091 385.71C830.945 386.127 830.791 386.571 830.563 386.916L831.056 385.556ZM923.302 574.892C925.45 570.362 928.134 566.107 931.298 562.217C928.068 566.856 925.259 571.774 922.905 576.913C920.858 581.258 919.012 585.689 917.166 590.12C916.266 592.278 915.367 594.436 914.445 596.584C913.581 598.7 912.533 600.736 911.313 602.669C911.14 601.957 911.486 601.495 911.822 601.046C911.986 600.827 912.148 600.612 912.245 600.371C912.876 598.824 913.541 597.291 914.206 595.758C914.833 594.311 915.461 592.864 916.059 591.406C918.342 585.843 920.686 580.308 923.302 574.892ZM825.357 386.895C828.127 382.04 831.566 377.598 835.573 373.699C831.11 377.168 827.596 381.707 825.357 386.895ZM838.737 498.784C839.957 492.456 840.225 485.981 839.531 479.572C839.622 485.991 839.271 492.391 838.737 498.784ZM823.219 569.194C823.644 574.932 824.584 580.544 827.504 585.634C825.451 580.335 824.013 574.819 823.219 569.194ZM989.133 515.049L989.133 515.048C992.263 510.653 995.394 506.258 997.471 501.218C995.476 506.925 992.28 512.137 988.099 516.504C988.439 516.023 988.782 515.542 989.124 515.062L989.133 515.049ZM822.062 394.168C822.241 394.119 822.372 394.09 822.465 394.069C822.597 394.039 822.652 394.027 822.66 394C823.236 391.998 824.023 390.063 825.007 388.227C825.064 388.155 825.088 388.062 825.073 387.971C825.059 387.88 825.008 387.799 824.932 387.747C824.667 387.578 824.492 387.767 824.412 387.975C823.814 389.529 823.226 391.087 822.599 392.745L822.598 392.747L822.597 392.75C822.422 393.214 822.244 393.686 822.062 394.168ZM845.712 481.568C845.902 479.107 845.711 476.63 845.146 474.227L845.712 481.568ZM922.294 586.41C923.665 584.39 923.929 583.253 923.064 582.419C923.742 583.415 923.319 584.061 922.876 584.738C922.554 585.231 922.221 585.739 922.294 586.41ZM921.433 590.973L921.575 591.07L919.405 595.945L919.25 595.876L921.433 590.973Z" fill="#9EAD8D"/>
</svg>
