<svg width="283" height="54" viewBox="0 0 283 54" fill="none" xmlns="http://www.w3.org/2000/svg">
<path fill-rule="evenodd" clip-rule="evenodd" d="M233.441 49.0161C233.198 48.3229 233.025 47.6072 232.924 46.8796C232.867 46.8279 232.825 46.7608 232.805 46.6863C232.665 46.2648 232.529 45.8414 232.393 45.418C232.285 45.0796 232.177 44.7412 232.066 44.4039C231.504 42.8647 230.835 41.3671 230.062 39.9221C229.526 38.8124 228.891 37.7524 228.168 36.7545C227.893 36.3832 227.627 36.0046 227.362 35.6262C226.547 34.464 225.732 33.3024 224.65 32.3516C224.235 32.0701 223.882 31.7066 223.613 31.2836C223.344 30.6676 222.858 30.2637 222.374 29.8619C221.967 29.5241 221.562 29.1877 221.29 28.728C220.645 28.3329 220.08 27.8367 219.515 27.3399C218.934 26.8299 218.353 26.3192 217.683 25.9166C217.074 25.5509 216.501 25.1276 215.927 24.704C215.564 24.4363 215.201 24.1684 214.829 23.915C214.321 23.5299 213.769 23.2073 213.185 22.9539C212.941 22.8639 212.732 22.7049 212.524 22.5465C212.185 22.2882 211.848 22.0315 211.365 22.0792C211.205 21.5433 210.763 21.3789 210.333 21.2191C210.186 21.1646 210.04 21.1107 209.908 21.0427C209.379 20.7701 208.83 20.5337 208.282 20.2974C207.555 19.9842 206.828 19.6712 206.15 19.2748C205.619 18.9639 205.052 18.7519 204.483 18.5395C203.912 18.3257 203.339 18.1115 202.801 17.7957C202.126 17.3998 201.349 17.1788 200.572 16.9579C200.244 16.8647 199.916 16.7715 199.596 16.6653C199.398 16.5993 199.196 16.5388 198.993 16.4784C198.581 16.3557 198.17 16.2332 197.802 16.0658C197.487 15.923 197.161 15.8213 196.835 15.7197C196.519 15.6212 196.203 15.5229 195.899 15.3875C195.324 15.0638 194.659 14.9375 194.005 15.0278C193.658 14.6661 193.206 14.5701 192.755 14.4741C192.54 14.4285 192.326 14.383 192.123 14.309C191.938 14.2414 191.731 14.2267 191.526 14.2121C191.289 14.1953 191.053 14.1785 190.855 14.0812C190.285 13.8008 189.676 13.6924 189.07 13.5847C188.801 13.5368 188.533 13.489 188.268 13.4263C186.852 13.0869 185.418 12.8247 183.973 12.641C183.632 12.5987 183.291 12.5469 182.949 12.4949C181.89 12.3341 180.82 12.1717 179.73 12.2823C179.163 12.4209 178.564 12.3433 178.051 12.0646C177.895 11.9614 177.623 12.0339 177.352 12.1064C177.225 12.1402 177.098 12.174 176.984 12.1899L176.564 11.9901L176.232 12.2993L175.889 11.9806L175.539 12.1804C175.392 12.1585 175.254 12.125 175.129 12.0943C174.885 12.035 174.686 11.9862 174.54 12.0521C173.922 12.3387 173.285 12.3173 172.651 12.2959C172.314 12.2845 171.978 12.2732 171.645 12.3078C171.327 12.3399 171.011 12.394 170.68 12.4508C170.525 12.4773 170.367 12.5044 170.204 12.5301L169.967 12.3108C169.935 12.3388 169.903 12.3746 169.871 12.4105C169.802 12.4882 169.733 12.566 169.667 12.5636C167.998 12.5355 166.333 12.722 164.713 13.1186C164.517 13.1623 164.322 13.1573 164.125 13.1523C163.81 13.1443 163.49 13.1362 163.156 13.3254C162.921 13.4584 162.635 13.4761 162.335 13.4946C162.064 13.5113 161.782 13.5287 161.518 13.6326C161.332 13.7057 161.122 13.7079 160.909 13.7102C160.599 13.7134 160.279 13.7168 160.009 13.9378C158.615 13.9876 157.297 14.4017 155.99 14.8125C155.631 14.9253 155.273 15.0379 154.914 15.1427C152.668 15.8379 150.464 16.6656 148.316 17.6214C147.422 18.0027 146.518 18.3621 145.615 18.7216C144.451 19.1845 143.288 19.6475 142.142 20.1575C141.005 20.6114 139.836 20.9772 138.643 21.2515C137.83 21.4693 137.009 21.6491 136.187 21.8291C135.761 21.9223 135.335 22.0156 134.91 22.1142C134.775 22.1455 134.642 22.1867 134.509 22.2278C134.317 22.2869 134.126 22.346 133.931 22.3754C133.573 22.3619 133.215 22.3814 132.861 22.4339C131.92 22.7571 130.928 22.9112 129.933 22.889C129.199 22.8818 128.465 22.9008 127.731 22.9198C125.957 22.9657 124.183 23.0117 122.407 22.6892C120.772 22.4246 119.174 21.9693 117.646 21.3324C115.785 20.5225 114.092 19.3702 112.657 17.9356C112.263 17.5426 111.868 17.1516 111.473 16.7606C109.917 15.223 108.362 13.6855 106.923 12.0231C104.787 9.60662 102.415 7.40865 99.8435 5.46171C98.7952 4.65508 97.6787 3.94105 96.5066 3.3277C94.3079 2.17227 92.0816 1.08129 89.612 0.546288C88.8746 0.347994 88.1271 0.189248 87.3728 0.0707311C86.2399 -0.0159605 85.1023 -0.0229713 83.9684 0.0497506C83.6343 0.0622808 83.2999 0.0535628 82.9653 0.0448415C82.1528 0.0236618 81.3396 0.00246307 80.5281 0.285531C80.2059 0.398135 79.8476 0.416865 79.4911 0.4355C79.0916 0.456381 78.6944 0.477141 78.3529 0.62971C78.0443 0.767698 77.7306 0.804351 77.4172 0.840969C77.1032 0.877658 76.7895 0.914311 76.4815 1.05282C75.824 1.3479 75.1297 1.559 74.4347 1.77036C73.9589 1.91502 73.4828 2.0598 73.0177 2.23172C72.1768 2.50096 71.372 2.87187 70.6211 3.33619C70.2965 3.55915 69.9408 3.72998 69.5856 3.90054C69.0139 4.17515 68.4436 4.44905 68.007 4.93869C66.6165 5.50847 65.4343 6.40579 64.2564 7.29979C63.971 7.51642 63.6859 7.73286 63.3981 7.94439C61.8504 9.05938 60.404 10.3084 59.0756 11.6769C58.489 12.2933 57.8831 12.8911 57.2771 13.489C56.058 14.6918 54.8387 15.8947 53.7774 17.2487C53.6094 17.463 53.4199 17.6649 53.2308 17.8663C52.9005 18.2182 52.5714 18.5687 52.3604 18.9816C52.0601 19.5683 51.6618 20.0937 51.2639 20.6185C50.6819 21.3862 50.1009 22.1526 49.8293 23.1078C48.8337 24.3821 48.2534 25.8569 47.6732 27.3314C47.4203 27.974 47.1675 28.6166 46.8803 29.2425C46.4904 30.0927 46.198 30.9791 45.9051 31.8668C45.6452 32.6545 45.3849 33.4433 45.0559 34.2089C44.6381 35.0797 44.2667 35.9719 43.9433 36.8819C43.8341 37.2349 43.7002 37.5811 43.5664 37.9271C43.3811 38.4061 43.1961 38.8845 43.0771 39.3796C42.9752 39.8031 42.848 40.2188 42.7211 40.6339C42.5759 41.1086 42.431 41.5824 42.3244 42.0661C41.987 43.6142 41.7041 45.1747 41.4277 46.7357C41.3822 46.9932 41.3711 47.2674 41.3601 47.5399C41.34 48.0373 41.3201 48.529 41.0918 48.9027C40.9235 49.1782 40.9112 49.4611 40.8989 49.7426C40.8855 50.0521 40.8721 50.36 40.6514 50.6546C40.4527 50.9192 40.4675 51.3432 40.4823 51.7684C40.489 51.9636 40.4958 52.1591 40.482 52.3395C40.4653 52.5449 40.4478 52.7501 40.4304 52.9553C40.3955 53.3646 40.3607 53.7739 40.332 54.1838C40.3262 54.2663 40.3367 54.3587 40.347 54.4498C40.365 54.6079 40.3825 54.7618 40.313 54.8522C40.0172 55.2347 40.0388 55.6479 40.0603 56.0597C40.0707 56.2609 40.0812 56.4617 40.0546 56.6585C40.0177 56.9318 39.9745 57.2044 39.9312 57.477C39.8796 57.8021 39.828 58.1272 39.7872 58.4533C39.7592 59.2818 39.6517 60.1056 39.4663 60.9135C39.3599 61.4074 39.1828 61.8833 38.9405 62.3267C37.7226 64.1378 36.3672 65.8528 34.8864 67.4564C33.9115 68.5032 32.8598 69.4759 31.74 70.3662C31.1672 70.8119 30.634 71.3078 30.1005 71.804C29.7198 72.158 29.339 72.5122 28.9435 72.8484C28.6908 73.0632 28.4146 73.2511 28.1387 73.4389C27.8057 73.6655 27.473 73.892 27.1821 74.1652C26.2855 74.9049 25.3224 75.5602 24.3051 76.1228C23.5495 76.6075 22.7802 77.0699 22.0106 77.5325C21.4697 77.8575 20.9288 78.1827 20.3924 78.5156C19.0534 79.3478 17.7169 80.1831 16.3983 81.0463C14.2857 82.397 12.2521 83.8674 10.3074 85.4502C8.97378 86.5436 7.75052 87.7649 6.6552 89.0968C5.76299 90.1998 4.97474 91.3829 4.30051 92.631C3.54321 93.8485 2.87391 95.1186 2.2977 96.4314C2.15966 96.8008 2.01178 97.166 1.86407 97.5308C1.41064 98.6507 0.958831 99.7665 0.798224 100.985C0.493246 101.164 0.487505 101.442 0.481484 101.733C0.476522 101.973 0.47137 102.222 0.298397 102.433C0.144841 102.621 0.179907 102.952 0.216225 103.296C0.237832 103.5 0.259883 103.709 0.242916 103.893C0.136102 104.396 0.0550246 104.904 0 105.416C0.00499215 105.755 0.0630214 106.092 0.121087 106.43C0.17348 106.735 0.225903 107.04 0.239417 107.347C0.315415 108.027 0.470923 108.696 0.702757 109.34C1.03183 110.563 1.55278 111.726 2.24622 112.787C2.8441 113.784 3.52761 114.728 4.28902 115.607C4.59178 115.923 4.88081 116.251 5.16993 116.581C5.80532 117.304 6.44112 118.027 7.224 118.615C7.59193 118.892 7.92668 119.207 8.26318 119.525C8.60278 119.845 8.94418 120.167 9.32327 120.452C11.5969 122.122 13.9694 123.654 16.4278 125.039C17.7404 125.798 19.1167 126.45 20.4895 127.101C20.6003 127.153 20.7111 127.206 20.8218 127.258C21.3459 127.507 21.8974 127.698 22.4486 127.889C22.6528 127.96 22.8569 128.031 23.0595 128.105C23.5046 128.267 23.9668 128.385 24.4267 128.502C24.9546 128.637 25.4796 128.771 25.9725 128.97C26.4603 129.169 26.9642 129.258 27.4665 129.346C27.9633 129.434 28.4586 129.522 28.935 129.714C29.2701 129.85 29.6445 129.882 30.0212 129.913C30.302 129.937 30.584 129.961 30.8518 130.028C31.1311 130.098 31.4253 130.126 31.7138 130.154C32.0878 130.19 32.4523 130.225 32.7627 130.348C33.1655 130.507 33.5458 130.512 33.9224 130.517C34.1425 130.52 34.3613 130.523 34.5825 130.557C34.7167 130.578 34.8508 130.599 34.985 130.62C35.4936 130.7 36.0026 130.78 36.5144 130.825C36.9869 130.868 37.4629 130.852 37.9392 130.836C38.7967 130.807 39.655 130.778 40.495 131.09C40.7289 131.178 41.1443 131.204 41.2787 131.066C41.5416 130.797 41.8272 130.814 42.111 130.831C42.2153 130.838 42.3193 130.844 42.4218 130.836C42.9972 130.791 43.5731 130.8 44.1497 130.809C45.1268 130.825 46.1057 130.84 47.0877 130.594C48.2181 130.398 49.3627 130.295 50.51 130.287C50.5434 130.284 50.5831 130.289 50.6217 130.293C50.6872 130.301 50.75 130.308 50.7754 130.28C51.0091 130.024 51.2929 130.022 51.5794 130.02C51.685 130.019 51.7911 130.019 51.895 130.005C52.1422 129.973 52.3865 129.915 52.6313 129.857C52.8018 129.816 52.9726 129.776 53.1446 129.744C53.3254 129.71 53.5178 129.696 53.7096 129.681C54.1028 129.651 54.4937 129.622 54.7775 129.431C55.0383 129.255 55.3276 129.252 55.6095 129.249C55.9366 129.245 56.2537 129.242 56.5044 128.969C57.7043 128.756 58.8758 128.43 60.0464 128.105C60.6723 127.931 61.2979 127.757 61.9276 127.6C62.766 127.392 63.5945 127.153 64.4226 126.914C65.4669 126.613 66.5105 126.312 67.5721 126.072C68.3851 125.888 69.1892 125.669 69.9934 125.45C70.4154 125.335 70.8375 125.22 71.2608 125.11C71.657 125.008 72.0616 124.925 72.4646 124.843C72.9881 124.736 73.5089 124.63 74.0054 124.481C74.514 124.328 75.0322 124.239 75.5493 124.15C76.1207 124.052 76.6909 123.953 77.2458 123.77C77.4618 123.699 77.6894 123.684 77.9228 123.668C78.2024 123.65 78.4904 123.63 78.7767 123.514C79.0267 123.413 79.3038 123.395 79.5912 123.375C79.8675 123.357 80.1534 123.338 80.4337 123.244C80.7874 123.126 81.186 123.151 81.5883 123.177C81.8363 123.193 82.0857 123.209 82.327 123.191C82.6048 123.171 82.881 123.121 83.157 123.07C83.4789 123.011 83.8004 122.953 84.1234 122.942C85.0472 122.92 85.9709 122.989 86.8809 123.15C87.5215 123.255 88.1574 123.373 88.7929 123.491C89.1704 123.561 89.5478 123.632 89.9259 123.699C91.9711 124.064 93.7371 125.03 95.4902 125.99L95.6304 126.066C97.5366 127.109 99.1246 128.597 100.706 130.078C100.986 130.34 101.266 130.602 101.547 130.862C101.802 131.097 102.014 131.378 102.227 131.659C102.413 131.905 102.6 132.153 102.816 132.369C104.229 133.786 105.516 135.302 106.785 136.851C107.327 137.512 107.883 138.163 108.44 138.814C108.915 139.369 109.39 139.925 109.857 140.488C110.529 141.298 111.251 142.066 111.974 142.835C112.261 143.141 112.549 143.447 112.833 143.755C113.005 143.904 113.164 144.067 113.309 144.241C114.152 145.534 115.272 146.569 116.39 147.6C116.758 147.94 117.126 148.279 117.483 148.627C118.046 149.178 118.69 149.647 119.333 150.115C119.962 150.573 120.591 151.03 121.145 151.565C121.858 152.254 122.677 152.799 123.493 153.342C124.382 153.934 125.269 154.524 126.017 155.298C126.958 155.759 127.837 156.325 128.716 156.892C129.514 157.405 130.311 157.919 131.156 158.355C131.465 158.514 131.762 158.696 132.059 158.878C132.377 159.072 132.695 159.267 133.026 159.433C133.482 159.662 133.938 159.892 134.393 160.123C136.862 161.374 139.331 162.624 141.936 163.586C142.739 163.882 143.532 164.203 144.326 164.523C144.856 164.737 145.386 164.951 145.919 165.158C146.662 165.447 147.415 165.712 148.168 165.977C148.856 166.17 149.532 166.405 150.192 166.681C150.862 166.938 151.55 167.144 152.252 167.297C153.389 167.665 154.554 167.945 155.719 168.225C156.37 168.381 157.022 168.538 157.668 168.71C158.899 169.062 160.151 169.335 161.417 169.528C161.563 169.548 161.705 169.603 161.847 169.658C161.983 169.711 162.119 169.764 162.26 169.786C162.511 169.825 162.77 169.843 163.028 169.862C163.521 169.898 164.011 169.933 164.445 170.11C164.903 170.232 165.371 170.313 165.844 170.352C166.286 170.528 166.758 170.618 167.235 170.616C167.699 170.553 168.15 170.657 168.6 170.762C169.099 170.878 169.599 170.994 170.12 170.883C170.469 171.175 170.869 171.164 171.269 171.152C171.44 171.148 171.611 171.143 171.778 171.162C172.023 171.19 172.266 171.236 172.51 171.281C172.818 171.339 173.127 171.398 173.438 171.419C174.588 171.426 175.737 171.505 176.877 171.653C178.049 171.818 179.237 171.827 180.411 171.681C181.075 171.63 181.719 171.727 182.361 171.824C182.898 171.905 183.433 171.986 183.979 171.981C184.296 171.977 184.612 171.973 184.928 171.969C186.43 171.95 187.932 171.931 189.43 171.992C190.337 172.029 191.232 171.931 192.127 171.832C193.003 171.735 193.881 171.639 194.771 171.669C195.043 171.679 195.317 171.694 195.59 171.709C196.779 171.774 197.979 171.84 199.163 171.456C199.702 171.376 200.249 171.366 200.791 171.426C200.908 171.421 201.027 171.428 201.147 171.435C201.503 171.455 201.861 171.476 202.164 171.191C202.455 171.57 202.724 171.427 203.003 171.278C203.192 171.176 203.386 171.073 203.595 171.128C204.134 171.207 204.681 171.217 205.222 171.158C205.294 171.158 205.374 171.168 205.453 171.177C205.627 171.198 205.801 171.218 205.889 171.141C206.239 170.837 206.62 170.863 207 170.888C207.189 170.901 207.378 170.914 207.563 170.886C207.746 170.858 207.931 170.826 208.115 170.795C208.529 170.725 208.944 170.654 209.359 170.62C210.297 170.54 211.237 170.479 212.177 170.417C212.563 170.392 212.948 170.367 213.334 170.341C213.362 170.339 213.395 170.34 213.427 170.342C213.496 170.346 213.564 170.35 213.593 170.318C213.832 170.05 214.132 170.074 214.42 170.096C214.62 170.112 214.815 170.127 214.981 170.044C215.468 169.852 215.992 169.767 216.515 169.794C216.796 169.775 217.072 169.71 217.348 169.645C217.797 169.539 218.246 169.433 218.72 169.526C218.943 169.261 219.228 169.26 219.517 169.259C219.623 169.259 219.729 169.258 219.832 169.245C220.242 169.132 220.66 169.051 221.082 169.003C221.438 169.017 221.624 168.836 221.816 168.649C221.868 168.599 221.92 168.548 221.976 168.5C222.015 168.467 222.076 168.458 222.139 168.449C222.169 168.445 222.2 168.441 222.23 168.433L222.689 168.733C222.849 168.608 223.03 168.512 223.223 168.45C223.403 168.426 223.588 168.432 223.772 168.438C223.953 168.443 224.133 168.449 224.31 168.427C224.508 168.402 224.703 168.349 224.897 168.295C225.073 168.247 225.248 168.199 225.426 168.172C225.776 168.182 226.122 168.097 226.426 167.925C226.572 167.821 226.772 167.797 226.986 167.772C227.165 167.751 227.354 167.729 227.532 167.658C227.943 167.493 228.387 167.412 228.832 167.331C229.23 167.259 229.63 167.186 230.008 167.052C230.31 166.946 230.628 166.891 230.945 166.837C231.508 166.741 232.071 166.645 232.54 166.257C233.28 166.313 233.941 166.056 234.603 165.8C235.057 165.624 235.511 165.447 235.992 165.372C236.414 165.335 236.821 165.199 237.18 164.975C237.562 164.662 238.036 164.481 238.529 164.46C238.898 164.379 239.254 164.251 239.591 164.08C239.725 164.035 239.864 164.001 240.002 163.966C240.193 163.919 240.384 163.871 240.563 163.796C240.699 163.739 240.829 163.653 240.958 163.568C241.161 163.435 241.36 163.304 241.569 163.292C241.902 163.271 242.079 163.098 242.258 162.922C242.318 162.863 242.379 162.803 242.446 162.749C242.712 163.006 242.928 162.872 243.14 162.741C243.223 162.689 243.306 162.637 243.391 162.611C243.581 162.551 243.764 162.466 243.947 162.381C244.108 162.307 244.269 162.232 244.435 162.174C245.086 161.999 245.726 161.789 246.354 161.543C246.723 161.367 247.072 161.147 247.421 160.927C247.792 160.693 248.162 160.459 248.557 160.279C248.807 160.165 249.055 160.05 249.303 159.935C249.968 159.626 250.634 159.316 251.315 159.041C251.485 158.972 251.629 158.84 251.773 158.707C251.92 158.572 252.067 158.437 252.24 158.371C253.225 157.992 254.17 157.519 255.064 156.959C255.818 156.491 256.597 156.06 257.376 155.633C258.44 155.082 259.407 154.362 260.239 153.501L260.514 153.711C260.543 153.643 260.565 153.57 260.585 153.501C260.624 153.369 260.659 153.252 260.734 153.212C262.914 152.053 264.757 150.444 266.593 148.841C266.848 148.618 267.103 148.395 267.359 148.173C270.196 145.622 272.809 142.832 275.169 139.834C276.539 137.984 277.783 136.044 278.893 134.027C280.042 132.023 280.859 129.885 281.676 127.746C281.818 127.375 281.96 127.004 282.103 126.634C282.163 126.48 282.121 126.288 282.07 126.054C282.044 125.932 282.015 125.799 281.997 125.654C282.209 125.413 282.371 125.132 282.474 124.828C282.588 124.368 282.666 123.901 282.707 123.429C282.735 123.03 282.811 122.635 282.935 122.254C282.968 122.174 282.866 122.005 282.79 121.879C282.741 121.798 282.702 121.734 282.717 121.723C283.053 121.463 283.013 121.125 282.976 120.807C282.967 120.732 282.958 120.658 282.955 120.587C282.967 119.211 282.901 117.835 282.759 116.466C282.534 115.123 282.166 113.808 281.66 112.543C280.544 109.678 278.809 107.095 276.578 104.978C275.462 103.818 274.269 102.734 273.007 101.734C271.72 100.739 270.375 99.8221 268.977 98.99C268.41 98.6783 267.864 98.3255 267.319 97.9728C266.684 97.5621 266.05 97.1515 265.381 96.8061C263.325 95.7437 261.239 94.7483 259.123 93.8199C257.704 93.1969 256.25 92.6385 254.792 92.098C253.925 91.783 253.074 91.424 252.243 91.0225C251.615 90.7145 250.96 90.4618 250.305 90.2093C250.097 90.1292 249.889 90.0492 249.683 89.9674C248.811 89.6628 247.968 89.2836 247.162 88.834C246.737 88.5712 246.304 88.3229 245.869 88.0744C244.859 87.4958 243.845 86.9158 242.931 86.147C241.945 85.2439 241.055 84.2421 240.274 83.1573C239.787 82.5417 239.504 81.8294 239.222 81.1193C238.958 80.4558 238.695 79.7941 238.267 79.215C238.322 78.7554 238.159 78.3467 237.997 77.9409C237.873 77.6301 237.75 77.321 237.726 76.992C237.689 76.4845 237.569 75.9918 237.448 75.4996C237.291 74.8564 237.134 74.2142 237.164 73.5413C236.858 73.2351 236.876 72.8704 236.893 72.5063C236.901 72.3424 236.909 72.1785 236.887 72.0202C236.855 71.7874 236.81 71.5562 236.764 71.3251C236.71 71.0499 236.656 70.7748 236.625 70.4971C236.586 70.1554 236.56 69.8115 236.534 69.4677C236.484 68.8018 236.433 68.1366 236.294 67.4899C236.271 67.1778 236.21 66.8696 236.114 66.5718C236.014 66.1307 236 65.6743 236.074 65.228C236.074 65.1019 236.088 64.9674 236.102 64.8329C236.133 64.5315 236.164 64.2299 236.039 64.0226C235.852 63.6266 235.77 63.1895 235.8 62.7528C235.784 61.6524 235.677 60.5552 235.48 59.4724C235.409 59.191 235.39 58.9066 235.371 58.6276C235.348 58.2988 235.326 57.9777 235.222 57.6785C234.876 56.6967 234.701 55.6631 234.704 54.6224C234.727 54.2745 234.662 53.9263 234.516 53.6098C234.369 53.3146 234.329 52.9696 234.288 52.6216C234.258 52.3614 234.227 52.0995 234.152 51.8555C234.036 51.4815 233.97 51.0975 233.904 50.7129C233.806 50.1378 233.707 49.5615 233.441 49.0161ZM169.444 17.9639C169.539 17.904 169.628 17.848 169.707 17.8097C169.86 17.8378 170.013 17.8828 170.159 17.9257C170.46 18.0141 170.731 18.0937 170.908 17.9985C171.395 17.7351 171.885 17.7502 172.374 17.7653C172.581 17.7717 172.788 17.7781 172.995 17.7632C173.262 17.7434 173.53 17.7229 173.798 17.7024C174.9 17.6179 176.003 17.5334 177.107 17.498C177.926 17.4712 178.747 17.4756 179.567 17.48C180.155 17.4832 180.744 17.4864 181.332 17.478C181.623 17.4284 181.907 17.3446 182.178 17.2282C182.186 17.2346 182.198 17.2481 182.214 17.2656C182.271 17.327 182.371 17.4363 182.481 17.4475C182.701 17.471 182.924 17.4713 183.147 17.4716C183.375 17.4719 183.604 17.4722 183.83 17.4975C184.009 17.5172 184.185 17.5686 184.36 17.62C184.555 17.6769 184.749 17.7336 184.946 17.7473C185.176 17.763 185.42 17.7414 185.662 17.7201C186.088 17.6825 186.506 17.6456 186.825 17.8127C187.124 17.9711 187.443 17.9572 187.735 17.9444C188.024 17.9317 188.286 17.9202 188.477 18.0779C188.734 18.2906 189.033 18.2827 189.321 18.2751C189.65 18.2664 189.966 18.2581 190.195 18.5775C191.467 18.6067 192.668 18.9598 193.87 19.3132C194.762 19.5753 195.655 19.8376 196.577 19.9682C197.482 20.1711 198.365 20.4617 199.213 20.8359C199.899 21.0382 200.573 21.2806 201.23 21.5617C201.829 21.8698 202.463 22.1035 203.118 22.2576C203.414 22.32 203.684 22.4558 203.951 22.5911C204.329 22.7817 204.704 22.9711 205.151 22.9524C205.878 23.3436 206.613 23.7195 207.347 24.0954C208.866 24.8731 210.386 25.6509 211.842 26.5645C213.142 27.3806 214.379 28.2774 215.611 29.1699L215.849 29.3425C217.119 30.332 218.312 31.4175 219.416 32.5894C221.129 34.3741 222.617 36.3621 223.846 38.5089C224.203 39.0979 224.476 39.7106 224.749 40.3224C224.903 40.6664 225.056 41.0102 225.224 41.3493C225.676 42.2511 226.054 43.1879 226.355 44.1506L226.38 44.2312C226.732 45.3754 227.085 46.522 227.329 47.6933C227.365 47.8648 227.419 48.0325 227.473 48.201C227.59 48.5655 227.708 48.9333 227.645 49.3488C227.607 49.603 227.696 49.8453 227.786 50.0907C227.894 50.3825 228.003 50.6786 227.9 51.0043C228.223 51.7831 228.334 52.6094 228.445 53.4358C228.556 54.2616 228.667 55.0875 228.989 55.8662C228.997 55.8894 228.994 55.9168 228.991 55.9448C228.989 55.9639 228.987 55.9832 228.989 56.0016C229.015 56.3686 229.039 56.7356 229.064 57.1027C229.126 58.0152 229.187 58.9276 229.267 59.8385C229.305 60.2624 229.376 60.6832 229.447 61.1041C229.476 61.2804 229.506 61.4568 229.534 61.6334C229.565 61.8349 229.55 62.0429 229.535 62.2512C229.506 62.6608 229.477 63.0714 229.797 63.4357C229.855 63.5017 229.832 63.6504 229.812 63.7756C229.809 63.7963 229.806 63.8164 229.803 63.8353C229.672 64.7871 229.813 65.7218 229.954 66.6545C230.019 67.0836 230.084 67.5123 230.122 67.942C230.248 69.3627 230.439 70.7958 230.658 72.21C230.836 73.4314 231.113 74.6364 231.485 75.8131C231.821 76.9404 232.221 78.0472 232.685 79.1281C232.867 79.5227 233.043 79.923 233.22 80.3236C233.45 80.8463 233.68 81.3694 233.924 81.881C234.383 82.8013 234.953 83.6614 235.623 84.4416C236.6 85.6643 237.665 86.8145 238.809 87.8829C240.175 89.1374 241.695 90.213 243.332 91.0839C244.869 91.9598 246.449 92.756 248.068 93.4692C248.776 93.7457 249.468 94.056 250.162 94.3663C251.269 94.8622 252.377 95.3582 253.547 95.7171C254.312 95.9518 255.043 96.2946 255.775 96.6377C256.378 96.9205 256.981 97.2035 257.605 97.4265C259.956 98.3414 262.246 99.4047 264.462 100.61C267.511 102.263 270.331 104.306 272.851 106.687C273.977 107.829 274.9 109.154 275.581 110.605C275.991 111.537 276.291 112.513 276.477 113.514C276.554 113.915 276.567 114.321 276.58 114.722C276.596 115.203 276.612 115.676 276.736 116.125C276.936 116.849 276.842 117.546 276.749 118.242C276.683 118.734 276.617 119.227 276.655 119.727C276.697 120.273 276.507 120.843 276.321 121.405C276.26 121.588 276.2 121.769 276.148 121.949C275.79 123.291 275.348 124.609 274.825 125.895C273.742 128.417 272.455 130.846 270.976 133.158C270.785 133.429 270.596 133.703 270.406 133.976C269.351 135.497 268.296 137.019 266.924 138.29C266.889 138.32 266.857 138.352 266.828 138.386C266.681 138.571 266.554 138.768 266.426 138.965C266.154 139.385 265.881 139.807 265.418 140.116C264.779 140.626 264.192 141.197 263.663 141.821C263.116 142.429 262.532 143.002 261.914 143.539C261.577 143.801 261.252 144.076 260.926 144.351C260.46 144.744 259.993 145.138 259.493 145.496C259.003 145.845 258.54 146.232 258.075 146.62C257.702 146.931 257.328 147.243 256.939 147.537C255.661 148.502 254.337 149.401 252.993 150.245L252.873 150.321C251.702 151.057 250.524 151.797 249.281 152.441C248.618 152.783 247.959 153.134 247.301 153.485C245.877 154.243 244.453 155.001 242.985 155.677C241.842 156.203 240.688 156.704 239.534 157.204C239.032 157.422 238.53 157.639 238.03 157.859C237.632 158.033 237.224 158.164 236.817 158.294C236.384 158.432 235.953 158.57 235.539 158.758C235.261 158.885 234.964 158.967 234.667 159.048C234.148 159.19 233.629 159.332 233.211 159.718C232.588 159.713 232.027 159.932 231.468 160.149C231.118 160.285 230.77 160.421 230.408 160.501C229.968 160.598 229.544 160.749 229.125 160.898C228.666 161.061 228.212 161.223 227.748 161.31C226.901 161.469 226.07 161.685 225.239 161.9C224.461 162.102 223.684 162.304 222.895 162.459C222.829 162.472 222.764 162.485 222.699 162.498C222.213 162.594 221.733 162.689 221.237 162.752C220.724 162.788 220.217 162.879 219.723 163.024C219.204 163.214 218.666 163.301 218.129 163.389C217.577 163.478 217.025 163.568 216.491 163.769C215.995 163.955 215.441 163.985 214.886 164.015C214.598 164.031 214.31 164.046 214.029 164.083C213.742 164.122 213.457 164.182 213.173 164.242C212.996 164.279 212.819 164.317 212.641 164.349C212.506 164.374 212.364 164.363 212.222 164.352C211.921 164.33 211.62 164.307 211.384 164.617C211.363 164.645 211.301 164.638 211.235 164.631C211.195 164.626 211.153 164.622 211.119 164.624C210.838 164.648 210.556 164.671 210.274 164.695C209.502 164.758 208.73 164.821 207.962 164.901C207.742 164.924 207.53 164.983 207.317 165.043C206.991 165.134 206.662 165.226 206.3 165.189C206.244 165.183 206.187 165.176 206.13 165.169C205.671 165.113 205.178 165.053 204.773 165.435C204.742 165.464 204.678 165.456 204.612 165.448C204.575 165.444 204.539 165.44 204.507 165.441C203.98 165.469 203.452 165.485 202.924 165.501C201.712 165.539 200.501 165.576 199.309 165.748C198.479 165.868 197.646 165.882 196.818 165.895C195.999 165.908 195.184 165.921 194.381 166.038C193.104 166.189 191.818 166.261 190.532 166.252C189.231 166.278 187.93 166.267 186.629 166.256L186.579 166.255C186.116 166.251 185.66 166.334 185.205 166.418C184.571 166.533 183.937 166.649 183.285 166.529C181.661 166.231 180.026 166.256 178.392 166.281C177.197 166.299 176.003 166.318 174.815 166.209C174.34 166.166 173.861 166.147 173.384 166.129C172.62 166.099 171.859 166.069 171.116 165.939C170.667 165.86 170.216 165.837 169.769 165.814C169.296 165.79 168.826 165.766 168.367 165.676C168.031 165.609 167.69 165.584 167.353 165.56C166.948 165.53 166.548 165.5 166.168 165.4C165.788 165.3 165.404 165.282 165.027 165.265C164.663 165.248 164.304 165.231 163.96 165.141C163.226 164.948 162.475 164.843 161.725 164.738C160.694 164.595 159.664 164.451 158.68 164.078C157.884 164.204 157.14 163.992 156.395 163.778C155.966 163.656 155.537 163.533 155.097 163.474C154.013 163.293 152.947 163.018 151.91 162.653C150.675 162.259 149.444 161.854 148.213 161.449C147.285 161.144 146.356 160.839 145.427 160.538C143.986 160.072 142.587 159.506 141.191 158.92C139.247 158.103 137.381 157.139 135.517 156.168C135.004 155.9 134.503 155.604 134.003 155.309C133.479 155 132.957 154.691 132.422 154.416C131.776 154.084 131.174 153.692 130.573 153.301C130.216 153.069 129.859 152.837 129.494 152.618C128.392 151.949 127.331 151.213 126.319 150.414C125.614 149.862 124.926 149.285 124.238 148.709C123.743 148.295 123.248 147.88 122.748 147.476C121.039 146.014 119.421 144.45 117.902 142.793C117.045 141.91 116.248 140.966 115.451 140.021C115.019 139.509 114.586 138.996 114.144 138.493C113.158 137.372 112.199 136.216 111.249 135.063C109.222 132.608 107.03 130.316 104.773 128.079C103.946 127.259 103.023 126.559 102.101 125.86C101.63 125.503 101.16 125.146 100.703 124.774C98.959 123.401 97.0435 122.261 95.0046 121.383C94.8172 121.299 94.6296 121.213 94.4417 121.128C92.7571 120.36 91.0449 119.58 89.1526 119.393C88.9021 119.136 88.5803 119.142 88.2678 119.148C88.005 119.153 87.7488 119.158 87.5472 119.007C87.2928 118.816 87.0188 118.815 86.7391 118.813C86.4644 118.811 86.1842 118.81 85.9118 118.629C85.689 118.481 85.3576 118.518 85.0144 118.556C84.7268 118.589 84.4309 118.622 84.1839 118.548C83.0141 118.269 81.8049 118.194 80.6096 118.326C80.1534 118.348 79.6992 118.403 79.2447 118.459C78.4691 118.553 77.6927 118.648 76.9049 118.576C76.5535 118.819 76.1632 118.822 75.7758 118.825C75.5521 118.826 75.3293 118.828 75.1155 118.876C74.8688 118.931 74.617 118.962 74.3679 118.993C74.056 119.033 73.7483 119.071 73.4601 119.155C72.7675 119.353 72.0629 119.488 71.3578 119.623C70.6029 119.768 69.8473 119.913 69.1051 120.136C68.4254 120.339 67.7275 120.501 67.0283 120.662C66.5234 120.779 66.0177 120.895 65.5178 121.029C64.9797 121.172 64.4407 121.314 63.9015 121.456C62.9661 121.702 62.0301 121.948 61.0974 122.204L60.7868 122.289C59.3827 122.675 57.9779 123.06 56.5869 123.49C55.4543 123.84 54.3112 124.153 53.1551 124.415C52.1318 124.716 51.0913 124.955 50.0392 125.132C49.4054 125.202 48.7836 125.356 48.1898 125.589C47.9203 125.693 47.6483 125.698 47.3716 125.704C47.0536 125.71 46.7295 125.716 46.3959 125.873C45.9465 126.085 45.3758 126.106 44.8166 126.127C44.6128 126.135 44.4105 126.142 44.2162 126.159C43.7425 126.199 43.2687 126.25 42.7946 126.3C41.3604 126.453 39.9228 126.607 38.4717 126.486C37.8827 126.434 37.2903 126.434 36.7013 126.486C34.9621 126.567 33.2192 126.451 31.5061 126.141C30.0344 125.923 28.5778 125.613 27.1451 125.212C24.9544 124.596 22.8367 123.746 20.8288 122.675C19.1656 121.828 17.602 120.822 16.0384 119.817C15.3526 119.377 14.6668 118.936 13.9727 118.508C13.738 118.363 13.5493 118.146 13.3601 117.929C13.1854 117.728 13.0102 117.526 12.7981 117.38C11.5621 116.534 10.7321 115.347 9.90329 114.161C9.69373 113.861 9.48425 113.561 9.26829 113.267C8.60336 112.437 8.12517 111.474 7.86628 110.443C7.72963 110.047 7.5503 109.666 7.33146 109.309C7.33646 108.609 7.26167 107.911 7.10854 107.227C6.92105 106.58 6.99032 105.885 7.30197 105.287C7.43173 105.066 7.40175 104.798 7.37065 104.519C7.33143 104.168 7.29045 103.801 7.56588 103.495C7.88927 100.752 9.10335 98.3292 10.3449 95.9279C11.2503 94.0552 12.4573 92.3439 13.9177 90.8621C14.0607 90.7238 14.2032 90.5849 14.3456 90.4461C15.5916 89.232 16.8322 88.023 18.3981 87.195C18.5589 87.1101 18.6662 86.9248 18.7767 86.734C18.8288 86.6442 18.8816 86.5531 18.9409 86.4707L19.0909 86.5976C19.8441 86.0102 20.6389 85.4781 21.4691 85.0056C21.9408 84.7767 22.3789 84.4964 22.8151 84.2173C23.2358 83.9481 23.6547 83.68 24.1002 83.4605C24.8208 83.1045 25.492 82.6821 26.1648 82.2587C26.3519 82.1409 26.5392 82.023 26.7278 81.9065C27.1054 81.6731 27.5021 81.4704 27.8989 81.2678C28.2918 81.0671 28.6849 80.8663 29.0594 80.6357C30.1511 79.9658 31.2257 79.2604 32.2693 78.5171C32.8884 78.0759 33.4812 77.5979 34.074 77.1199C34.3303 76.9133 34.5865 76.7067 34.8449 76.503C36.6278 75.0968 38.2933 73.5612 39.9492 72.0072C40.2046 71.7673 40.4758 71.5397 40.7478 71.3115C41.1898 70.9406 41.6337 70.568 42.015 70.1384C43.5989 68.482 44.931 66.6022 45.9686 64.5591C46.3573 63.8415 46.577 63.0446 46.6109 62.2293C46.6634 61.6725 46.7458 61.1188 46.8578 60.5708C46.8744 60.4077 46.8729 60.2432 46.8715 60.0787C46.8679 59.6781 46.8644 59.2782 47.1217 58.9024C47.1944 58.7965 47.1751 58.6273 47.1558 58.4583C47.147 58.381 47.1382 58.3037 47.1382 58.2325V56.3208C47.4552 56.1024 47.4422 55.7871 47.4289 55.4632C47.4165 55.1625 47.4038 54.8545 47.6545 54.6099C47.8 54.4677 47.7504 54.1034 47.7062 53.7792C47.6953 53.6992 47.6847 53.6216 47.6775 53.5504C47.6548 52.7161 47.7474 51.8826 47.9529 51.0737C48.0486 50.2671 48.2178 49.4708 48.4582 48.6949C48.6589 48.3376 48.5799 47.8884 48.2693 47.6209C48.3207 47.4821 48.4022 47.3506 48.4839 47.2186C48.7132 46.8479 48.9446 46.4742 48.5192 45.929C49.0545 45.7319 49.096 45.3033 49.1387 44.8613C49.1617 44.6243 49.185 44.3836 49.2849 44.1726C49.5377 43.6394 49.6801 43.0636 49.8229 42.4861C50.0143 41.7118 50.2066 40.9342 50.667 40.2518C50.6478 39.3927 51.0028 38.662 51.3595 37.9278C51.4484 37.7449 51.5373 37.5618 51.6206 37.3765C51.8363 36.8968 52.0287 36.4071 52.2214 35.9169C52.3971 35.4698 52.5729 35.0224 52.7667 34.5816C53.0957 33.8339 53.3502 33.0536 53.6055 32.2711C53.7167 31.93 53.8281 31.5885 53.9458 31.2492L53.7599 31.0459C54.0941 30.539 54.387 30.0061 54.6356 29.4523C55.1019 28.1486 55.6088 26.8842 56.8013 25.9936L56.4185 25.512L56.9953 24.9351L56.4265 24.7317C56.4333 23.9213 56.8161 23.5051 57.1753 23.1146C57.2908 22.989 57.4038 22.8661 57.5011 22.7336L57.5742 22.6345C58.0386 22.0045 58.5035 21.3739 58.9951 20.7649C59.3688 20.3018 59.7601 19.8524 60.1513 19.4031C60.3111 19.2196 60.4709 19.0361 60.6295 18.8517C60.8175 18.6332 61.026 18.4341 61.2348 18.2348C61.6335 17.8542 62.033 17.4728 62.2914 16.9535C62.3658 16.8048 62.5401 16.7112 62.7195 16.6149C62.8607 16.539 63.0051 16.4615 63.1062 16.3541C63.1889 16.2667 63.2396 16.1553 63.2908 16.0425C63.3778 15.8509 63.4668 15.6553 63.7185 15.5663C63.9565 15.4629 64.1717 15.3135 64.3517 15.1267C66.7282 12.9581 69.2906 11.0024 72.0096 9.28215C72.7114 8.82973 73.4436 8.44754 74.1736 8.06656C74.3793 7.95916 74.5849 7.85184 74.7896 7.74308C75.7341 7.2816 76.7044 6.8748 77.6956 6.52472C77.9992 6.40605 78.3129 6.31362 78.6276 6.22091C79.1593 6.06424 79.6938 5.90677 80.1868 5.62056C80.4545 5.46588 80.774 5.43477 81.1019 5.40284C81.3817 5.37559 81.6677 5.34774 81.9326 5.24191C82.378 5.0859 82.8427 4.9921 83.3137 4.96317C83.4912 4.94543 83.6787 4.96122 83.8643 4.97686C84.1489 5.00085 84.4293 5.02448 84.6632 4.92621C85.3549 4.63404 86.0538 4.65645 86.7513 4.67882C86.9757 4.68602 87.1999 4.69321 87.4238 4.68993C89.3296 4.62081 91.225 4.99944 92.9578 5.7954C94.0733 6.32597 95.1279 6.97583 96.1032 7.73359C98.6687 9.69986 100.867 12.0715 103.052 14.4285C103.194 14.5811 103.335 14.7336 103.477 14.8859C103.571 14.9878 103.666 15.0897 103.761 15.1916C105.102 16.6361 106.446 18.0827 107.875 19.4317C110.512 21.9759 113.577 24.0341 116.931 25.511C118.757 26.2906 120.654 26.8917 122.596 27.3058C123.031 27.4001 123.47 27.4838 123.907 27.5674C124.44 27.669 124.971 27.7705 125.495 27.8903C126.498 28.0453 127.512 28.1218 128.528 28.1191C128.653 28.1287 128.776 28.1702 128.899 28.2118C129.019 28.2526 129.14 28.2935 129.264 28.3044C129.385 28.3152 129.512 28.334 129.641 28.3529C130.027 28.4099 130.424 28.4685 130.698 28.3164C131.094 28.1165 131.544 28.0504 131.981 28.1281C132.853 28.2088 133.71 28.1034 134.567 27.9981C135.211 27.919 135.855 27.8399 136.504 27.8399C136.909 27.6161 137.366 27.5749 137.822 27.5337C138.393 27.4822 138.964 27.4307 139.436 27.0221C140.131 27.1122 140.778 26.9232 141.427 26.7333C141.861 26.6062 142.297 26.4788 142.75 26.4342C143.704 26.265 144.632 25.9716 145.51 25.5615C146.177 25.3067 146.847 25.0594 147.518 24.8121C149.288 24.1589 151.06 23.5055 152.781 22.7141C153.382 22.4381 154.01 22.2006 154.638 21.9628C154.916 21.8576 155.194 21.7523 155.47 21.6436C155.873 21.4849 156.277 21.3274 156.68 21.17C157.176 20.9762 157.673 20.7823 158.169 20.5861C158.871 20.3081 159.609 20.1184 160.347 19.9287C160.677 19.8441 161.007 19.7594 161.333 19.667C161.875 19.5118 162.423 19.3795 162.971 19.2472C163.37 19.1508 163.769 19.0544 164.166 18.9491C164.572 18.8419 164.992 18.7878 165.415 18.7335C165.723 18.694 166.032 18.6543 166.336 18.594C167.1 18.394 167.885 18.2858 168.675 18.2718C168.939 18.2821 169.21 18.1112 169.444 17.9639Z" fill="#9EAD8D"/>
</svg>
